AcariSans-Italic.ufo
<glyph name="exclam" format="2">
  <advance width="637"/>
  <unicode hex="0021"/>
  <outline>
    <contour>
      <point x="347" y="381" type="line"/>
      <point x="233" y="381" type="line"/>
      <point x="449" y="1435" type="line"/>
      <point x="621" y="1435" type="line"/>
    </contour>
    <contour>
      <point x="301" y="0" type="line"/>
      <point x="106" y="0" type="line"/>
      <point x="150" y="194" type="line"/>
      <point x="346" y="194" type="line"/>
    </contour>
  </outline>
</glyph>
<glyph name="quotedbl" format="2">
  <advance width="914"/>
  <unicode hex="0022"/>
  <outline>
    <contour>
      <point x="485" y="984" type="line"/>
      <point x="351" y="984" type="line"/>
      <point x="450" y="1413" type="line"/>
      <point x="584" y="1413" type="line"/>
    </contour>
    <contour>
      <point x="787" y="984" type="line"/>
      <point x="651" y="984" type="line"/>
      <point x="750" y="1413" type="line"/>
      <point x="886" y="1413" type="line"/>
    </contour>
  </outline>
</glyph>
<glyph name="numbersign" format="2">
  <advance width="1376"/>
  <unicode hex="0023"/>
  <outline>
    <contour>
      <point x="704" y="0" type="line"/>
      <point x="582" y="0" type="line"/>
      <point x="775" y="436" type="line"/>
      <point x="456" y="436" type="line"/>
      <point x="266" y="0" type="line"/>
      <point x="144" y="0" type="line"/>
      <point x="335" y="438" type="line"/>
      <point x="97" y="438" type="line"/>
      <point x="123" y="551" type="line"/>
      <point x="385" y="551" type="line"/>
      <point x="529" y="884" type="line"/>
      <point x="281" y="884" type="line"/>
      <point x="307" y="994" type="line"/>
      <point x="577" y="994" type="line"/>
      <point x="774" y="1434" type="line"/>
      <point x="896" y="1434" type="line"/>
      <point x="701" y="997" type="line"/>
      <point x="1019" y="997" type="line"/>
      <point x="1212" y="1434" type="line"/>
      <point x="1334" y="1434" type="line"/>
      <point x="1141" y="995" type="line"/>
      <point x="1379" y="995" type="line"/>
      <point x="1353" y="884" type="line"/>
      <point x="1093" y="884" type="line"/>
      <point x="947" y="551" type="line"/>
      <point x="1195" y="551" type="line"/>
      <point x="1169" y="442" type="line"/>
      <point x="899" y="442" type="line"/>
    </contour>
    <contour>
      <point x="825" y="551" type="line"/>
      <point x="969" y="884" type="line"/>
      <point x="652" y="884" type="line"/>
      <point x="507" y="551" type="line"/>
    </contour>
  </outline>
</glyph>
<glyph name="quotesingle" format="2">
  <advance width="612"/>
  <unicode hex="0027"/>
  <outline>
    <contour>
      <point x="492" y="1013" type="line"/>
      <point x="357" y="1013" type="line"/>
      <point x="456" y="1442" type="line"/>
      <point x="590" y="1442" type="line"/>
    </contour>
  </outline>
</glyph>
<glyph name="period" format="2">
  <advance width="668"/>
  <unicode hex="002E"/>
  <outline>
    <contour>
      <point x="319" y="0" type="line"/>
      <point x="120" y="0" type="line"/>
      <point x="165" y="194" type="line"/>
      <point x="363" y="194" type="line"/>
    </contour>
  </outline>
</glyph>
<glyph name="zero" format="2">
  <advance width="1200"/>
  <unicode hex="0030"/>
  <outline>
    <contour>
      <point x="500" y="-20" type="qcurve" smooth="yes"/>
      <point x="358" y="-20"/>
      <point x="181" y="115"/>
      <point x="104" y="333"/>
      <point x="104" y="464" type="qcurve" smooth="yes"/>
      <point x="104" y="606"/>
      <point x="182" y="908"/>
      <point x="261" y="1057" type="qcurve" smooth="yes"/>
      <point x="348" y="1220"/>
      <point x="622" y="1436"/>
      <point x="798" y="1436" type="qcurve" smooth="yes"/>
      <point x="932" y="1436"/>
      <point x="1107" y="1306"/>
      <point x="1192" y="1083"/>
      <point x="1192" y="943" type="qcurve" smooth="yes"/>
      <point x="1192" y="799"/>
      <point x="1104" y="481"/>
      <point x="1024" y="342" type="qcurve" smooth="yes"/>
      <point x="930" y="179"/>
      <point x="660" y="-20"/>
    </contour>
    <contour>
      <point x="504" y="124" type="qcurve" smooth="yes"/>
      <point x="630" y="124"/>
      <point x="834" y="310"/>
      <point x="902" y="448" type="qcurve" smooth="yes"/>
      <point x="966" y="578"/>
      <point x="1030" y="835"/>
      <point x="1030" y="953" type="qcurve" smooth="yes"/>
      <point x="1030" y="1101"/>
      <point x="916" y="1287"/>
      <point x="788" y="1287" type="qcurve" smooth="yes"/>
      <point x="658" y="1287"/>
      <point x="450" y="1106"/>
      <point x="382" y="970" type="qcurve"/>
      <point x="254" y="704"/>
      <point x="254" y="462" type="qcurve" smooth="yes"/>
      <point x="254" y="313"/>
      <point x="372" y="124"/>
    </contour>
  </outline>
</glyph>
<glyph name="one" format="2">
  <advance width="1200"/>
  <unicode hex="0031"/>
  <outline>
    <contour>
      <point x="644" y="0" type="line"/>
      <point x="486" y="0" type="line"/>
      <point x="734" y="1081" type="line"/>
      <point x="402" y="1081" type="line"/>
      <point x="432" y="1211" type="line"/>
      <point x="596" y="1211" type="line" smooth="yes"/>
      <point x="684" y="1211"/>
      <point x="802" y="1317"/>
      <point x="820" y="1393" type="qcurve"/>
      <point x="824" y="1413" type="line"/>
      <point x="968" y="1413" type="line"/>
    </contour>
  </outline>
</glyph>
<glyph name="three" format="2">
  <advance width="1200"/>
  <unicode hex="0033"/>
  <outline>
    <contour>
      <point x="480" y="-20" type="qcurve" smooth="yes"/>
      <point x="366" y="-20"/>
      <point x="183" y="51"/>
      <point x="76" y="193"/>
      <point x="76" y="300" type="qcurve" smooth="yes"/>
      <point x="76" y="351"/>
      <point x="90" y="406" type="qcurve"/>
      <point x="234" y="406" type="line"/>
      <point x="226" y="373"/>
      <point x="226" y="336" type="qcurve" smooth="yes"/>
      <point x="226" y="265"/>
      <point x="296" y="168"/>
      <point x="414" y="118"/>
      <point x="488" y="118" type="qcurve" smooth="yes"/>
      <point x="575" y="118"/>
      <point x="747" y="186"/>
      <point x="875" y="320"/>
      <point x="900" y="419" type="qcurve" smooth="yes"/>
      <point x="908" y="451"/>
      <point x="908" y="486" type="qcurve" smooth="yes"/>
      <point x="908" y="553"/>
      <point x="841" y="639"/>
      <point x="726" y="680"/>
      <point x="654" y="680" type="qcurve" smooth="yes"/>
      <point x="552" y="680" type="line"/>
      <point x="584" y="820" type="line"/>
      <point x="674" y="820" type="line" smooth="yes"/>
      <point x="777" y="820"/>
      <point x="940" y="946"/>
      <point x="970" y="1065" type="qcurve"/>
      <point x="978" y="1093"/>
      <point x="978" y="1122" type="qcurve" smooth="yes"/>
      <point x="978" y="1207"/>
      <point x="863" y="1293"/>
      <point x="780" y="1293" type="qcurve" smooth="yes"/>
      <point x="659" y="1293"/>
      <point x="475" y="1150"/>
      <point x="446" y="1040" type="qcurve"/>
      <point x="312" y="1070" type="line"/>
      <point x="357" y="1248"/>
      <point x="623" y="1434"/>
      <point x="788" y="1434" type="qcurve" smooth="yes"/>
      <point x="886" y="1434"/>
      <point x="1039" y="1365"/>
      <point x="1126" y="1236"/>
      <point x="1126" y="1146" type="qcurve" smooth="yes"/>
      <point x="1126" y="1098"/>
      <point x="1114" y="1053" type="qcurve"/>
      <point x="1095" y="963"/>
      <point x="980" y="808"/>
      <point x="880" y="756" type="qcurve"/>
      <point x="969" y="723"/>
      <point x="1048" y="583"/>
      <point x="1048" y="492" type="qcurve" smooth="yes"/>
      <point x="1048" y="445"/>
      <point x="1038" y="388" type="qcurve"/>
      <point x="1006" y="252"/>
      <point x="840" y="71"/>
      <point x="608" y="-20"/>
    </contour>
  </outline>
</glyph>
<glyph name="four" format="2">
  <advance width="1200"/>
  <unicode hex="0034"/>
  <outline>
    <contour>
      <point x="776" y="0" type="line"/>
      <point x="620" y="0" type="line"/>
      <point x="708" y="381" type="line"/>
      <point x="56" y="381" type="line"/>
      <point x="76" y="471" type="line"/>
      <point x="958" y="1413" type="line"/>
      <point x="1102" y="1413" type="line"/>
      <point x="894" y="516" type="line"/>
      <point x="1118" y="516" type="line"/>
      <point x="1088" y="381" type="line"/>
      <point x="862" y="381" type="line"/>
    </contour>
    <contour>
      <point x="738" y="516" type="line"/>
      <point x="892" y="1173" type="line"/>
      <point x="276" y="516" type="line"/>
    </contour>
  </outline>
</glyph>
<glyph name="five" format="2">
  <advance width="1200"/>
  <unicode hex="0035"/>
  <outline>
    <contour>
      <point x="484" y="-20" type="qcurve" smooth="yes"/>
      <point x="363" y="-20"/>
      <point x="191" y="86"/>
      <point x="104" y="267"/>
      <point x="104" y="379" type="qcurve"/>
      <point x="250" y="412" type="line"/>
      <point x="250" y="392" type="line" smooth="yes"/>
      <point x="250" y="114"/>
      <point x="488" y="114" type="qcurve" smooth="yes"/>
      <point x="590" y="114"/>
      <point x="762" y="219"/>
      <point x="874" y="384"/>
      <point x="896" y="476" type="qcurve" smooth="yes"/>
      <point x="908" y="523"/>
      <point x="908" y="566" type="qcurve" smooth="yes"/>
      <point x="908" y="667"/>
      <point x="794" y="793"/>
      <point x="680" y="793" type="qcurve" smooth="yes"/>
      <point x="589" y="793"/>
      <point x="412" y="705"/>
      <point x="350" y="630" type="qcurve"/>
      <point x="226" y="701" type="line"/>
      <point x="512" y="1413" type="line"/>
      <point x="1212" y="1413" type="line"/>
      <point x="1180" y="1275" type="line"/>
      <point x="602" y="1275" type="line"/>
      <point x="418" y="823" type="line"/>
      <point x="540" y="923"/>
      <point x="708" y="923" type="qcurve" smooth="yes"/>
      <point x="821" y="923"/>
      <point x="982" y="831"/>
      <point x="1066" y="666"/>
      <point x="1066" y="564" type="qcurve" smooth="yes"/>
      <point x="1066" y="509"/>
      <point x="1052" y="447" type="qcurve" smooth="yes"/>
      <point x="1022" y="321"/>
      <point x="854" y="107"/>
      <point x="615" y="-20"/>
    </contour>
  </outline>
</glyph>
<glyph name="eight" format="2">
  <advance width="1200"/>
  <unicode hex="0038"/>
  <outline>
    <contour>
      <point x="492" y="-20" type="qcurve" smooth="yes"/>
      <point x="381" y="-20"/>
      <point x="199" y="49"/>
      <point x="90" y="190"/>
      <point x="90" y="299" type="qcurve" smooth="yes"/>
      <point x="90" y="384"/>
      <point x="153" y="550"/>
      <point x="217" y="621" type="qcurve" smooth="yes"/>
      <point x="302" y="714"/>
      <point x="436" y="768" type="qcurve"/>
      <point x="383" y="804"/>
      <point x="322" y="921"/>
      <point x="322" y="996" type="qcurve" smooth="yes"/>
      <point x="322" y="1132"/>
      <point x="477" y="1341"/>
      <point x="599" y="1393" type="qcurve" smooth="yes"/>
      <point x="698" y="1434"/>
      <point x="806" y="1434" type="qcurve" smooth="yes"/>
      <point x="900" y="1434"/>
      <point x="1052" y="1369"/>
      <point x="1142" y="1242"/>
      <point x="1142" y="1149" type="qcurve" smooth="yes"/>
      <point x="1142" y="1101"/>
      <point x="1130" y="1056" type="qcurve"/>
      <point x="1111" y="965"/>
      <point x="990" y="810"/>
      <point x="888" y="757" type="qcurve"/>
      <point x="1058" y="673"/>
      <point x="1058" y="480" type="qcurve" smooth="yes"/>
      <point x="1058" y="397"/>
      <point x="995" y="225"/>
      <point x="934" y="157" type="qcurve"/>
      <point x="846" y="64"/>
      <point x="614" y="-20"/>
    </contour>
    <contour>
      <point x="666" y="811" type="qcurve" smooth="yes"/>
      <point x="772" y="811"/>
      <point x="955" y="945"/>
      <point x="986" y="1065" type="qcurve"/>
      <point x="994" y="1100"/>
      <point x="994" y="1127" type="qcurve" smooth="yes"/>
      <point x="994" y="1212"/>
      <point x="882" y="1297"/>
      <point x="800" y="1297" type="qcurve" smooth="yes"/>
      <point x="703" y="1297"/>
      <point x="511" y="1171"/>
      <point x="478" y="1051" type="qcurve"/>
      <point x="470" y="1014"/>
      <point x="470" y="985" type="qcurve" smooth="yes"/>
      <point x="470" y="905"/>
      <point x="573" y="811"/>
    </contour>
    <contour>
      <point x="498" y="112" type="qcurve" smooth="yes"/>
      <point x="629" y="112"/>
      <point x="858" y="265"/>
      <point x="900" y="417" type="qcurve"/>
      <point x="908" y="449"/>
      <point x="908" y="486" type="qcurve" smooth="yes"/>
      <point x="908" y="554"/>
      <point x="842" y="646"/>
      <point x="728" y="692"/>
      <point x="656" y="692" type="qcurve" smooth="yes"/>
      <point x="521" y="692"/>
      <point x="290" y="536"/>
      <point x="252" y="389" type="qcurve"/>
      <point x="244" y="352"/>
      <point x="244" y="320" type="qcurve" smooth="yes"/>
      <point x="244" y="250"/>
      <point x="314" y="158"/>
      <point x="429" y="112"/>
    </contour>
  </outline>
</glyph>
<glyph name="less" format="2">
  <advance width="1222"/>
  <unicode hex="003C"/>
  <outline>
    <contour>
      <point x="1007" y="170" type="line"/>
      <point x="109" y="674" type="line"/>
      <point x="1007" y="1178" type="line"/>
      <point x="1075" y="1060" type="line"/>
      <point x="358" y="674" type="line"/>
      <point x="1075" y="287" type="line"/>
    </contour>
  </outline>
</glyph>
<glyph name="equal" format="2">
  <advance width="1269"/>
  <unicode hex="003D"/>
  <outline>
    <contour>
      <point x="1014" y="775" type="line"/>
      <point x="255" y="775" type="line"/>
      <point x="255" y="911" type="line"/>
      <point x="1014" y="911" type="line"/>
    </contour>
    <contour>
      <point x="1014" y="433" type="line"/>
      <point x="255" y="433" type="line"/>
      <point x="255" y="569" type="line"/>
      <point x="1014" y="569" type="line"/>
    </contour>
  </outline>
</glyph>
<glyph name="greater" format="2">
  <advance width="1221"/>
  <unicode hex="003E"/>
  <outline>
    <contour>
      <point x="215" y="170" type="line"/>
      <point x="147" y="287" type="line"/>
      <point x="864" y="674" type="line"/>
      <point x="147" y="1060" type="line"/>
      <point x="215" y="1178" type="line"/>
      <point x="1113" y="674" type="line"/>
    </contour>
  </outline>
</glyph>
<glyph name="question" format="2">
  <advance width="1030"/>
  <unicode hex="003F"/>
  <outline>
    <contour>
      <point x="548" y="376" type="line"/>
      <point x="411" y="376" type="line"/>
      <point x="466" y="612" type="line" smooth="yes"/>
      <point x="495" y="737"/>
      <point x="586" y="795" type="qcurve" smooth="yes"/>
      <point x="631" y="823"/>
      <point x="693" y="854" type="qcurve"/>
      <point x="750" y="884"/>
      <point x="790" y="908" type="qcurve"/>
      <point x="880" y="965"/>
      <point x="909" y="1087" type="qcurve" smooth="yes"/>
      <point x="916" y="1116"/>
      <point x="916" y="1145" type="qcurve" smooth="yes"/>
      <point x="916" y="1227"/>
      <point x="797" y="1301"/>
      <point x="705" y="1301" type="qcurve" smooth="yes"/>
      <point x="593" y="1301"/>
      <point x="401" y="1172"/>
      <point x="371" y="1055" type="qcurve"/>
      <point x="229" y="1069" type="line"/>
      <point x="276" y="1246"/>
      <point x="547" y="1434"/>
      <point x="704" y="1434" type="qcurve" smooth="yes"/>
      <point x="801" y="1434"/>
      <point x="960" y="1371"/>
      <point x="1055" y="1245"/>
      <point x="1055" y="1149" type="qcurve" smooth="yes"/>
      <point x="1055" y="1081"/>
      <point x="1013" y="954"/>
      <point x="982" y="912" type="qcurve" smooth="yes"/>
      <point x="942" y="858"/>
      <point x="843" y="789"/>
      <point x="770" y="755" type="qcurve"/>
      <point x="693" y="717"/>
      <point x="610" y="650"/>
      <point x="598" y="596" type="qcurve" smooth="yes"/>
    </contour>
    <contour>
      <point x="494" y="0" type="line"/>
      <point x="298" y="0" type="line"/>
      <point x="343" y="194" type="line"/>
      <point x="539" y="194" type="line"/>
    </contour>
  </outline>
</glyph>
<glyph name="at" format="2">
  <advance width="2058"/>
  <unicode hex="0040"/>
  <outline>
    <contour>
      <point x="836" y="-348" type="qcurve" smooth="yes"/>
      <point x="638" y="-348"/>
      <point x="311" y="-200"/>
      <point x="214" y="-46" type="qcurve"/>
      <point x="123" y="101"/>
      <point x="123" y="302" type="qcurve" smooth="yes"/>
      <point x="123" y="471"/>
      <point x="250" y="833"/>
      <point x="368" y="989" type="qcurve" smooth="yes"/>
      <point x="469" y="1121"/>
      <point x="737" y="1319"/>
      <point x="1061" y="1432"/>
      <point x="1244" y="1432" type="qcurve" smooth="yes"/>
      <point x="1470" y="1432"/>
      <point x="1786" y="1260"/>
      <point x="1952" y="959"/>
      <point x="1952" y="767" type="qcurve" smooth="yes"/>
      <point x="1952" y="655"/>
      <point x="1899" y="424"/>
      <point x="1797" y="212"/>
      <point x="1650" y="45"/>
      <point x="1463" y="-53"/>
      <point x="1352" y="-53" type="qcurve" smooth="yes"/>
      <point x="1237" y="-53"/>
      <point x="1121" y="46"/>
      <point x="1121" y="125" type="qcurve" smooth="yes"/>
      <point x="1121" y="172"/>
      <point x="1140" y="223" type="qcurve"/>
      <point x="1062" y="144"/>
      <point x="881" y="66"/>
      <point x="796" y="66" type="qcurve" smooth="yes"/>
      <point x="709" y="66"/>
      <point x="599" y="135"/>
      <point x="547" y="256"/>
      <point x="547" y="332" type="qcurve" smooth="yes"/>
      <point x="547" y="484"/>
      <point x="734" y="833"/>
      <point x="890" y="949" type="qcurve"/>
      <point x="1013" y="1038"/>
      <point x="1148" y="1038" type="qcurve" smooth="yes"/>
      <point x="1258" y="1038"/>
      <point x="1380" y="925"/>
      <point x="1380" y="842" type="qcurve"/>
      <point x="1443" y="989" type="line"/>
      <point x="1592" y="982" type="line"/>
      <point x="1557" y="903"/>
      <point x="1488" y="755" type="qcurve"/>
      <point x="1403" y="577"/>
      <point x="1343" y="438" type="qcurve" smooth="yes"/>
      <point x="1291" y="318"/>
      <point x="1271" y="229" type="qcurve"/>
      <point x="1262" y="193"/>
      <point x="1262" y="168" type="qcurve" smooth="yes"/>
      <point x="1262" y="100"/>
      <point x="1349" y="100" type="qcurve" smooth="yes"/>
      <point x="1357" y="100" type="line" smooth="yes"/>
      <point x="1473" y="100"/>
      <point x="1651" y="243"/>
      <point x="1707" y="351" type="qcurve" smooth="yes"/>
      <point x="1759" y="453"/>
      <point x="1812" y="665"/>
      <point x="1812" y="758" type="qcurve" smooth="yes"/>
      <point x="1812" y="908"/>
      <point x="1682" y="1153"/>
      <point x="1546" y="1226" type="qcurve"/>
      <point x="1415" y="1293"/>
      <point x="1234" y="1293" type="qcurve" smooth="yes"/>
      <point x="1056" y="1293"/>
      <point x="745" y="1170"/>
      <point x="497" y="953"/>
      <point x="326" y="668"/>
      <point x="288" y="505" type="qcurve" smooth="yes"/>
      <point x="265" y="409"/>
      <point x="265" y="318" type="qcurve" smooth="yes"/>
      <point x="265" y="149"/>
      <point x="418" y="-81"/>
      <point x="681" y="-199"/>
      <point x="848" y="-199" type="qcurve" smooth="yes"/>
      <point x="982" y="-199"/>
      <point x="1111" y="-158" type="qcurve"/>
      <point x="1145" y="-299" type="line"/>
      <point x="992" y="-348"/>
    </contour>
    <contour>
      <point x="826" y="215" type="qcurve" smooth="yes"/>
      <point x="938" y="215"/>
      <point x="1037" y="288" type="qcurve"/>
      <point x="1140" y="366"/>
      <point x="1271" y="580"/>
      <point x="1294" y="683" type="qcurve" smooth="yes"/>
      <point x="1304" y="730"/>
      <point x="1304" y="759" type="qcurve" smooth="yes"/>
      <point x="1304" y="889"/>
      <point x="1161" y="889" type="qcurve" smooth="yes"/>
      <point x="1049" y="889"/>
      <point x="950" y="817" type="qcurve"/>
      <point x="846" y="739"/>
      <point x="714" y="527"/>
      <point x="691" y="424" type="qcurve" smooth="yes"/>
      <point x="681" y="377"/>
      <point x="681" y="347" type="qcurve" smooth="yes"/>
      <point x="681" y="215"/>
    </contour>
  </outline>
</glyph>
<glyph name="B" format="2">
  <advance width="1249"/>
  <unicode hex="0042"/>
  <outline>
    <contour>
      <point x="569" y="0" type="qcurve" smooth="yes"/>
      <point x="100" y="0" type="line"/>
      <point x="426" y="1413" type="line"/>
      <point x="811" y="1413" type="line" smooth="yes"/>
      <point x="913" y="1413"/>
      <point x="1089" y="1356"/>
      <point x="1197" y="1235"/>
      <point x="1197" y="1137" type="qcurve" smooth="yes"/>
      <point x="1197" y="1075"/>
      <point x="1172" y="1001" type="qcurve" smooth="yes"/>
      <point x="1115" y="834"/>
      <point x="932" y="741" type="qcurve"/>
      <point x="1110" y="655"/>
      <point x="1110" y="469" type="qcurve" smooth="yes"/>
      <point x="1110" y="386"/>
      <point x="1047" y="214"/>
      <point x="986" y="151" type="qcurve"/>
      <point x="832" y="0"/>
    </contour>
    <contour>
      <point x="668" y="791" type="line" smooth="yes"/>
      <point x="747" y="791"/>
      <point x="893" y="846"/>
      <point x="1000" y="964"/>
      <point x="1022" y="1057" type="qcurve" smooth="yes"/>
      <point x="1030" y="1089"/>
      <point x="1030" y="1121" type="qcurve" smooth="yes"/>
      <point x="1030" y="1205"/>
      <point x="904" y="1271"/>
      <point x="792" y="1271" type="qcurve" smooth="yes"/>
      <point x="548" y="1271" type="line"/>
      <point x="437" y="791" type="line"/>
    </contour>
    <contour>
      <point x="596" y="147" type="line" smooth="yes"/>
      <point x="725" y="147"/>
      <point x="918" y="264"/>
      <point x="949" y="400" type="qcurve" smooth="yes"/>
      <point x="959" y="441"/>
      <point x="959" y="477" type="qcurve" smooth="yes"/>
      <point x="959" y="649"/>
      <point x="726" y="649" type="qcurve" smooth="yes"/>
      <point x="406" y="649" type="line"/>
      <point x="290" y="147" type="line"/>
    </contour>
  </outline>
</glyph>
<glyph name="E" format="2">
  <advance width="1245"/>
  <unicode hex="0045"/>
  <outline>
    <contour>
      <point x="1016" y="0" type="line"/>
      <point x="100" y="0" type="line"/>
      <point x="426" y="1413" type="line"/>
      <point x="1341" y="1413" type="line"/>
      <point x="1309" y="1276" type="line"/>
      <point x="553" y="1276" type="line"/>
      <point x="438" y="774" type="line"/>
      <point x="1095" y="774" type="line"/>
      <point x="1063" y="641" type="line"/>
      <point x="406" y="641" type="line"/>
      <point x="292" y="145" type="line"/>
      <point x="1048" y="145" type="line"/>
    </contour>
  </outline>
</glyph>
<glyph name="G" format="2">
  <advance width="1509"/>
  <unicode hex="0047"/>
  <outline>
    <contour>
      <point x="651" y="-20" type="qcurve" smooth="yes"/>
      <point x="478" y="-20"/>
      <point x="255" y="110"/>
      <point x="147" y="338"/>
      <point x="147" y="486" type="qcurve" smooth="yes"/>
      <point x="147" y="624"/>
      <point x="238" y="941"/>
      <point x="328" y="1082" type="qcurve"/>
      <point x="434" y="1244"/>
      <point x="758" y="1436"/>
      <point x="962" y="1436" type="qcurve" smooth="yes"/>
      <point x="1103" y="1436"/>
      <point x="1306" y="1342"/>
      <point x="1433" y="1170"/>
      <point x="1458" y="1053" type="qcurve"/>
      <point x="1305" y="1004" type="line"/>
      <point x="1272" y="1147"/>
      <point x="1089" y="1287"/>
      <point x="948" y="1287" type="qcurve" smooth="yes"/>
      <point x="823" y="1287"/>
      <point x="619" y="1195"/>
      <point x="463" y="1034"/>
      <point x="356" y="823"/>
      <point x="328" y="702" type="qcurve" smooth="yes"/>
      <point x="303" y="593"/>
      <point x="303" y="500" type="qcurve" smooth="yes"/>
      <point x="303" y="329"/>
      <point x="478" y="128"/>
      <point x="662" y="128" type="qcurve" smooth="yes"/>
      <point x="781" y="128"/>
      <point x="1013" y="235"/>
      <point x="1188" y="444"/>
      <point x="1228" y="597" type="qcurve"/>
      <point x="903" y="590" type="line"/>
      <point x="932" y="715" type="line"/>
      <point x="1405" y="715" type="line"/>
      <point x="1240" y="0" type="line"/>
      <point x="1108" y="0" type="line"/>
      <point x="1167" y="251" type="line"/>
      <point x="1122" y="179"/>
      <point x="971" y="56"/>
      <point x="770" y="-20"/>
    </contour>
  </outline>
</glyph>
<glyph name="H" format="2">
  <advance width="1461"/>
  <unicode hex="0048"/>
  <outline>
    <contour>
      <point x="1132" y="0" type="line"/>
      <point x="973" y="0" type="line"/>
      <point x="1119" y="641" type="line"/>
      <point x="406" y="641" type="line"/>
      <point x="259" y="0" type="line"/>
      <point x="100" y="0" type="line"/>
      <point x="426" y="1413" type="line"/>
      <point x="585" y="1413" type="line"/>
      <point x="438" y="774" type="line"/>
      <point x="1151" y="774" type="line"/>
      <point x="1298" y="1413" type="line"/>
      <point x="1457" y="1413" type="line"/>
    </contour>
  </outline>
</glyph>
<glyph name="J" format="2">
  <advance width="1127"/>
  <unicode hex="004A"/>
  <outline>
    <contour>
      <point x="395" y="-20" type="qcurve" smooth="yes"/>
      <point x="280" y="-20"/>
      <point x="126" y="69"/>
      <point x="48" y="223"/>
      <point x="48" y="320" type="qcurve" smooth="yes"/>
      <point x="48" y="354"/>
      <point x="55" y="403" type="qcurve"/>
      <point x="210" y="410" type="line"/>
      <point x="204" y="373"/>
      <point x="204" y="335" type="qcurve" smooth="yes"/>
      <point x="204" y="239"/>
      <point x="300" y="120"/>
      <point x="404" y="120" type="qcurve" smooth="yes"/>
      <point x="566" y="120"/>
      <point x="734" y="318"/>
      <point x="775" y="492" type="qcurve"/>
      <point x="956" y="1276" type="line"/>
      <point x="424" y="1276" type="line"/>
      <point x="455" y="1413" type="line"/>
      <point x="1147" y="1413" type="line"/>
      <point x="934" y="495" type="line"/>
      <point x="878" y="248"/>
      <point x="616" y="-20"/>
    </contour>
  </outline>
</glyph>
<glyph name="L" format="2">
  <advance width="1043"/>
  <unicode hex="004C"/>
  <outline>
    <contour>
      <point x="863" y="0" type="line"/>
      <point x="100" y="0" type="line"/>
      <point x="426" y="1413" type="line"/>
      <point x="585" y="1413" type="line"/>
      <point x="292" y="145" type="line"/>
      <point x="896" y="145" type="line"/>
    </contour>
  </outline>
</glyph>
<glyph name="N" format="2">
  <advance width="1425"/>
  <unicode hex="004E"/>
  <outline>
    <contour>
      <point x="1095" y="0" type="line"/>
      <point x="871" y="0" type="line"/>
      <point x="544" y="1230" type="line"/>
      <point x="259" y="0" type="line"/>
      <point x="100" y="0" type="line"/>
      <point x="426" y="1413" type="line"/>
      <point x="646" y="1413" type="line"/>
      <point x="978" y="185" type="line"/>
      <point x="1264" y="1413" type="line"/>
      <point x="1420" y="1413" type="line"/>
    </contour>
  </outline>
</glyph>
<glyph name="O" format="2">
  <advance width="1525"/>
  <unicode hex="004F"/>
  <outline>
    <contour>
      <point x="652" y="-20" type="qcurve" smooth="yes"/>
      <point x="481" y="-20"/>
      <point x="259" y="111"/>
      <point x="151" y="342"/>
      <point x="151" y="491" type="qcurve" smooth="yes"/>
      <point x="151" y="634"/>
      <point x="243" y="946"/>
      <point x="331" y="1081" type="qcurve" smooth="yes"/>
      <point x="437" y="1243"/>
      <point x="761" y="1434"/>
      <point x="965" y="1434" type="qcurve" smooth="yes"/>
      <point x="1137" y="1434"/>
      <point x="1361" y="1303"/>
      <point x="1469" y="1072"/>
      <point x="1469" y="922" type="qcurve" smooth="yes"/>
      <point x="1469" y="780"/>
      <point x="1377" y="468"/>
      <point x="1289" y="333" type="qcurve" smooth="yes"/>
      <point x="1183" y="171"/>
      <point x="857" y="-20"/>
    </contour>
    <contour>
      <point x="662" y="126" type="qcurve" smooth="yes"/>
      <point x="830" y="126"/>
      <point x="960" y="208" type="qcurve" smooth="yes"/>
      <point x="1095" y="294"/>
      <point x="1259" y="563"/>
      <point x="1295" y="721" type="qcurve" smooth="yes"/>
      <point x="1318" y="821"/>
      <point x="1318" y="911" type="qcurve" smooth="yes"/>
      <point x="1318" y="1082"/>
      <point x="1141" y="1287"/>
      <point x="953" y="1287" type="qcurve" smooth="yes"/>
      <point x="789" y="1287"/>
      <point x="661" y="1206" type="qcurve"/>
      <point x="526" y="1118"/>
      <point x="363" y="848"/>
      <point x="328" y="692" type="qcurve" smooth="yes"/>
      <point x="304" y="586"/>
      <point x="304" y="500" type="qcurve" smooth="yes"/>
      <point x="304" y="330"/>
      <point x="478" y="126"/>
    </contour>
  </outline>
</glyph>
<glyph name="P" format="2">
  <advance width="1156"/>
  <unicode hex="0050"/>
  <outline>
    <contour>
      <point x="259" y="0" type="line"/>
      <point x="100" y="0" type="line"/>
      <point x="426" y="1413" type="line"/>
      <point x="816" y="1413" type="line" smooth="yes"/>
      <point x="996" y="1413"/>
      <point x="1193" y="1250"/>
      <point x="1193" y="1113" type="qcurve" smooth="yes"/>
      <point x="1193" y="1062"/>
      <point x="1180" y="1009" type="qcurve" smooth="yes"/>
      <point x="1134" y="821"/>
      <point x="849" y="638"/>
      <point x="650" y="638" type="qcurve" smooth="yes"/>
      <point x="406" y="638" type="line"/>
    </contour>
    <contour>
      <point x="671" y="779" type="line" smooth="yes"/>
      <point x="808" y="779"/>
      <point x="999" y="905"/>
      <point x="1031" y="1038" type="qcurve" smooth="yes"/>
      <point x="1039" y="1073"/>
      <point x="1039" y="1101" type="qcurve" smooth="yes"/>
      <point x="1039" y="1181"/>
      <point x="921" y="1272"/>
      <point x="796" y="1272" type="qcurve" smooth="yes"/>
      <point x="552" y="1272" type="line"/>
      <point x="437" y="779" type="line"/>
    </contour>
  </outline>
</glyph>
<glyph name="S" format="2">
  <advance width="1117"/>
  <unicode hex="0053"/>
  <outline>
    <contour>
      <point x="488" y="-16" type="qcurve" smooth="yes"/>
      <point x="374" y="-16"/>
      <point x="176" y="69"/>
      <point x="114" y="160" type="qcurve" smooth="yes"/>
      <point x="56" y="247"/>
      <point x="56" y="369" type="qcurve"/>
      <point x="211" y="399" type="line"/>
      <point x="211" y="275"/>
      <point x="351" y="127"/>
      <point x="497" y="127" type="qcurve" smooth="yes"/>
      <point x="605" y="127"/>
      <point x="757" y="205"/>
      <point x="838" y="334"/>
      <point x="838" y="410" type="qcurve" smooth="yes"/>
      <point x="838" y="481"/>
      <point x="773" y="577"/>
      <point x="672" y="645"/>
      <point x="588" y="686" type="qcurve" smooth="yes"/>
      <point x="495" y="731"/>
      <point x="381" y="811"/>
      <point x="345" y="869" type="qcurve" smooth="yes"/>
      <point x="306" y="930"/>
      <point x="306" y="1020" type="qcurve" smooth="yes"/>
      <point x="306" y="1141"/>
      <point x="434" y="1327"/>
      <point x="642" y="1434"/>
      <point x="762" y="1434" type="qcurve" smooth="yes"/>
      <point x="887" y="1434"/>
      <point x="1077" y="1318"/>
      <point x="1117" y="1207" type="qcurve"/>
      <point x="990" y="1142" type="line"/>
      <point x="965" y="1220"/>
      <point x="838" y="1299"/>
      <point x="759" y="1299" type="qcurve" smooth="yes"/>
      <point x="683" y="1299"/>
      <point x="547" y="1232"/>
      <point x="462" y="1115"/>
      <point x="462" y="1040" type="qcurve" smooth="yes"/>
      <point x="462" y="977"/>
      <point x="525" y="888"/>
      <point x="618" y="829"/>
      <point x="699" y="788" type="qcurve"/>
      <point x="798" y="740"/>
      <point x="916" y="656"/>
      <point x="954" y="596" type="qcurve" smooth="yes"/>
      <point x="995" y="530"/>
      <point x="995" y="434" type="qcurve" smooth="yes"/>
      <point x="995" y="302"/>
      <point x="855" y="99"/>
      <point x="624" y="-16"/>
    </contour>
  </outline>
</glyph>
<glyph name="T" format="2">
  <advance width="1247"/>
  <unicode hex="0054"/>
  <outline>
    <contour>
      <point x="589" y="0" type="line"/>
      <point x="428" y="0" type="line"/>
      <point x="724" y="1282" type="line"/>
      <point x="247" y="1282" type="line"/>
      <point x="277" y="1413" type="line"/>
      <point x="1391" y="1413" type="line"/>
      <point x="1361" y="1282" type="line"/>
      <point x="884" y="1282" type="line"/>
    </contour>
  </outline>
</glyph>
<glyph name="V" format="2">
  <advance width="1334"/>
  <unicode hex="0056"/>
  <outline>
    <contour>
      <point x="623" y="0" type="line"/>
      <point x="486" y="0" type="line"/>
      <point x="281" y="1413" type="line"/>
      <point x="443" y="1413" type="line"/>
      <point x="598" y="210" type="line"/>
      <point x="1312" y="1413" type="line"/>
      <point x="1479" y="1413" type="line"/>
    </contour>
  </outline>
</glyph>
<glyph name="X" format="2">
  <advance width="1270"/>
  <unicode hex="0058"/>
  <outline>
    <contour>
      <point x="1076" y="0" type="line"/>
      <point x="895" y="0" type="line"/>
      <point x="656" y="576" type="line"/>
      <point x="153" y="0" type="line"/>
      <point x="-40" y="0" type="line"/>
      <point x="592" y="707" type="line"/>
      <point x="292" y="1413" type="line"/>
      <point x="476" y="1413" type="line"/>
      <point x="707" y="827" type="line"/>
      <point x="1214" y="1413" type="line"/>
      <point x="1404" y="1413" type="line"/>
      <point x="775" y="707" type="line"/>
    </contour>
  </outline>
</glyph>
<glyph name="Z" format="2">
  <advance width="1283"/>
  <unicode hex="005A"/>
  <outline>
    <contour>
      <point x="1065" y="0" type="line"/>
      <point x="-23" y="0" type="line"/>
      <point x="3" y="124" type="line"/>
      <point x="1155" y="1276" type="line"/>
      <point x="316" y="1276" type="line"/>
      <point x="348" y="1413" type="line"/>
      <point x="1391" y="1413" type="line"/>
      <point x="1363" y="1283" type="line"/>
      <point x="217" y="144" type="line"/>
      <point x="1099" y="144" type="line"/>
    </contour>
  </outline>
</glyph>
<glyph name="bracketleft" format="2">
  <advance width="641"/>
  <unicode hex="005B"/>
  <outline>
    <contour>
      <point x="432" y="-93" type="line"/>
      <point x="70" y="-93" type="line"/>
      <point x="439" y="1504" type="line"/>
      <point x="800" y="1504" type="line"/>
      <point x="780" y="1413" type="line"/>
      <point x="544" y="1413" type="line"/>
      <point x="219" y="0" type="line"/>
      <point x="454" y="0" type="line"/>
    </contour>
  </outline>
</glyph>
<glyph name="asciicircum" format="2">
  <advance width="984"/>
  <unicode hex="005E"/>
  <outline>
    <contour>
      <point x="933" y="839" type="line"/>
      <point x="779" y="839" type="line"/>
      <point x="651" y="1173" type="line"/>
      <point x="367" y="839" type="line"/>
      <point x="205" y="839" type="line"/>
      <point x="702" y="1428" type="line"/>
    </contour>
  </outline>
</glyph>
<glyph name="underscore" format="2">
  <advance width="1242"/>
  <unicode hex="005F"/>
  <outline>
    <contour>
      <point x="870" y="-114" type="line"/>
      <point x="90" y="-114" type="line"/>
      <point x="117" y="0" type="line"/>
      <point x="896" y="0" type="line"/>
    </contour>
  </outline>
</glyph>
<glyph name="grave" format="2">
  <advance width="539"/>
  <unicode hex="0060"/>
  <outline>
    <contour>
      <point x="611" y="1122" type="line"/>
      <point x="463" y="1122" type="line"/>
      <point x="272" y="1413" type="line"/>
      <point x="461" y="1413" type="line"/>
    </contour>
  </outline>
</glyph>
<glyph name="b" format="2">
  <advance width="1133"/>
  <unicode hex="0062"/>
  <outline>
    <contour>
      <point x="523" y="-20" type="qcurve" smooth="yes"/>
      <point x="413" y="-20"/>
      <point x="274" y="69"/>
      <point x="241" y="143" type="qcurve"/>
      <point x="206" y="0" type="line"/>
      <point x="57" y="0" type="line"/>
      <point x="383" y="1413" type="line"/>
      <point x="532" y="1413" type="line"/>
      <point x="403" y="868" type="line"/>
      <point x="545" y="1022"/>
      <point x="739" y="1022" type="qcurve" smooth="yes"/>
      <point x="843" y="1022"/>
      <point x="983" y="930"/>
      <point x="1052" y="766"/>
      <point x="1052" y="660" type="qcurve" smooth="yes"/>
      <point x="1052" y="556"/>
      <point x="988" y="329"/>
      <point x="926" y="229" type="qcurve" smooth="yes"/>
      <point x="857" y="117"/>
      <point x="652" y="-20"/>
    </contour>
    <contour>
      <point x="492" y="111" type="qcurve" smooth="yes"/>
      <point x="595" y="111"/>
      <point x="756" y="223"/>
      <point x="863" y="405"/>
      <point x="887" y="514" type="qcurve"/>
      <point x="903" y="581"/>
      <point x="903" y="647" type="qcurve" smooth="yes"/>
      <point x="903" y="717"/>
      <point x="861" y="827"/>
      <point x="769" y="890"/>
      <point x="695" y="890" type="qcurve" smooth="yes"/>
      <point x="593" y="890"/>
      <point x="436" y="778"/>
      <point x="331" y="595"/>
      <point x="306" y="485" type="qcurve"/>
      <point x="288" y="412"/>
      <point x="288" y="344" type="qcurve" smooth="yes"/>
      <point x="288" y="277"/>
      <point x="329" y="171"/>
      <point x="419" y="111"/>
    </contour>
  </outline>
</glyph>
<glyph name="e" format="2">
  <advance width="1038"/>
  <unicode hex="0065"/>
  <outline>
    <contour>
      <point x="434" y="-12" type="qcurve" smooth="yes"/>
      <point x="313" y="-12"/>
      <point x="154" y="79"/>
      <point x="75" y="242"/>
      <point x="75" y="350" type="qcurve" smooth="yes"/>
      <point x="75" y="442"/>
      <point x="135" y="658"/>
      <point x="199" y="758" type="qcurve" smooth="yes"/>
      <point x="246" y="832"/>
      <point x="375" y="946"/>
      <point x="536" y="1012"/>
      <point x="630" y="1012" type="qcurve" smooth="yes"/>
      <point x="807" y="1012"/>
      <point x="968" y="828"/>
      <point x="968" y="673" type="qcurve" smooth="yes"/>
      <point x="968" y="585"/>
      <point x="942" y="473" type="qcurve"/>
      <point x="932" y="442" type="line"/>
      <point x="235" y="442" type="line"/>
      <point x="222" y="390"/>
      <point x="222" y="339" type="qcurve" smooth="yes"/>
      <point x="222" y="276"/>
      <point x="268" y="177"/>
      <point x="363" y="120"/>
      <point x="439" y="120" type="qcurve" smooth="yes"/>
      <point x="540" y="120"/>
      <point x="688" y="172"/>
      <point x="752" y="229" type="qcurve"/>
      <point x="844" y="137" type="line"/>
      <point x="751" y="60"/>
      <point x="557" y="-12"/>
    </contour>
    <contour>
      <point x="824" y="564" type="line"/>
      <point x="838" y="628"/>
      <point x="838" y="676" type="qcurve" smooth="yes"/>
      <point x="838" y="771"/>
      <point x="735" y="879"/>
      <point x="622" y="879" type="qcurve" smooth="yes"/>
      <point x="531" y="879"/>
      <point x="386" y="793"/>
      <point x="287" y="651"/>
      <point x="263" y="564" type="qcurve"/>
    </contour>
  </outline>
</glyph>
<glyph name="i" format="2">
  <advance width="492"/>
  <unicode hex="0069"/>
  <outline>
    <contour>
      <point x="499" y="1221" type="line"/>
      <point x="327" y="1221" type="line"/>
      <point x="372" y="1413" type="line"/>
      <point x="544" y="1413" type="line"/>
    </contour>
    <contour>
      <point x="207" y="0" type="line"/>
      <point x="55" y="0" type="line"/>
      <point x="285" y="999" type="line"/>
      <point x="436" y="999" type="line"/>
    </contour>
  </outline>
</glyph>
<glyph name="k" format="2">
  <advance width="1053"/>
  <unicode hex="006B"/>
  <outline>
    <contour>
      <point x="903" y="0" type="line"/>
      <point x="730" y="0" type="line"/>
      <point x="547" y="530" type="line"/>
      <point x="277" y="293" type="line"/>
      <point x="208" y="0" type="line"/>
      <point x="57" y="0" type="line"/>
      <point x="383" y="1413" type="line"/>
      <point x="533" y="1413" type="line"/>
      <point x="311" y="461" type="line"/>
      <point x="881" y="999" type="line"/>
      <point x="1071" y="999" type="line"/>
      <point x="659" y="632" type="line"/>
    </contour>
  </outline>
</glyph>
<glyph name="m" format="2">
  <advance width="1702"/>
  <unicode hex="006D"/>
  <outline>
    <contour>
      <point x="1441" y="0" type="line"/>
      <point x="1290" y="0" type="line"/>
      <point x="1428" y="599" type="line"/>
      <point x="1444" y="672"/>
      <point x="1444" y="723" type="qcurve" smooth="yes"/>
      <point x="1444" y="890"/>
      <point x="1291" y="890" type="qcurve" smooth="yes"/>
      <point x="1207" y="890"/>
      <point x="1067" y="795"/>
      <point x="971" y="647"/>
      <point x="952" y="563" type="qcurve" smooth="yes"/>
      <point x="822" y="0" type="line"/>
      <point x="671" y="0" type="line"/>
      <point x="810" y="603" type="line" smooth="yes"/>
      <point x="826" y="670"/>
      <point x="826" y="729" type="qcurve" smooth="yes"/>
      <point x="826" y="890"/>
      <point x="677" y="890" type="qcurve" smooth="yes"/>
      <point x="593" y="890"/>
      <point x="451" y="796"/>
      <point x="354" y="647"/>
      <point x="335" y="563" type="qcurve" smooth="yes"/>
      <point x="206" y="0" type="line"/>
      <point x="55" y="0" type="line"/>
      <point x="285" y="999" type="line"/>
      <point x="435" y="999" type="line"/>
      <point x="396" y="834" type="line"/>
      <point x="448" y="920"/>
      <point x="612" y="1018"/>
      <point x="700" y="1018" type="qcurve" smooth="yes"/>
      <point x="808" y="1018"/>
      <point x="953" y="918"/>
      <point x="965" y="815" type="qcurve"/>
      <point x="1109" y="1016"/>
      <point x="1316" y="1016" type="qcurve" smooth="yes"/>
      <point x="1458" y="1016"/>
      <point x="1596" y="863"/>
      <point x="1596" y="736" type="qcurve" smooth="yes"/>
      <point x="1596" y="673"/>
      <point x="1579" y="600" type="qcurve" smooth="yes"/>
    </contour>
  </outline>
</glyph>
<glyph name="t" format="2">
  <advance width="675"/>
  <unicode hex="0074"/>
  <outline>
    <contour>
      <point x="338" y="-20" type="qcurve" smooth="yes"/>
      <point x="232" y="-20"/>
      <point x="136" y="81"/>
      <point x="136" y="168" type="qcurve" smooth="yes"/>
      <point x="136" y="219"/>
      <point x="149" y="272" type="qcurve"/>
      <point x="289" y="877" type="line"/>
      <point x="132" y="877" type="line"/>
      <point x="159" y="999" type="line"/>
      <point x="317" y="999" type="line"/>
      <point x="367" y="1224" type="line"/>
      <point x="549" y="1364" type="line"/>
      <point x="466" y="999" type="line"/>
      <point x="721" y="999" type="line"/>
      <point x="694" y="877" type="line"/>
      <point x="439" y="877" type="line"/>
      <point x="295" y="257" type="line" smooth="yes"/>
      <point x="287" y="220"/>
      <point x="287" y="197" type="qcurve" smooth="yes"/>
      <point x="287" y="147"/>
      <point x="337" y="103"/>
      <point x="377" y="103" type="qcurve" smooth="yes"/>
      <point x="425" y="103"/>
      <point x="490" y="131" type="qcurve"/>
      <point x="470" y="-2" type="line"/>
      <point x="451" y="-9"/>
      <point x="378" y="-20"/>
    </contour>
  </outline>
</glyph>
<glyph name="v" format="2">
  <advance width="957"/>
  <unicode hex="0076"/>
  <outline>
    <contour>
      <point x="430" y="0" type="line"/>
      <point x="298" y="0" type="line"/>
      <point x="156" y="999" type="line"/>
      <point x="317" y="999" type="line"/>
      <point x="405" y="194" type="line"/>
      <point x="871" y="999" type="line"/>
      <point x="1033" y="999" type="line"/>
    </contour>
  </outline>
</glyph>
<glyph name="z" format="2">
  <advance width="936"/>
  <unicode hex="007A"/>
  <outline>
    <contour>
      <point x="741" y="0" type="line"/>
      <point x="-45" y="0" type="line"/>
      <point x="-22" y="113" type="line"/>
      <point x="763" y="877" type="line"/>
      <point x="186" y="877" type="line"/>
      <point x="213" y="999" type="line"/>
      <point x="970" y="999" type="line"/>
      <point x="945" y="876" type="line"/>
      <point x="174" y="128" type="line"/>
      <point x="770" y="128" type="line"/>
    </contour>
  </outline>
</glyph>
<glyph name="asciitilde" format="2">
  <advance width="1167"/>
  <unicode hex="007E"/>
  <outline>
    <contour>
      <point x="742" y="379" type="qcurve" smooth="yes"/>
      <point x="684" y="379"/>
      <point x="596" y="431"/>
      <point x="545" y="477" type="qcurve" smooth="yes"/>
      <point x="501" y="516"/>
      <point x="443" y="552"/>
      <point x="408" y="552" type="qcurve" smooth="yes"/>
      <point x="313" y="552"/>
      <point x="313" y="415" type="qcurve" smooth="yes"/>
      <point x="313" y="406" type="line"/>
      <point x="213" y="406" type="line"/>
      <point x="213" y="516"/>
      <point x="312" y="651"/>
      <point x="406" y="651" type="qcurve" smooth="yes"/>
      <point x="457" y="651"/>
      <point x="535" y="623"/>
      <point x="590" y="582"/>
      <point x="623" y="551" type="qcurve" smooth="yes"/>
      <point x="661" y="517"/>
      <point x="714" y="483"/>
      <point x="748" y="483" type="qcurve" smooth="yes"/>
      <point x="804" y="483"/>
      <point x="848" y="566"/>
      <point x="848" y="645" type="qcurve"/>
      <point x="956" y="645" type="line"/>
      <point x="956" y="518"/>
      <point x="846" y="379"/>
    </contour>
  </outline>
</glyph>
<glyph name="cent" format="2">
  <advance width="1144"/>
  <unicode hex="00A2"/>
  <outline>
    <contour>
      <point x="497" y="-205" type="line"/>
      <point x="385" y="-205" type="line"/>
      <point x="437" y="-15" type="line"/>
      <point x="291" y="5"/>
      <point x="153" y="206"/>
      <point x="153" y="349" type="qcurve" smooth="yes"/>
      <point x="153" y="443"/>
      <point x="211" y="653"/>
      <point x="269" y="748" type="qcurve" smooth="yes"/>
      <point x="332" y="852"/>
      <point x="530" y="996"/>
      <point x="662" y="1013" type="qcurve"/>
      <point x="711" y="1200" type="line"/>
      <point x="821" y="1200" type="line"/>
      <point x="772" y="1012" type="line"/>
      <point x="887" y="996"/>
      <point x="1030" y="854"/>
      <point x="1053" y="747" type="qcurve"/>
      <point x="897" y="700" type="line"/>
      <point x="892" y="787"/>
      <point x="786" y="876"/>
      <point x="705" y="876" type="qcurve" smooth="yes"/>
      <point x="608" y="876"/>
      <point x="460" y="773"/>
      <point x="359" y="612"/>
      <point x="307" y="429"/>
      <point x="307" y="349" type="qcurve" smooth="yes"/>
      <point x="307" y="246"/>
      <point x="402" y="120"/>
      <point x="507" y="120" type="qcurve" smooth="yes"/>
      <point x="599" y="120"/>
      <point x="760" y="224"/>
      <point x="803" y="309" type="qcurve"/>
      <point x="927" y="238" type="line"/>
      <point x="786" y="6"/>
      <point x="544" y="-18" type="qcurve"/>
    </contour>
  </outline>
</glyph>
<glyph name="sterling" format="2">
  <advance width="1244"/>
  <unicode hex="00A3"/>
  <outline>
    <contour>
      <point x="1065" y="0" type="line"/>
      <point x="49" y="0" type="line"/>
      <point x="74" y="111" type="line"/>
      <point x="320" y="272"/>
      <point x="380" y="430" type="qcurve"/>
      <point x="417" y="519"/>
      <point x="417" y="641" type="qcurve"/>
      <point x="197" y="641" type="line"/>
      <point x="228" y="767" type="line"/>
      <point x="417" y="767" type="line"/>
      <point x="407" y="823"/>
      <point x="407" y="883" type="qcurve" smooth="yes"/>
      <point x="407" y="1022"/>
      <point x="521" y="1275"/>
      <point x="634" y="1357" type="qcurve" smooth="yes"/>
      <point x="741" y="1433"/>
      <point x="879" y="1433" type="qcurve" smooth="yes"/>
      <point x="974" y="1433"/>
      <point x="1116" y="1353"/>
      <point x="1203" y="1221"/>
      <point x="1214" y="1141" type="qcurve"/>
      <point x="1085" y="1108" type="line"/>
      <point x="1072" y="1198"/>
      <point x="954" y="1300"/>
      <point x="872" y="1300" type="qcurve" smooth="yes"/>
      <point x="764" y="1300"/>
      <point x="613" y="1178"/>
      <point x="534" y="981"/>
      <point x="534" y="868" type="qcurve" smooth="yes"/>
      <point x="534" y="812"/>
      <point x="542" y="767" type="qcurve"/>
      <point x="1017" y="767" type="line"/>
      <point x="987" y="641" type="line"/>
      <point x="544" y="641" type="line"/>
      <point x="544" y="459"/>
      <point x="417" y="213"/>
      <point x="285" y="129" type="qcurve"/>
      <point x="1095" y="133" type="line"/>
    </contour>
  </outline>
</glyph>
<glyph name="yen" format="2">
  <advance width="1316"/>
  <unicode hex="00A5"/>
  <outline>
    <contour>
      <point x="615" y="0" type="line"/>
      <point x="471" y="0" type="line"/>
      <point x="539" y="296" type="line"/>
      <point x="240" y="296" type="line"/>
      <point x="267" y="413" type="line"/>
      <point x="566" y="413" type="line"/>
      <point x="594" y="532" type="line"/>
      <point x="295" y="532" type="line"/>
      <point x="322" y="648" type="line"/>
      <point x="568" y="648" type="line"/>
      <point x="270" y="1413" type="line"/>
      <point x="433" y="1413" type="line"/>
      <point x="704" y="712" type="line"/>
      <point x="1302" y="1413" type="line"/>
      <point x="1472" y="1413" type="line"/>
      <point x="821" y="649" type="line"/>
      <point x="1065" y="649" type="line"/>
      <point x="1038" y="532" type="line"/>
      <point x="738" y="532" type="line"/>
      <point x="709" y="413" type="line"/>
      <point x="1010" y="413" type="line"/>
      <point x="983" y="296" type="line"/>
      <point x="683" y="296" type="line"/>
    </contour>
  </outline>
</glyph>
<glyph name="section" format="2">
  <advance width="1130"/>
  <unicode hex="00A7"/>
  <outline>
    <contour>
      <point x="463" y="-18" type="qcurve" smooth="yes"/>
      <point x="314" y="-18"/>
      <point x="120" y="125"/>
      <point x="110" y="272" type="qcurve"/>
      <point x="255" y="305" type="line"/>
      <point x="256" y="205"/>
      <point x="363" y="113"/>
      <point x="473" y="113" type="qcurve" smooth="yes"/>
      <point x="577" y="113"/>
      <point x="739" y="195"/>
      <point x="761" y="292" type="qcurve" smooth="yes"/>
      <point x="764" y="307"/>
      <point x="764" y="320" type="qcurve" smooth="yes"/>
      <point x="764" y="359"/>
      <point x="708" y="407"/>
      <point x="624" y="433"/>
      <point x="552" y="448" type="qcurve" smooth="yes"/>
      <point x="454" y="469"/>
      <point x="337" y="514"/>
      <point x="300" y="555" type="qcurve"/>
      <point x="258" y="598"/>
      <point x="258" y="671" type="qcurve" smooth="yes"/>
      <point x="258" y="711"/>
      <point x="272" y="759" type="qcurve" smooth="yes"/>
      <point x="306" y="872"/>
      <point x="418" y="954" type="qcurve"/>
      <point x="357" y="1003"/>
      <point x="357" y="1095" type="qcurve" smooth="yes"/>
      <point x="357" y="1125"/>
      <point x="364" y="1153" type="qcurve" smooth="yes"/>
      <point x="400" y="1290"/>
      <point x="636" y="1434"/>
      <point x="766" y="1434" type="qcurve" smooth="yes"/>
      <point x="901" y="1434"/>
      <point x="1065" y="1301"/>
      <point x="1085" y="1179" type="qcurve"/>
      <point x="944" y="1147" type="line"/>
      <point x="936" y="1304"/>
      <point x="755" y="1304" type="qcurve" smooth="yes"/>
      <point x="665" y="1304"/>
      <point x="511" y="1209"/>
      <point x="489" y="1121" type="qcurve" smooth="yes"/>
      <point x="486" y="1108"/>
      <point x="486" y="1096" type="qcurve" smooth="yes"/>
      <point x="486" y="1059"/>
      <point x="540" y="1015"/>
      <point x="621" y="991"/>
      <point x="691" y="976" type="qcurve" smooth="yes"/>
      <point x="790" y="955"/>
      <point x="911" y="910"/>
      <point x="950" y="869" type="qcurve" smooth="yes"/>
      <point x="993" y="824"/>
      <point x="993" y="747" type="qcurve" smooth="yes"/>
      <point x="993" y="715"/>
      <point x="984" y="674" type="qcurve"/>
      <point x="953" y="546"/>
      <point x="839" y="465" type="qcurve"/>
      <point x="896" y="417"/>
      <point x="896" y="329" type="qcurve" smooth="yes"/>
      <point x="896" y="294"/>
      <point x="888" y="262" type="qcurve" smooth="yes"/>
      <point x="864" y="164"/>
      <point x="736" y="40"/>
      <point x="558" y="-18"/>
    </contour>
    <contour>
      <point x="696" y="532" type="qcurve"/>
      <point x="833" y="588"/>
      <point x="858" y="708" type="qcurve" smooth="yes"/>
      <point x="861" y="723"/>
      <point x="861" y="737" type="qcurve" smooth="yes"/>
      <point x="861" y="784"/>
      <point x="826" y="813" type="qcurve" smooth="yes"/>
      <point x="768" y="860"/>
      <point x="624" y="883" type="qcurve"/>
      <point x="564" y="895" type="line"/>
      <point x="427" y="840"/>
      <point x="394" y="716" type="qcurve" smooth="yes"/>
      <point x="391" y="703"/>
      <point x="391" y="691" type="qcurve" smooth="yes"/>
      <point x="391" y="647"/>
      <point x="427" y="619" type="qcurve" smooth="yes"/>
      <point x="486" y="572"/>
      <point x="628" y="547" type="qcurve"/>
      <point x="674" y="538"/>
    </contour>
  </outline>
</glyph>
<glyph name="ordfeminine" format="2">
  <advance width="981"/>
  <unicode hex="00AA"/>
  <outline>
    <contour>
      <point x="466" y="709" type="qcurve" smooth="yes"/>
      <point x="383" y="709"/>
      <point x="270" y="800"/>
      <point x="270" y="882" type="qcurve" smooth="yes"/>
      <point x="270" y="941"/>
      <point x="327" y="1051"/>
      <point x="379" y="1083" type="qcurve" smooth="yes"/>
      <point x="457" y="1129"/>
      <point x="577" y="1129" type="qcurve"/>
      <point x="796" y="1136" type="line"/>
      <point x="807" y="1185"/>
      <point x="807" y="1219" type="qcurve" smooth="yes"/>
      <point x="807" y="1336"/>
      <point x="681" y="1336" type="qcurve" smooth="yes"/>
      <point x="618" y="1336"/>
      <point x="506" y="1272"/>
      <point x="468" y="1228" type="qcurve"/>
      <point x="385" y="1298" type="line"/>
      <point x="512" y="1434"/>
      <point x="684" y="1434" type="qcurve" smooth="yes"/>
      <point x="802" y="1434"/>
      <point x="916" y="1318"/>
      <point x="916" y="1227" type="qcurve" smooth="yes"/>
      <point x="916" y="1186"/>
      <point x="906" y="1145" type="qcurve" smooth="yes"/>
      <point x="808" y="723" type="line"/>
      <point x="711" y="723" type="line"/>
      <point x="734" y="833" type="line"/>
      <point x="677" y="770"/>
      <point x="549" y="709"/>
    </contour>
    <contour>
      <point x="492" y="810" type="qcurve" smooth="yes"/>
      <point x="558" y="810"/>
      <point x="677" y="880"/>
      <point x="760" y="984"/>
      <point x="774" y="1039" type="qcurve"/>
      <point x="575" y="1032" type="line"/>
      <point x="513" y="1032"/>
      <point x="461" y="999" type="qcurve" smooth="yes"/>
      <point x="400" y="960"/>
      <point x="392" y="887" type="qcurve"/>
      <point x="392" y="851"/>
      <point x="454" y="810"/>
    </contour>
  </outline>
</glyph>
<glyph name="registered" format="2">
  <advance width="1801"/>
  <unicode hex="00AE"/>
  <outline>
    <contour>
      <point x="949" y="-49" type="qcurve" smooth="yes"/>
      <point x="806" y="-49"/>
      <point x="558" y="48"/>
      <point x="363" y="217"/>
      <point x="298" y="329" type="qcurve" smooth="yes"/>
      <point x="197" y="503"/>
      <point x="197" y="709" type="qcurve" smooth="yes"/>
      <point x="197" y="852"/>
      <point x="293" y="1102"/>
      <point x="461" y="1298"/>
      <point x="572" y="1364" type="qcurve" smooth="yes"/>
      <point x="745" y="1466"/>
      <point x="949" y="1466" type="qcurve" smooth="yes"/>
      <point x="1092" y="1466"/>
      <point x="1340" y="1369"/>
      <point x="1535" y="1200"/>
      <point x="1600" y="1088" type="qcurve" smooth="yes"/>
      <point x="1701" y="914"/>
      <point x="1701" y="709" type="qcurve" smooth="yes"/>
      <point x="1701" y="565"/>
      <point x="1605" y="315"/>
      <point x="1437" y="119"/>
      <point x="1326" y="53" type="qcurve" smooth="yes"/>
      <point x="1153" y="-49"/>
    </contour>
    <contour>
      <point x="949" y="63" type="qcurve" smooth="yes"/>
      <point x="1069" y="63"/>
      <point x="1280" y="146"/>
      <point x="1447" y="291"/>
      <point x="1503" y="387" type="qcurve" smooth="yes"/>
      <point x="1590" y="536"/>
      <point x="1590" y="709" type="qcurve" smooth="yes"/>
      <point x="1590" y="830"/>
      <point x="1507" y="1042"/>
      <point x="1363" y="1210"/>
      <point x="1269" y="1267" type="qcurve" smooth="yes"/>
      <point x="1121" y="1355"/>
      <point x="949" y="1355" type="qcurve" smooth="yes"/>
      <point x="829" y="1355"/>
      <point x="618" y="1272"/>
      <point x="451" y="1126"/>
      <point x="395" y="1031" type="qcurve" smooth="yes"/>
      <point x="307" y="882"/>
      <point x="307" y="709" type="qcurve" smooth="yes"/>
      <point x="307" y="588"/>
      <point x="390" y="375"/>
      <point x="535" y="207"/>
      <point x="630" y="151" type="qcurve" smooth="yes"/>
      <point x="777" y="63"/>
    </contour>
    <contour>
      <point x="1300" y="304" type="line"/>
      <point x="1158" y="304" type="line"/>
      <point x="981" y="637" type="line"/>
      <point x="823" y="637" type="line"/>
      <point x="823" y="304" type="line"/>
      <point x="701" y="304" type="line"/>
      <point x="701" y="1099" type="line"/>
      <point x="1003" y="1099" type="line" smooth="yes"/>
      <point x="1139" y="1099"/>
      <point x="1264" y="975"/>
      <point x="1264" y="867" type="qcurve" smooth="yes"/>
      <point x="1264" y="801"/>
      <point x="1220" y="711"/>
      <point x="1146" y="658"/>
      <point x="1099" y="649" type="qcurve"/>
    </contour>
    <contour>
      <point x="1003" y="747" type="line" smooth="yes"/>
      <point x="1153" y="747"/>
      <point x="1153" y="867" type="qcurve" smooth="yes"/>
      <point x="1153" y="931"/>
      <point x="1079" y="988"/>
      <point x="1003" y="988" type="qcurve" smooth="yes"/>
      <point x="813" y="988" type="line"/>
      <point x="813" y="747" type="line"/>
    </contour>
  </outline>
</glyph>
<glyph name="macron" format="2">
  <advance width="870"/>
  <unicode hex="00AF"/>
  <outline>
    <contour>
      <point x="956" y="1183" type="line"/>
      <point x="415" y="1183" type="line"/>
      <point x="444" y="1308" type="line"/>
      <point x="985" y="1308" type="line"/>
    </contour>
  </outline>
</glyph>
<glyph name="degree" format="2">
  <advance width="967"/>
  <unicode hex="00B0"/>
  <outline>
    <contour>
      <point x="483" y="848" type="qcurve" smooth="yes"/>
      <point x="398" y="848"/>
      <point x="266" y="930"/>
      <point x="190" y="1064"/>
      <point x="190" y="1141" type="qcurve" smooth="yes"/>
      <point x="190" y="1227"/>
      <point x="273" y="1359"/>
      <point x="407" y="1434"/>
      <point x="483" y="1434" type="qcurve" smooth="yes"/>
      <point x="567" y="1434"/>
      <point x="699" y="1352"/>
      <point x="775" y="1219"/>
      <point x="775" y="1141" type="qcurve" smooth="yes"/>
      <point x="775" y="1056"/>
      <point x="693" y="924"/>
      <point x="560" y="848"/>
    </contour>
    <contour>
      <point x="483" y="941" type="qcurve" smooth="yes"/>
      <point x="570" y="941"/>
      <point x="682" y="1063"/>
      <point x="682" y="1141" type="qcurve" smooth="yes"/>
      <point x="682" y="1199"/>
      <point x="625" y="1289"/>
      <point x="534" y="1340"/>
      <point x="483" y="1340" type="qcurve" smooth="yes"/>
      <point x="398" y="1340"/>
      <point x="284" y="1220"/>
      <point x="284" y="1141" type="qcurve" smooth="yes"/>
      <point x="284" y="1055"/>
      <point x="404" y="941"/>
    </contour>
  </outline>
</glyph>
<glyph name="cedilla" format="2">
  <advance width="562"/>
  <unicode hex="00B8"/>
  <anchor x="42" y="-500" name="b.uni0326_2"/>
  <outline>
    <contour>
      <point x="44" y="-504" type="qcurve" smooth="yes"/>
      <point x="-22" y="-504"/>
      <point x="-108" y="-427"/>
      <point x="-119" y="-373" type="qcurve"/>
      <point x="-12" y="-336" type="line"/>
      <point x="-12" y="-341" type="line" smooth="yes"/>
      <point x="-12" y="-366"/>
      <point x="21" y="-401"/>
      <point x="52" y="-401" type="qcurve" smooth="yes"/>
      <point x="100" y="-401"/>
      <point x="176" y="-337"/>
      <point x="186" y="-291" type="qcurve" smooth="yes"/>
      <point x="188" y="-284"/>
      <point x="188" y="-271" type="qcurve" smooth="yes"/>
      <point x="188" y="-232"/>
      <point x="113" y="-180"/>
      <point x="36" y="-180" type="qcurve" smooth="yes"/>
      <point x="-12" y="-180" type="line"/>
      <point x="122" y="0" type="line"/>
      <point x="245" y="0" type="line"/>
      <point x="141" y="-117" type="line"/>
      <point x="217" y="-120"/>
      <point x="295" y="-200"/>
      <point x="295" y="-262" type="qcurve" smooth="yes"/>
      <point x="295" y="-338"/>
      <point x="243" y="-405" type="qcurve" smooth="yes"/>
      <point x="208" y="-449"/>
      <point x="106" y="-504"/>
    </contour>
  </outline>
</glyph>
<glyph name="onesuperior" format="2">
  <advance width="832"/>
  <unicode hex="00B9"/>
  <outline>
    <contour>
      <point x="438" y="486" type="line"/>
      <point x="319" y="486" type="line"/>
      <point x="502" y="1196" type="line"/>
      <point x="264" y="1196" type="line"/>
      <point x="300" y="1295" type="line"/>
      <point x="410" y="1295" type="line" smooth="yes"/>
      <point x="468" y="1295"/>
      <point x="548" y="1365"/>
      <point x="559" y="1415" type="qcurve" smooth="yes"/>
      <point x="562" y="1428" type="line"/>
      <point x="682" y="1428" type="line"/>
    </contour>
  </outline>
</glyph>
<glyph name="guillemotright" format="2">
  <advance width="973"/>
  <unicode hex="00BB"/>
  <outline>
    <contour>
      <point x="95" y="185" type="line"/>
      <point x="129" y="347" type="line"/>
      <point x="362" y="512" type="line"/>
      <point x="209" y="675" type="line"/>
      <point x="242" y="837" type="line"/>
      <point x="538" y="512" type="line"/>
    </contour>
    <contour>
      <point x="458" y="185" type="line"/>
      <point x="492" y="347" type="line"/>
      <point x="725" y="512" type="line"/>
      <point x="571" y="675" type="line"/>
      <point x="605" y="837" type="line"/>
      <point x="902" y="512" type="line"/>
    </contour>
  </outline>
</glyph>
<glyph name="questiondown" format="2">
  <advance width="1029"/>
  <unicode hex="00BF"/>
  <outline>
    <contour>
      <point x="687" y="806" type="line"/>
      <point x="492" y="806" type="line"/>
      <point x="536" y="999" type="line"/>
      <point x="732" y="999" type="line"/>
    </contour>
    <contour>
      <point x="325" y="-434" type="qcurve" smooth="yes"/>
      <point x="228" y="-434"/>
      <point x="69" y="-372"/>
      <point x="-25" y="-246"/>
      <point x="-25" y="-151" type="qcurve" smooth="yes"/>
      <point x="-25" y="-81"/>
      <point x="18" y="47"/>
      <point x="49" y="89" type="qcurve" smooth="yes"/>
      <point x="88" y="142"/>
      <point x="187" y="211"/>
      <point x="260" y="245" type="qcurve"/>
      <point x="338" y="284"/>
      <point x="420" y="351"/>
      <point x="432" y="405" type="qcurve" smooth="yes"/>
      <point x="483" y="623" type="line"/>
      <point x="619" y="623" type="line"/>
      <point x="566" y="389" type="line"/>
      <point x="549" y="320"/>
      <point x="485" y="231"/>
      <point x="405" y="179"/>
      <point x="342" y="149" type="qcurve" smooth="yes"/>
      <point x="252" y="106"/>
      <point x="142" y="6"/>
      <point x="121" y="-89" type="qcurve" smooth="yes"/>
      <point x="114" y="-118"/>
      <point x="114" y="-146" type="qcurve" smooth="yes"/>
      <point x="114" y="-228"/>
      <point x="233" y="-302"/>
      <point x="325" y="-302" type="qcurve" smooth="yes"/>
      <point x="437" y="-302"/>
      <point x="628" y="-172"/>
      <point x="661" y="-52" type="qcurve"/>
      <point x="802" y="-66" type="line"/>
      <point x="755" y="-246"/>
      <point x="485" y="-434"/>
    </contour>
  </outline>
</glyph>
<glyph name="Eth" format="2">
  <advance width="1430"/>
  <unicode hex="00D0"/>
  <outline>
    <contour>
      <point x="485" y="0" type="qcurve" smooth="yes"/>
      <point x="118" y="0" type="line"/>
      <point x="268" y="655" type="line"/>
      <point x="155" y="655" type="line"/>
      <point x="183" y="770" type="line"/>
      <point x="296" y="770" type="line"/>
      <point x="444" y="1413" type="line"/>
      <point x="802" y="1413" type="line" smooth="yes"/>
      <point x="1083" y="1413"/>
      <point x="1377" y="1157"/>
      <point x="1377" y="915" type="qcurve" smooth="yes"/>
      <point x="1377" y="805"/>
      <point x="1348" y="682" type="qcurve" smooth="yes"/>
      <point x="1267" y="347"/>
      <point x="819" y="0"/>
    </contour>
    <contour>
      <point x="483" y="147" type="line" smooth="yes"/>
      <point x="647" y="147"/>
      <point x="936" y="267"/>
      <point x="1146" y="521"/>
      <point x="1194" y="721" type="qcurve"/>
      <point x="1217" y="824"/>
      <point x="1217" y="905" type="qcurve" smooth="yes"/>
      <point x="1217" y="1268"/>
      <point x="776" y="1268" type="qcurve" smooth="yes"/>
      <point x="572" y="1268" type="line"/>
      <point x="457" y="770" type="line"/>
      <point x="838" y="770" type="line"/>
      <point x="810" y="655" type="line"/>
      <point x="429" y="655" type="line"/>
      <point x="312" y="147" type="line"/>
    </contour>
  </outline>
</glyph>
<glyph name="divide" format="2">
  <advance width="967"/>
  <unicode hex="00F7"/>
  <outline>
    <contour>
      <point x="578" y="902" type="line"/>
      <point x="382" y="902" type="line"/>
      <point x="382" y="1096" type="line"/>
      <point x="578" y="1096" type="line"/>
    </contour>
    <contour>
      <point x="829" y="571" type="line"/>
      <point x="130" y="571" type="line"/>
      <point x="130" y="685" type="line"/>
      <point x="829" y="685" type="line"/>
    </contour>
    <contour>
      <point x="578" y="142" type="line"/>
      <point x="382" y="142" type="line"/>
      <point x="382" y="335" type="line"/>
      <point x="578" y="335" type="line"/>
    </contour>
  </outline>
</glyph>
<glyph name="oslash" format="2">
  <advance width="1125"/>
  <unicode hex="00F8"/>
  <outline>
    <contour>
      <point x="453" y="-20" type="qcurve" smooth="yes"/>
      <point x="329" y="-20"/>
      <point x="239" y="36" type="qcurve"/>
      <point x="211" y="1" type="line"/>
      <point x="117" y="1" type="line"/>
      <point x="182" y="82" type="line"/>
      <point x="129" y="136"/>
      <point x="75" y="284"/>
      <point x="75" y="370" type="qcurve" smooth="yes"/>
      <point x="75" y="550"/>
      <point x="262" y="859"/>
      <point x="413" y="945" type="qcurve" smooth="yes"/>
      <point x="533" y="1012"/>
      <point x="668" y="1012" type="qcurve" smooth="yes"/>
      <point x="790" y="1012"/>
      <point x="880" y="956" type="qcurve"/>
      <point x="914" y="999" type="line"/>
      <point x="1007" y="999" type="line"/>
      <point x="937" y="911" type="line"/>
      <point x="989" y="859"/>
      <point x="1047" y="710"/>
      <point x="1047" y="619" type="qcurve" smooth="yes"/>
      <point x="1047" y="518"/>
      <point x="979" y="316"/>
      <point x="915" y="229" type="qcurve" smooth="yes"/>
      <point x="832" y="117"/>
      <point x="593" y="-20"/>
    </contour>
    <contour>
      <point x="274" y="197" type="qcurve"/>
      <point x="793" y="848" type="line"/>
      <point x="740" y="879"/>
      <point x="660" y="879" type="qcurve" smooth="yes"/>
      <point x="551" y="879"/>
      <point x="385" y="770"/>
      <point x="276" y="591"/>
      <point x="251" y="481" type="qcurve" smooth="yes"/>
      <point x="235" y="407"/>
      <point x="235" y="349" type="qcurve" smooth="yes"/>
      <point x="235" y="254"/>
    </contour>
    <contour>
      <point x="461" y="112" type="qcurve" smooth="yes"/>
      <point x="572" y="112"/>
      <point x="738" y="221"/>
      <point x="846" y="401"/>
      <point x="871" y="510" type="qcurve" smooth="yes"/>
      <point x="888" y="581"/>
      <point x="888" y="644" type="qcurve" smooth="yes"/>
      <point x="888" y="740"/>
      <point x="847" y="798" type="qcurve"/>
      <point x="326" y="145" type="line"/>
      <point x="379" y="112"/>
    </contour>
  </outline>
</glyph>
<glyph name="Aogonek" format="2">
  <advance width="1306"/>
  <unicode hex="0104"/>
  <outline>
    <contour>
      <point x="904" y="-451" type="qcurve" smooth="yes"/>
      <point x="827" y="-451"/>
      <point x="731" y="-363"/>
      <point x="731" y="-286" type="qcurve" smooth="yes"/>
      <point x="731" y="-230"/>
      <point x="782" y="-123"/>
      <point x="837" y="-81" type="qcurve"/>
      <point x="915" y="-24"/>
      <point x="992" y="0" type="qcurve"/>
      <point x="959" y="0" type="line"/>
      <point x="922" y="307" type="line"/>
      <point x="301" y="307" type="line"/>
      <point x="122" y="0" type="line"/>
      <point x="-54" y="0" type="line"/>
      <point x="803" y="1413" type="line"/>
      <point x="924" y="1413" type="line"/>
      <point x="1126" y="0" type="line"/>
      <point x="1082" y="0" type="line"/>
      <point x="1124" y="-1" type="line"/>
      <point x="1091" y="-15"/>
      <point x="984" y="-66"/>
      <point x="860" y="-174"/>
      <point x="844" y="-244" type="qcurve" smooth="yes"/>
      <point x="840" y="-259"/>
      <point x="840" y="-275" type="qcurve" smooth="yes"/>
      <point x="840" y="-306"/>
      <point x="873" y="-337"/>
      <point x="898" y="-337" type="qcurve" smooth="yes"/>
      <point x="982" y="-337"/>
      <point x="1043" y="-268" type="qcurve"/>
      <point x="1126" y="-343" type="line"/>
      <point x="1076" y="-398"/>
      <point x="970" y="-451"/>
    </contour>
    <contour>
      <point x="902" y="452" type="line"/>
      <point x="816" y="1180" type="line"/>
      <point x="387" y="452" type="line"/>
    </contour>
  </outline>
</glyph>
<glyph name="aogonek" format="2">
  <advance width="1033"/>
  <unicode hex="0105"/>
  <outline>
    <contour>
      <point x="548" y="-451" type="qcurve" smooth="yes"/>
      <point x="471" y="-451"/>
      <point x="375" y="-363"/>
      <point x="375" y="-286" type="qcurve" smooth="yes"/>
      <point x="375" y="-189"/>
      <point x="444" y="-116" type="qcurve"/>
      <point x="532" y="-27"/>
      <point x="643" y="2" type="qcurve"/>
      <point x="702" y="1" type="line"/>
      <point x="727" y="127" type="line"/>
      <point x="587" y="-20"/>
      <point x="392" y="-20" type="qcurve" smooth="yes"/>
      <point x="288" y="-20"/>
      <point x="150" y="73"/>
      <point x="81" y="236"/>
      <point x="81" y="341" type="qcurve" smooth="yes"/>
      <point x="81" y="446"/>
      <point x="146" y="672"/>
      <point x="208" y="771" type="qcurve" smooth="yes"/>
      <point x="277" y="882"/>
      <point x="481" y="1020"/>
      <point x="608" y="1020" type="qcurve" smooth="yes"/>
      <point x="817" y="1020"/>
      <point x="892" y="858" type="qcurve"/>
      <point x="927" y="999" type="line"/>
      <point x="1076" y="999" type="line"/>
      <point x="847" y="0" type="line"/>
      <point x="726" y="0" type="line"/>
      <point x="768" y="-1" type="line"/>
      <point x="735" y="-15"/>
      <point x="628" y="-66"/>
      <point x="504" y="-174"/>
      <point x="488" y="-244" type="qcurve" smooth="yes"/>
      <point x="484" y="-259"/>
      <point x="484" y="-275" type="qcurve" smooth="yes"/>
      <point x="484" y="-306"/>
      <point x="517" y="-337"/>
      <point x="542" y="-337" type="qcurve" smooth="yes"/>
      <point x="626" y="-337"/>
      <point x="687" y="-268" type="qcurve"/>
      <point x="770" y="-343" type="line"/>
      <point x="720" y="-398"/>
      <point x="614" y="-451"/>
    </contour>
    <contour>
      <point x="439" y="116" type="qcurve" smooth="yes"/>
      <point x="542" y="116"/>
      <point x="698" y="223"/>
      <point x="802" y="403"/>
      <point x="827" y="514" type="qcurve" smooth="yes"/>
      <point x="844" y="588"/>
      <point x="844" y="652" type="qcurve" smooth="yes"/>
      <point x="844" y="720"/>
      <point x="803" y="824"/>
      <point x="712" y="882"/>
      <point x="639" y="882" type="qcurve" smooth="yes"/>
      <point x="537" y="882"/>
      <point x="379" y="773"/>
      <point x="274" y="594"/>
      <point x="250" y="485" type="qcurve" smooth="yes"/>
      <point x="232" y="406"/>
      <point x="232" y="348" type="qcurve" smooth="yes"/>
      <point x="232" y="281"/>
      <point x="274" y="176"/>
      <point x="366" y="116"/>
    </contour>
  </outline>
</glyph>
<glyph name="dcaron" format="2">
  <advance width="1261"/>
  <unicode hex="010F"/>
  <outline>
    <contour>
      <point x="392" y="-20" type="qcurve" smooth="yes"/>
      <point x="288" y="-20"/>
      <point x="150" y="73"/>
      <point x="81" y="236"/>
      <point x="81" y="341" type="qcurve" smooth="yes"/>
      <point x="81" y="446"/>
      <point x="146" y="672"/>
      <point x="208" y="771" type="qcurve" smooth="yes"/>
      <point x="277" y="882"/>
      <point x="481" y="1020"/>
      <point x="608" y="1020" type="qcurve" smooth="yes"/>
      <point x="817" y="1020"/>
      <point x="892" y="858" type="qcurve"/>
      <point x="1023" y="1413" type="line"/>
      <point x="1173" y="1413" type="line"/>
      <point x="847" y="0" type="line"/>
      <point x="698" y="0" type="line"/>
      <point x="730" y="131" type="line"/>
      <point x="658" y="55"/>
      <point x="492" y="-20"/>
    </contour>
    <contour>
      <point x="1301" y="1017" type="line"/>
      <point x="1190" y="1017" type="line"/>
      <point x="1384" y="1413" type="line"/>
      <point x="1600" y="1413" type="line"/>
    </contour>
    <contour>
      <point x="439" y="116" type="qcurve" smooth="yes"/>
      <point x="542" y="116"/>
      <point x="698" y="223"/>
      <point x="802" y="403"/>
      <point x="827" y="514" type="qcurve" smooth="yes"/>
      <point x="844" y="588"/>
      <point x="844" y="652" type="qcurve" smooth="yes"/>
      <point x="844" y="720"/>
      <point x="803" y="824"/>
      <point x="712" y="882"/>
      <point x="639" y="882" type="qcurve" smooth="yes"/>
      <point x="537" y="882"/>
      <point x="379" y="773"/>
      <point x="274" y="594"/>
      <point x="250" y="485" type="qcurve" smooth="yes"/>
      <point x="232" y="406"/>
      <point x="232" y="348" type="qcurve" smooth="yes"/>
      <point x="232" y="281"/>
      <point x="274" y="176"/>
      <point x="366" y="116"/>
    </contour>
  </outline>
</glyph>
<glyph name="hbar" format="2">
  <advance width="1128"/>
  <unicode hex="0127"/>
  <outline>
    <contour>
      <point x="865" y="0" type="line"/>
      <point x="714" y="0" type="line"/>
      <point x="852" y="599" type="line"/>
      <point x="868" y="672"/>
      <point x="868" y="720" type="qcurve" smooth="yes"/>
      <point x="868" y="875"/>
      <point x="720" y="875" type="qcurve" smooth="yes"/>
      <point x="627" y="875"/>
      <point x="463" y="777"/>
      <point x="349" y="625"/>
      <point x="329" y="540" type="qcurve" smooth="yes"/>
      <point x="205" y="0" type="line"/>
      <point x="57" y="0" type="line"/>
      <point x="317" y="1128" type="line"/>
      <point x="136" y="1128" type="line"/>
      <point x="163" y="1244" type="line"/>
      <point x="344" y="1244" type="line"/>
      <point x="383" y="1413" type="line"/>
      <point x="530" y="1413" type="line"/>
      <point x="490" y="1244" type="line"/>
      <point x="797" y="1244" type="line"/>
      <point x="770" y="1128" type="line"/>
      <point x="463" y="1128" type="line"/>
      <point x="396" y="842" type="line"/>
      <point x="468" y="927"/>
      <point x="661" y="1016"/>
      <point x="752" y="1016" type="qcurve" smooth="yes"/>
      <point x="890" y="1016"/>
      <point x="1022" y="864"/>
      <point x="1022" y="740" type="qcurve" smooth="yes"/>
      <point x="1022" y="681"/>
      <point x="1006" y="609" type="qcurve" smooth="yes"/>
    </contour>
  </outline>
</glyph>
<glyph name="IJ" format="2">
  <advance width="1716"/>
  <unicode hex="0132"/>
  <outline>
    <contour>
      <point x="259" y="0" type="line"/>
      <point x="100" y="0" type="line"/>
      <point x="426" y="1413" type="line"/>
      <point x="585" y="1413" type="line"/>
    </contour>
    <contour>
      <point x="984" y="-20" type="qcurve" smooth="yes"/>
      <point x="869" y="-20"/>
      <point x="715" y="69"/>
      <point x="637" y="223"/>
      <point x="637" y="320" type="qcurve" smooth="yes"/>
      <point x="637" y="354"/>
      <point x="644" y="403" type="qcurve"/>
      <point x="799" y="410" type="line"/>
      <point x="793" y="373"/>
      <point x="793" y="335" type="qcurve" smooth="yes"/>
      <point x="793" y="239"/>
      <point x="889" y="120"/>
      <point x="993" y="120" type="qcurve" smooth="yes"/>
      <point x="1155" y="120"/>
      <point x="1323" y="318"/>
      <point x="1364" y="492" type="qcurve"/>
      <point x="1545" y="1276" type="line"/>
      <point x="1013" y="1276" type="line"/>
      <point x="1044" y="1413" type="line"/>
      <point x="1736" y="1413" type="line"/>
      <point x="1523" y="495" type="line"/>
      <point x="1467" y="248"/>
      <point x="1205" y="-20"/>
    </contour>
  </outline>
</glyph>
<glyph name="ij" format="2">
  <advance width="989"/>
  <unicode hex="0133"/>
  <outline>
    <contour>
      <point x="994" y="1225" type="line"/>
      <point x="820" y="1225" type="line"/>
      <point x="866" y="1418" type="line"/>
      <point x="1040" y="1418" type="line"/>
    </contour>
    <contour>
      <point x="499" y="1221" type="line"/>
      <point x="327" y="1221" type="line"/>
      <point x="372" y="1413" type="line"/>
      <point x="544" y="1413" type="line"/>
    </contour>
    <contour>
      <point x="356" y="-438" type="qcurve" smooth="yes"/>
      <point x="284" y="-438"/>
      <point x="205" y="-405" type="qcurve"/>
      <point x="252" y="-297" type="line"/>
      <point x="273" y="-304"/>
      <point x="334" y="-312"/>
      <point x="358" y="-312" type="qcurve" smooth="yes"/>
      <point x="422" y="-312"/>
      <point x="497" y="-228"/>
      <point x="510" y="-170" type="qcurve" smooth="yes"/>
      <point x="779" y="999" type="line"/>
      <point x="932" y="999" type="line"/>
      <point x="664" y="-162" type="line"/>
      <point x="636" y="-289"/>
      <point x="486" y="-438"/>
    </contour>
    <contour>
      <point x="207" y="0" type="line"/>
      <point x="55" y="0" type="line"/>
      <point x="285" y="999" type="line"/>
      <point x="436" y="999" type="line"/>
    </contour>
  </outline>
</glyph>
<glyph name="kgreenlandic" format="2">
  <advance width="1049"/>
  <unicode hex="0138"/>
  <outline>
    <contour>
      <point x="899" y="0" type="line"/>
      <point x="725" y="0" type="line"/>
      <point x="544" y="527" type="line"/>
      <point x="272" y="290" type="line"/>
      <point x="204" y="0" type="line"/>
      <point x="55" y="0" type="line"/>
      <point x="285" y="999" type="line"/>
      <point x="433" y="999" type="line"/>
      <point x="310" y="476" type="line"/>
      <point x="877" y="999" type="line"/>
      <point x="1067" y="999" type="line"/>
      <point x="655" y="632" type="line"/>
    </contour>
  </outline>
</glyph>
<glyph name="Lcaron" format="2">
  <advance width="1037"/>
  <unicode hex="013D"/>
  <outline>
    <contour>
      <point x="860" y="0" type="line"/>
      <point x="97" y="0" type="line"/>
      <point x="423" y="1413" type="line"/>
      <point x="582" y="1413" type="line"/>
      <point x="288" y="145" type="line"/>
      <point x="893" y="145" type="line"/>
    </contour>
    <contour>
      <point x="830" y="1017" type="line"/>
      <point x="718" y="1017" type="line"/>
      <point x="913" y="1413" type="line"/>
      <point x="1129" y="1413" type="line"/>
    </contour>
  </outline>
</glyph>
<glyph name="Ldot" format="2">
  <advance width="1043"/>
  <unicode hex="013F"/>
  <outline>
    <contour>
      <point x="863" y="0" type="line"/>
      <point x="100" y="0" type="line"/>
      <point x="426" y="1413" type="line"/>
      <point x="585" y="1413" type="line"/>
      <point x="292" y="145" type="line"/>
      <point x="896" y="145" type="line"/>
    </contour>
    <contour>
      <point x="677" y="582" type="qcurve" smooth="yes"/>
      <point x="629" y="582"/>
      <point x="570" y="644"/>
      <point x="570" y="689" type="qcurve" smooth="yes"/>
      <point x="570" y="752"/>
      <point x="659" y="831"/>
      <point x="712" y="831" type="qcurve" smooth="yes"/>
      <point x="761" y="831"/>
      <point x="821" y="772"/>
      <point x="821" y="724" type="qcurve" smooth="yes"/>
      <point x="821" y="714"/>
      <point x="817" y="692" type="qcurve"/>
      <point x="805" y="645"/>
      <point x="726" y="582"/>
    </contour>
  </outline>
</glyph>
<glyph name="Nacute" format="2">
  <advance width="1425"/>
  <unicode hex="0143"/>
  <outline>
    <contour>
      <point x="992" y="1538" type="line"/>
      <point x="853" y="1538" type="line"/>
      <point x="1138" y="1827" type="line"/>
      <point x="1335" y="1827" type="line"/>
    </contour>
    <contour>
      <point x="1095" y="0" type="line"/>
      <point x="871" y="0" type="line"/>
      <point x="544" y="1230" type="line"/>
      <point x="259" y="0" type="line"/>
      <point x="100" y="0" type="line"/>
      <point x="426" y="1413" type="line"/>
      <point x="646" y="1413" type="line"/>
      <point x="978" y="185" type="line"/>
      <point x="1264" y="1413" type="line"/>
      <point x="1420" y="1413" type="line"/>
    </contour>
  </outline>
</glyph>
<glyph name="Eng" format="2">
  <advance width="1420"/>
  <unicode hex="014A"/>
  <outline>
    <contour>
      <point x="730" y="-369" type="qcurve" smooth="yes"/>
      <point x="644" y="-369" type="line"/>
      <point x="666" y="-248" type="line"/>
      <point x="675" y="-248" type="line" smooth="yes"/>
      <point x="738" y="-248"/>
      <point x="843" y="-205"/>
      <point x="902" y="-131"/>
      <point x="902" y="-88" type="qcurve" smooth="yes"/>
      <point x="902" y="-74"/>
      <point x="899" y="-63" type="qcurve" smooth="yes"/>
      <point x="541" y="1228" type="line"/>
      <point x="256" y="0" type="line"/>
      <point x="97" y="0" type="line"/>
      <point x="423" y="1413" type="line"/>
      <point x="643" y="1413" type="line"/>
      <point x="974" y="185" type="line"/>
      <point x="1260" y="1413" type="line"/>
      <point x="1417" y="1413" type="line"/>
      <point x="1089" y="-7" type="line" smooth="yes"/>
      <point x="1069" y="-94"/>
      <point x="1010" y="-240"/>
      <point x="858" y="-369"/>
    </contour>
  </outline>
</glyph>
<glyph name="OE" format="2">
  <advance width="2252"/>
  <unicode hex="0152"/>
  <outline>
    <contour>
      <point x="657" y="-20" type="qcurve" smooth="yes"/>
      <point x="484" y="-20"/>
      <point x="260" y="111"/>
      <point x="151" y="341"/>
      <point x="151" y="490" type="qcurve" smooth="yes"/>
      <point x="151" y="633"/>
      <point x="243" y="945"/>
      <point x="331" y="1081" type="qcurve"/>
      <point x="437" y="1242"/>
      <point x="763" y="1434"/>
      <point x="970" y="1434" type="qcurve" smooth="yes"/>
      <point x="1152" y="1434"/>
      <point x="1355" y="1284"/>
      <point x="1385" y="1151" type="qcurve"/>
      <point x="1449" y="1413" type="line"/>
      <point x="2348" y="1413" type="line"/>
      <point x="2316" y="1276" type="line"/>
      <point x="1576" y="1276" type="line"/>
      <point x="1461" y="774" type="line"/>
      <point x="2118" y="774" type="line"/>
      <point x="2086" y="641" type="line"/>
      <point x="1429" y="641" type="line"/>
      <point x="1314" y="145" type="line"/>
      <point x="2055" y="145" type="line"/>
      <point x="2022" y="0" type="line"/>
      <point x="1123" y="0" type="line"/>
      <point x="1183" y="249" type="line"/>
      <point x="997" y="-20"/>
    </contour>
    <contour>
      <point x="665" y="124" type="qcurve" smooth="yes"/>
      <point x="830" y="124"/>
      <point x="958" y="206" type="qcurve" smooth="yes"/>
      <point x="1092" y="293"/>
      <point x="1254" y="564"/>
      <point x="1289" y="721" type="qcurve" smooth="yes"/>
      <point x="1313" y="828"/>
      <point x="1313" y="916" type="qcurve" smooth="yes"/>
      <point x="1313" y="1085"/>
      <point x="1140" y="1289"/>
      <point x="956" y="1289" type="qcurve" smooth="yes"/>
      <point x="789" y="1289"/>
      <point x="661" y="1207" type="qcurve" smooth="yes"/>
      <point x="527" y="1120"/>
      <point x="366" y="850"/>
      <point x="331" y="692" type="qcurve" smooth="yes"/>
      <point x="307" y="585"/>
      <point x="307" y="497" type="qcurve" smooth="yes"/>
      <point x="307" y="328"/>
      <point x="480" y="124"/>
    </contour>
  </outline>
</glyph>
<glyph name="oe" format="2">
  <advance width="1788"/>
  <unicode hex="0153"/>
  <outline>
    <contour>
      <point x="452" y="-20" type="qcurve" smooth="yes"/>
      <point x="335" y="-20"/>
      <point x="164" y="80"/>
      <point x="74" y="258"/>
      <point x="74" y="370" type="qcurve" smooth="yes"/>
      <point x="74" y="436"/>
      <point x="91" y="510" type="qcurve" smooth="yes"/>
      <point x="122" y="648"/>
      <point x="292" y="877"/>
      <point x="533" y="1012"/>
      <point x="666" y="1012" type="qcurve" smooth="yes"/>
      <point x="794" y="1012"/>
      <point x="963" y="897"/>
      <point x="997" y="801" type="qcurve"/>
      <point x="1156" y="1012"/>
      <point x="1391" y="1012" type="qcurve" smooth="yes"/>
      <point x="1510" y="1012"/>
      <point x="1660" y="919"/>
      <point x="1728" y="763"/>
      <point x="1728" y="665" type="qcurve" smooth="yes"/>
      <point x="1728" y="577"/>
      <point x="1701" y="482" type="qcurve"/>
      <point x="1701" y="481" type="line"/>
      <point x="1701" y="476"/>
      <point x="1690" y="442" type="qcurve"/>
      <point x="996" y="442" type="line"/>
      <point x="983" y="385"/>
      <point x="983" y="338" type="qcurve" smooth="yes"/>
      <point x="983" y="238"/>
      <point x="1091" y="116"/>
      <point x="1200" y="116" type="qcurve" smooth="yes"/>
      <point x="1295" y="116"/>
      <point x="1439" y="165"/>
      <point x="1510" y="227" type="qcurve"/>
      <point x="1599" y="137" type="line"/>
      <point x="1502" y="54"/>
      <point x="1312" y="-12"/>
      <point x="1196" y="-12" type="qcurve" smooth="yes"/>
      <point x="1063" y="-12"/>
      <point x="903" y="101"/>
      <point x="871" y="196" type="qcurve"/>
      <point x="790" y="92"/>
      <point x="577" y="-20"/>
    </contour>
    <contour>
      <point x="1586" y="564" type="line"/>
      <point x="1599" y="622"/>
      <point x="1599" y="675" type="qcurve" smooth="yes"/>
      <point x="1599" y="770"/>
      <point x="1498" y="882"/>
      <point x="1385" y="882" type="qcurve" smooth="yes"/>
      <point x="1292" y="882"/>
      <point x="1145" y="795"/>
      <point x="1046" y="652"/>
      <point x="1023" y="564" type="qcurve"/>
    </contour>
    <contour>
      <point x="461" y="118" type="qcurve" smooth="yes"/>
      <point x="570" y="118"/>
      <point x="736" y="223"/>
      <point x="845" y="399"/>
      <point x="870" y="510" type="qcurve" smooth="yes"/>
      <point x="886" y="582"/>
      <point x="886" y="641" type="qcurve" smooth="yes"/>
      <point x="886" y="748"/>
      <point x="777" y="875"/>
      <point x="659" y="875" type="qcurve" smooth="yes"/>
      <point x="550" y="875"/>
      <point x="384" y="768"/>
      <point x="275" y="590"/>
      <point x="250" y="481" type="qcurve" smooth="yes"/>
      <point x="234" y="411"/>
      <point x="234" y="353" type="qcurve" smooth="yes"/>
      <point x="234" y="245"/>
      <point x="343" y="118"/>
    </contour>
  </outline>
</glyph>
<glyph name="tcaron" format="2">
  <advance width="675"/>
  <unicode hex="0165"/>
  <outline>
    <contour>
      <point x="714" y="1104" type="line"/>
      <point x="616" y="1104" type="line"/>
      <point x="823" y="1477" type="line"/>
      <point x="1024" y="1477" type="line"/>
    </contour>
    <contour>
      <point x="340" y="-20" type="qcurve" smooth="yes"/>
      <point x="234" y="-20"/>
      <point x="136" y="80"/>
      <point x="136" y="169" type="qcurve" smooth="yes"/>
      <point x="136" y="212"/>
      <point x="149" y="272" type="qcurve"/>
      <point x="288" y="873" type="line"/>
      <point x="131" y="873" type="line"/>
      <point x="159" y="999" type="line"/>
      <point x="317" y="999" type="line"/>
      <point x="367" y="1224" type="line"/>
      <point x="549" y="1364" type="line"/>
      <point x="466" y="999" type="line"/>
      <point x="721" y="999" type="line"/>
      <point x="693" y="873" type="line"/>
      <point x="438" y="873" type="line"/>
      <point x="293" y="249" type="line" smooth="yes"/>
      <point x="284" y="212"/>
      <point x="284" y="185" type="qcurve" smooth="yes"/>
      <point x="284" y="110"/>
      <point x="354" y="110" type="qcurve" smooth="yes"/>
      <point x="416" y="110"/>
      <point x="484" y="127"/>
      <point x="490" y="131" type="qcurve"/>
      <point x="467" y="7" type="line"/>
      <point x="460" y="3"/>
      <point x="391" y="-20"/>
    </contour>
  </outline>
</glyph>
<glyph name="Uogonek" format="2">
  <advance width="1356"/>
  <unicode hex="0172"/>
  <outline>
    <contour>
      <point x="558" y="-431" type="qcurve" smooth="yes"/>
      <point x="481" y="-431"/>
      <point x="385" y="-343"/>
      <point x="385" y="-266" type="qcurve" smooth="yes"/>
      <point x="385" y="-172"/>
      <point x="451" y="-100" type="qcurve" smooth="yes"/>
      <point x="495" y="-52"/>
      <point x="553" y="-20" type="qcurve"/>
      <point x="358" y="-16"/>
      <point x="172" y="192"/>
      <point x="172" y="359" type="qcurve" smooth="yes"/>
      <point x="172" y="437"/>
      <point x="192" y="525" type="qcurve" smooth="yes"/>
      <point x="396" y="1413" type="line"/>
      <point x="555" y="1413" type="line"/>
      <point x="358" y="556" type="line"/>
      <point x="333" y="451"/>
      <point x="333" y="372" type="qcurve" smooth="yes"/>
      <point x="333" y="254"/>
      <point x="451" y="130"/>
      <point x="580" y="130" type="qcurve" smooth="yes"/>
      <point x="765" y="130"/>
      <point x="982" y="369"/>
      <point x="1029" y="570" type="qcurve" smooth="yes"/>
      <point x="1224" y="1413" type="line"/>
      <point x="1383" y="1413" type="line"/>
      <point x="1178" y="521" type="line" smooth="yes"/>
      <point x="1133" y="327"/>
      <point x="909" y="48"/>
      <point x="735" y="1" type="qcurve"/>
      <point x="657" y="-34"/>
      <point x="516" y="-148"/>
      <point x="498" y="-224" type="qcurve" smooth="yes"/>
      <point x="494" y="-239"/>
      <point x="494" y="-255" type="qcurve" smooth="yes"/>
      <point x="494" y="-286"/>
      <point x="527" y="-317"/>
      <point x="552" y="-317" type="qcurve" smooth="yes"/>
      <point x="636" y="-317"/>
      <point x="697" y="-248" type="qcurve"/>
      <point x="780" y="-323" type="line"/>
      <point x="730" y="-378"/>
      <point x="624" y="-431"/>
    </contour>
  </outline>
</glyph>
<glyph name="uogonek" format="2">
  <advance width="1121"/>
  <unicode hex="0173"/>
  <outline>
    <contour>
      <point x="613" y="-451" type="qcurve" smooth="yes"/>
      <point x="536" y="-451"/>
      <point x="440" y="-363"/>
      <point x="440" y="-286" type="qcurve" smooth="yes"/>
      <point x="440" y="-230"/>
      <point x="491" y="-123"/>
      <point x="546" y="-81" type="qcurve"/>
      <point x="624" y="-24"/>
      <point x="701" y="0" type="qcurve"/>
      <point x="690" y="0" type="line"/>
      <point x="729" y="163" type="line"/>
      <point x="698" y="118"/>
      <point x="592" y="33"/>
      <point x="456" y="-23"/>
      <point x="382" y="-23" type="qcurve" smooth="yes"/>
      <point x="241" y="-23"/>
      <point x="108" y="133"/>
      <point x="108" y="264" type="qcurve" smooth="yes"/>
      <point x="108" y="336"/>
      <point x="126" y="414" type="qcurve" smooth="yes"/>
      <point x="261" y="999" type="line"/>
      <point x="410" y="999" type="line"/>
      <point x="272" y="394" type="line"/>
      <point x="255" y="323"/>
      <point x="255" y="267" type="qcurve" smooth="yes"/>
      <point x="255" y="106"/>
      <point x="402" y="106" type="qcurve" smooth="yes"/>
      <point x="491" y="106"/>
      <point x="653" y="201"/>
      <point x="769" y="354"/>
      <point x="791" y="444" type="qcurve"/>
      <point x="918" y="999" type="line"/>
      <point x="1066" y="999" type="line"/>
      <point x="837" y="0" type="line"/>
      <point x="791" y="0" type="line"/>
      <point x="833" y="-1" type="line"/>
      <point x="800" y="-15"/>
      <point x="693" y="-66"/>
      <point x="569" y="-174"/>
      <point x="553" y="-244" type="qcurve" smooth="yes"/>
      <point x="549" y="-259"/>
      <point x="549" y="-275" type="qcurve" smooth="yes"/>
      <point x="549" y="-306"/>
      <point x="582" y="-337"/>
      <point x="607" y="-337" type="qcurve" smooth="yes"/>
      <point x="691" y="-337"/>
      <point x="752" y="-268" type="qcurve"/>
      <point x="835" y="-343" type="line"/>
      <point x="785" y="-398"/>
      <point x="679" y="-451"/>
    </contour>
  </outline>
</glyph>
<glyph name="florin" format="2">
  <advance width="1054"/>
  <unicode hex="0192"/>
  <outline>
    <contour>
      <point x="-96" y="-457" type="qcurve"/>
      <point x="-76" y="-322" type="line"/>
      <point x="103" y="-322"/>
      <point x="305" y="-162"/>
      <point x="342" y="2" type="qcurve" smooth="yes"/>
      <point x="541" y="867" type="line"/>
      <point x="363" y="867" type="line"/>
      <point x="394" y="999" type="line"/>
      <point x="572" y="999" type="line"/>
      <point x="611" y="1167" type="line"/>
      <point x="646" y="1300"/>
      <point x="830" y="1450"/>
      <point x="932" y="1450" type="qcurve" smooth="yes"/>
      <point x="1037" y="1450"/>
      <point x="1119" y="1370" type="qcurve"/>
      <point x="1017" y="1276" type="line"/>
      <point x="979" y="1315"/>
      <point x="923" y="1315" type="qcurve" smooth="yes"/>
      <point x="868" y="1315"/>
      <point x="762" y="1232"/>
      <point x="744" y="1154" type="qcurve" smooth="yes"/>
      <point x="725" y="1076"/>
      <point x="706" y="999" type="qcurve"/>
      <point x="1011" y="999" type="line"/>
      <point x="981" y="867" type="line"/>
      <point x="675" y="867" type="line"/>
      <point x="473" y="-12" type="line"/>
      <point x="436" y="-164"/>
      <point x="275" y="-362"/>
      <point x="43" y="-457"/>
    </contour>
  </outline>
</glyph>
<glyph name="oogonek" format="2">
  <advance width="1125"/>
  <unicode hex="01EB"/>
  <outline>
    <contour>
      <point x="344" y="-451" type="qcurve" smooth="yes"/>
      <point x="267" y="-451"/>
      <point x="171" y="-363"/>
      <point x="171" y="-286" type="qcurve" smooth="yes"/>
      <point x="171" y="-237"/>
      <point x="212" y="-139"/>
      <point x="256" y="-99" type="qcurve" smooth="yes"/>
      <point x="316" y="-46"/>
      <point x="388" y="-16" type="qcurve"/>
      <point x="236" y="7"/>
      <point x="74" y="219"/>
      <point x="74" y="370" type="qcurve" smooth="yes"/>
      <point x="74" y="468"/>
      <point x="142" y="673"/>
      <point x="208" y="763" type="qcurve" smooth="yes"/>
      <point x="289" y="875"/>
      <point x="527" y="1012"/>
      <point x="668" y="1012" type="qcurve" smooth="yes"/>
      <point x="789" y="1012"/>
      <point x="959" y="908"/>
      <point x="1048" y="731"/>
      <point x="1048" y="620" type="qcurve" smooth="yes"/>
      <point x="1048" y="536"/>
      <point x="991" y="342"/>
      <point x="930" y="251" type="qcurve" smooth="yes"/>
      <point x="858" y="146"/>
      <point x="655" y="7"/>
      <point x="532" y="-14" type="qcurve"/>
      <point x="314" y="-109"/>
      <point x="284" y="-244" type="qcurve"/>
      <point x="280" y="-259"/>
      <point x="280" y="-275" type="qcurve" smooth="yes"/>
      <point x="280" y="-306"/>
      <point x="313" y="-337"/>
      <point x="338" y="-337" type="qcurve" smooth="yes"/>
      <point x="422" y="-337"/>
      <point x="483" y="-268" type="qcurve"/>
      <point x="566" y="-343" type="line"/>
      <point x="516" y="-398"/>
      <point x="410" y="-451"/>
    </contour>
    <contour>
      <point x="461" y="112" type="qcurve" smooth="yes"/>
      <point x="572" y="112"/>
      <point x="738" y="221"/>
      <point x="846" y="401"/>
      <point x="871" y="510" type="qcurve" smooth="yes"/>
      <point x="888" y="581"/>
      <point x="888" y="643" type="qcurve" smooth="yes"/>
      <point x="888" y="751"/>
      <point x="779" y="879"/>
      <point x="660" y="879" type="qcurve" smooth="yes"/>
      <point x="551" y="879"/>
      <point x="385" y="770"/>
      <point x="276" y="591"/>
      <point x="251" y="481" type="qcurve" smooth="yes"/>
      <point x="235" y="409"/>
      <point x="235" y="350" type="qcurve" smooth="yes"/>
      <point x="235" y="241"/>
      <point x="344" y="112"/>
    </contour>
  </outline>
</glyph>
<glyph name="Dz" format="2">
  <advance width="2348"/>
  <unicode hex="01F2"/>
  <outline>
    <contour>
      <point x="463" y="0" type="qcurve" smooth="yes"/>
      <point x="100" y="0" type="line"/>
      <point x="426" y="1413" type="line"/>
      <point x="780" y="1413" type="line" smooth="yes"/>
      <point x="1070" y="1413"/>
      <point x="1359" y="1151"/>
      <point x="1359" y="914" type="qcurve" smooth="yes"/>
      <point x="1359" y="804"/>
      <point x="1330" y="682" type="qcurve" smooth="yes"/>
      <point x="1249" y="347"/>
      <point x="800" y="0"/>
    </contour>
    <contour>
      <point x="462" y="145" type="line" smooth="yes"/>
      <point x="623" y="145"/>
      <point x="917" y="266"/>
      <point x="1030" y="400" type="qcurve"/>
      <point x="1135" y="529"/>
      <point x="1180" y="721" type="qcurve"/>
      <point x="1203" y="824"/>
      <point x="1203" y="905" type="qcurve" smooth="yes"/>
      <point x="1203" y="1271"/>
      <point x="755" y="1271" type="qcurve" smooth="yes"/>
      <point x="553" y="1271" type="line"/>
      <point x="293" y="145" type="line"/>
    </contour>
    <contour>
      <point x="2153" y="0" type="line"/>
      <point x="1367" y="0" type="line"/>
      <point x="1390" y="113" type="line"/>
      <point x="2175" y="877" type="line"/>
      <point x="1598" y="877" type="line"/>
      <point x="1625" y="999" type="line"/>
      <point x="2382" y="999" type="line"/>
      <point x="2357" y="876" type="line"/>
      <point x="1586" y="128" type="line"/>
      <point x="2182" y="128" type="line"/>
    </contour>
  </outline>
</glyph>
<glyph name="dotlessj" format="2">
  <advance width="506"/>
  <unicode hex="0237"/>
  <outline>
    <contour>
      <point x="-129" y="-438" type="qcurve" smooth="yes"/>
      <point x="-200" y="-438"/>
      <point x="-282" y="-405" type="qcurve"/>
      <point x="-229" y="-277" type="line"/>
      <point x="-179" y="-291"/>
      <point x="-126" y="-291" type="qcurve" smooth="yes"/>
      <point x="-60" y="-291"/>
      <point x="10" y="-210"/>
      <point x="21" y="-152" type="qcurve"/>
      <point x="287" y="999" type="line"/>
      <point x="449" y="999" type="line"/>
      <point x="182" y="-158" type="line" smooth="yes"/>
      <point x="162" y="-242"/>
      <point x="82" y="-368"/>
      <point x="-42" y="-438"/>
    </contour>
  </outline>
</glyph>
<glyph name="aturned" format="2">
  <advance width="1065"/>
  <unicode hex="0250"/>
  <outline>
    <contour>
      <point x="453" y="-20" type="qcurve" smooth="yes"/>
      <point x="346" y="-20"/>
      <point x="206" y="53"/>
      <point x="138" y="183"/>
      <point x="138" y="269" type="qcurve" smooth="yes"/>
      <point x="138" y="329"/>
      <point x="152" y="388" type="qcurve" smooth="yes"/>
      <point x="293" y="995" type="line"/>
      <point x="416" y="995" type="line"/>
      <point x="382" y="824" type="line"/>
      <point x="469" y="923"/>
      <point x="656" y="1016"/>
      <point x="777" y="1016" type="qcurve" smooth="yes"/>
      <point x="852" y="1016"/>
      <point x="972" y="959"/>
      <point x="1043" y="853"/>
      <point x="1043" y="779" type="qcurve" smooth="yes"/>
      <point x="1043" y="744"/>
      <point x="1034" y="705" type="qcurve" smooth="yes"/>
      <point x="1001" y="559"/>
      <point x="780" y="422"/>
      <point x="611" y="422" type="qcurve"/>
      <point x="292" y="415" type="line"/>
      <point x="275" y="341"/>
      <point x="275" y="286" type="qcurve" smooth="yes"/>
      <point x="275" y="195"/>
      <point x="372" y="112"/>
      <point x="469" y="112" type="qcurve" smooth="yes"/>
      <point x="560" y="112"/>
      <point x="722" y="199"/>
      <point x="778" y="261" type="qcurve"/>
      <point x="872" y="167" type="line"/>
      <point x="702" y="-20"/>
    </contour>
    <contour>
      <point x="321" y="539" type="qcurve"/>
      <point x="614" y="546" type="line"/>
      <point x="706" y="546"/>
      <point x="861" y="643"/>
      <point x="886" y="734" type="qcurve"/>
      <point x="891" y="757"/>
      <point x="891" y="772" type="qcurve" smooth="yes"/>
      <point x="891" y="881"/>
      <point x="729" y="881" type="qcurve" smooth="yes"/>
      <point x="631" y="881"/>
      <point x="459" y="778"/>
      <point x="341" y="622"/>
    </contour>
  </outline>
</glyph>
<glyph name="ereversed" format="2">
  <advance width="1035"/>
  <unicode hex="0258"/>
  <outline>
    <contour>
      <point x="386" y="-12" type="qcurve" smooth="yes"/>
      <point x="262" y="-12"/>
      <point x="94" y="66"/>
      <point x="34" y="148" type="qcurve"/>
      <point x="146" y="222" type="line"/>
      <point x="185" y="165"/>
      <point x="304" y="118"/>
      <point x="397" y="118" type="qcurve" smooth="yes"/>
      <point x="491" y="118"/>
      <point x="647" y="206"/>
      <point x="754" y="358"/>
      <point x="778" y="456" type="qcurve"/>
      <point x="83" y="456" type="line"/>
      <point x="84" y="481"/>
      <point x="88" y="497" type="qcurve" smooth="yes"/>
      <point x="141" y="726"/>
      <point x="395" y="1012"/>
      <point x="617" y="1012" type="qcurve" smooth="yes"/>
      <point x="735" y="1012"/>
      <point x="888" y="916"/>
      <point x="962" y="750"/>
      <point x="962" y="644" type="qcurve" smooth="yes"/>
      <point x="962" y="542"/>
      <point x="898" y="325"/>
      <point x="836" y="232" type="qcurve" smooth="yes"/>
      <point x="788" y="160"/>
      <point x="655" y="51"/>
      <point x="487" y="-12"/>
    </contour>
    <contour>
      <point x="246" y="566" type="qcurve"/>
      <point x="807" y="580" type="line"/>
      <point x="816" y="627"/>
      <point x="816" y="668" type="qcurve" smooth="yes"/>
      <point x="816" y="730"/>
      <point x="774" y="825"/>
      <point x="682" y="879"/>
      <point x="609" y="879" type="qcurve" smooth="yes"/>
      <point x="514" y="879"/>
      <point x="365" y="797"/>
      <point x="267" y="657"/>
    </contour>
  </outline>
</glyph>
<glyph name="colontriangularhalfmod" format="2">
  <advance width="519"/>
  <unicode hex="02D1"/>
  <outline>
    <contour>
      <point x="279" y="265" type="line"/>
      <point x="48" y="628" type="line"/>
      <point x="451" y="666" type="line"/>
    </contour>
  </outline>
</glyph>
<glyph name="breve" format="2">
  <advance width="836"/>
  <unicode hex="02D8"/>
  <outline>
    <contour>
      <point x="576" y="1143" type="qcurve" smooth="yes"/>
      <point x="460" y="1143"/>
      <point x="313" y="1248"/>
      <point x="313" y="1347" type="qcurve" smooth="yes"/>
      <point x="313" y="1382"/>
      <point x="321" y="1413" type="qcurve"/>
      <point x="453" y="1413" type="line"/>
      <point x="448" y="1390"/>
      <point x="448" y="1373" type="qcurve" smooth="yes"/>
      <point x="448" y="1315"/>
      <point x="523" y="1257"/>
      <point x="579" y="1257" type="qcurve" smooth="yes"/>
      <point x="655" y="1257"/>
      <point x="779" y="1346"/>
      <point x="798" y="1413" type="qcurve"/>
      <point x="930" y="1413" type="line"/>
      <point x="897" y="1274"/>
      <point x="704" y="1143"/>
    </contour>
  </outline>
</glyph>
<glyph name="ring" format="2">
  <advance width="639"/>
  <unicode hex="02DA"/>
  <outline>
    <contour>
      <point x="463" y="1079" type="qcurve" smooth="yes"/>
      <point x="383" y="1079"/>
      <point x="292" y="1176"/>
      <point x="292" y="1246" type="qcurve" smooth="yes"/>
      <point x="292" y="1326"/>
      <point x="346" y="1392" type="qcurve" smooth="yes"/>
      <point x="381" y="1435"/>
      <point x="477" y="1486"/>
      <point x="532" y="1486" type="qcurve" smooth="yes"/>
      <point x="610" y="1486"/>
      <point x="704" y="1388"/>
      <point x="704" y="1319" type="qcurve" smooth="yes"/>
      <point x="704" y="1256"/>
      <point x="632" y="1139"/>
      <point x="565" y="1104" type="qcurve" smooth="yes"/>
      <point x="515" y="1079"/>
    </contour>
    <contour>
      <point x="473" y="1182" type="qcurve" smooth="yes"/>
      <point x="520" y="1182"/>
      <point x="598" y="1253"/>
      <point x="602" y="1310" type="qcurve"/>
      <point x="602" y="1339"/>
      <point x="583" y="1359" type="qcurve" smooth="yes"/>
      <point x="560" y="1382"/>
      <point x="522" y="1382" type="qcurve" smooth="yes"/>
      <point x="468" y="1382"/>
      <point x="397" y="1310"/>
      <point x="397" y="1256" type="qcurve" smooth="yes"/>
      <point x="397" y="1222"/>
      <point x="439" y="1182"/>
    </contour>
  </outline>
</glyph>
<glyph name="tilde" format="2">
  <advance width="1008"/>
  <unicode hex="02DC"/>
  <outline>
    <contour>
      <point x="804" y="1149" type="qcurve" smooth="yes"/>
      <point x="750" y="1149"/>
      <point x="687" y="1201"/>
      <point x="661" y="1245" type="qcurve" smooth="yes"/>
      <point x="641" y="1277"/>
      <point x="610" y="1306"/>
      <point x="589" y="1306" type="qcurve" smooth="yes"/>
      <point x="549" y="1306"/>
      <point x="490" y="1226"/>
      <point x="476" y="1169" type="qcurve"/>
      <point x="375" y="1169" type="line"/>
      <point x="400" y="1283"/>
      <point x="507" y="1419"/>
      <point x="588" y="1419" type="qcurve" smooth="yes"/>
      <point x="647" y="1419"/>
      <point x="713" y="1365"/>
      <point x="738" y="1319" type="qcurve"/>
      <point x="757" y="1288"/>
      <point x="785" y="1260"/>
      <point x="805" y="1260" type="qcurve" smooth="yes"/>
      <point x="847" y="1260"/>
      <point x="908" y="1346"/>
      <point x="925" y="1413" type="qcurve"/>
      <point x="1031" y="1413" type="line"/>
      <point x="970" y="1149"/>
    </contour>
  </outline>
</glyph>
<glyph name="uni02F5" format="2">
  <advance width="1235"/>
  <unicode hex="02F5"/>
  <outline>
    <contour>
      <point x="795" y="717" type="line"/>
      <point x="628" y="717" type="line"/>
      <point x="385" y="999" type="line"/>
      <point x="582" y="999" type="line"/>
    </contour>
    <contour>
      <point x="1032" y="717" type="line"/>
      <point x="865" y="717" type="line"/>
      <point x="622" y="999" type="line"/>
      <point x="820" y="999" type="line"/>
    </contour>
  </outline>
</glyph>
<glyph name="uni02F6" format="2">
  <advance width="1234"/>
  <unicode hex="02F6"/>
  <outline>
    <contour>
      <point x="368" y="717" type="line"/>
      <point x="202" y="717" type="line"/>
      <point x="415" y="999" type="line"/>
      <point x="612" y="999" type="line"/>
    </contour>
    <contour>
      <point x="599" y="717" type="line"/>
      <point x="433" y="717" type="line"/>
      <point x="646" y="999" type="line"/>
      <point x="843" y="999" type="line"/>
    </contour>
  </outline>
</glyph>
<glyph name="gravecmb" format="2">
  <unicode hex="0300"/>
  <anchor x="-34" y="999" name="_t.ringcmb_1"/>
  <outline>
    <contour>
      <point x="73" y="1122" type="line"/>
      <point x="-75" y="1122" type="line"/>
      <point x="-266" y="1413" type="line"/>
      <point x="-77" y="1413" type="line"/>
    </contour>
  </outline>
</glyph>
<glyph name="acutecmb" format="2">
  <unicode hex="0301"/>
  <anchor x="-217" y="999" name="_t.ringcmb_1"/>
  <outline>
    <contour>
      <point x="-188" y="1124" type="line"/>
      <point x="-327" y="1124" type="line"/>
      <point x="-42" y="1413" type="line"/>
      <point x="155" y="1413" type="line"/>
    </contour>
  </outline>
</glyph>
<glyph name="macroncmb" format="2">
  <unicode hex="0304"/>
  <anchor x="-321" y="999" name="_t.ringcmb_1"/>
  <outline>
    <contour>
      <point x="-6" y="1183" type="line"/>
      <point x="-547" y="1183" type="line"/>
      <point x="-518" y="1308" type="line"/>
      <point x="23" y="1308" type="line"/>
    </contour>
  </outline>
</glyph>
<glyph name="dotaccentcmb" format="2">
  <unicode hex="0307"/>
  <anchor x="-146" y="999" name="_t.ringcmb_1"/>
  <outline>
    <contour>
      <point x="-10" y="1221" type="line"/>
      <point x="-183" y="1221" type="line"/>
      <point x="-138" y="1413" type="line"/>
      <point x="34" y="1413" type="line"/>
    </contour>
  </outline>
</glyph>
<glyph name="dieresiscmb" format="2">
  <unicode hex="0308"/>
  <anchor x="-301" y="999" name="_t.ringcmb_1"/>
  <outline>
    <contour>
      <point x="-335" y="1221" type="line"/>
      <point x="-503" y="1221" type="line"/>
      <point x="-459" y="1413" type="line"/>
      <point x="-290" y="1413" type="line"/>
    </contour>
    <contour>
      <point x="2" y="1221" type="line"/>
      <point x="-167" y="1221" type="line"/>
      <point x="-123" y="1413" type="line"/>
      <point x="46" y="1413" type="line"/>
    </contour>
  </outline>
</glyph>
<glyph name="ringcmb" format="2">
  <unicode hex="030A"/>
  <anchor x="-205" y="999" name="_t.ringcmb_1"/>
  <outline>
    <contour>
      <point x="-175" y="1079" type="qcurve" smooth="yes"/>
      <point x="-255" y="1079"/>
      <point x="-346" y="1176"/>
      <point x="-346" y="1246" type="qcurve" smooth="yes"/>
      <point x="-346" y="1326"/>
      <point x="-292" y="1392" type="qcurve" smooth="yes"/>
      <point x="-257" y="1435"/>
      <point x="-161" y="1486"/>
      <point x="-106" y="1486" type="qcurve" smooth="yes"/>
      <point x="-28" y="1486"/>
      <point x="66" y="1388"/>
      <point x="66" y="1319" type="qcurve" smooth="yes"/>
      <point x="66" y="1256"/>
      <point x="-6" y="1139"/>
      <point x="-73" y="1104" type="qcurve" smooth="yes"/>
      <point x="-123" y="1079"/>
    </contour>
    <contour>
      <point x="-165" y="1182" type="qcurve" smooth="yes"/>
      <point x="-118" y="1182"/>
      <point x="-40" y="1253"/>
      <point x="-36" y="1310" type="qcurve"/>
      <point x="-36" y="1339"/>
      <point x="-55" y="1359" type="qcurve" smooth="yes"/>
      <point x="-78" y="1382"/>
      <point x="-116" y="1382" type="qcurve" smooth="yes"/>
      <point x="-170" y="1382"/>
      <point x="-241" y="1310"/>
      <point x="-241" y="1256" type="qcurve" smooth="yes"/>
      <point x="-241" y="1222"/>
      <point x="-199" y="1182"/>
    </contour>
  </outline>
</glyph>
<glyph name="dblgravecmb" format="2">
  <unicode hex="030F"/>
  <anchor x="-206" y="999" name="_t.ringcmb_1"/>
  <outline>
    <contour>
      <point x="-261" y="1119" type="line"/>
      <point x="-427" y="1119" type="line"/>
      <point x="-617" y="1413" type="line"/>
      <point x="-410" y="1413" type="line"/>
    </contour>
    <contour>
      <point x="72" y="1119" type="line"/>
      <point x="-96" y="1119" type="line"/>
      <point x="-285" y="1413" type="line"/>
      <point x="-78" y="1413" type="line"/>
    </contour>
  </outline>
</glyph>
<glyph name="commaturnedabovecmb" format="2">
  <unicode hex="0312"/>
  <anchor x="-224" y="999" name="_t.ringcmb_1"/>
  <outline>
    <contour>
      <point x="-69" y="1123" type="line"/>
      <point x="-284" y="1123" type="line"/>
      <point x="21" y="1423" type="line"/>
      <point x="132" y="1423" type="line"/>
    </contour>
  </outline>
</glyph>
<glyph name="horncmb" format="2">
  <unicode hex="031B"/>
  <anchor x="-122" y="999" name="_m.horncmb_3"/>
  <outline>
    <contour>
      <point x="-179" y="999" type="line"/>
      <point x="-289" y="999" type="line"/>
      <point x="-71" y="1413" type="line"/>
      <point x="145" y="1413" type="line"/>
    </contour>
  </outline>
</glyph>
<glyph name="cedillacmb" format="2">
  <unicode hex="0327"/>
  <anchor x="-384" y="0" name="_b.uni0326"/>
  <anchor x="-384" y="0" name="_b.uni0326_2"/>
  <anchor x="-520" y="-500" name="b.uni0326_2"/>
  <outline>
    <contour>
      <point x="-518" y="-504" type="qcurve" smooth="yes"/>
      <point x="-584" y="-504"/>
      <point x="-670" y="-427"/>
      <point x="-681" y="-373" type="qcurve"/>
      <point x="-574" y="-336" type="line"/>
      <point x="-574" y="-341" type="line" smooth="yes"/>
      <point x="-574" y="-366"/>
      <point x="-541" y="-401"/>
      <point x="-510" y="-401" type="qcurve" smooth="yes"/>
      <point x="-462" y="-401"/>
      <point x="-386" y="-337"/>
      <point x="-376" y="-291" type="qcurve" smooth="yes"/>
      <point x="-374" y="-284"/>
      <point x="-374" y="-271" type="qcurve" smooth="yes"/>
      <point x="-374" y="-232"/>
      <point x="-449" y="-180"/>
      <point x="-526" y="-180" type="qcurve" smooth="yes"/>
      <point x="-574" y="-180" type="line"/>
      <point x="-440" y="0" type="line"/>
      <point x="-317" y="0" type="line"/>
      <point x="-421" y="-117" type="line"/>
      <point x="-345" y="-120"/>
      <point x="-267" y="-200"/>
      <point x="-267" y="-262" type="qcurve" smooth="yes"/>
      <point x="-267" y="-338"/>
      <point x="-319" y="-405" type="qcurve" smooth="yes"/>
      <point x="-354" y="-449"/>
      <point x="-456" y="-504"/>
    </contour>
  </outline>
</glyph>
<glyph name="pi" format="2">
  <advance width="994"/>
  <unicode hex="03C0"/>
  <outline>
    <contour>
      <point x="720" y="-20" type="qcurve" smooth="yes"/>
      <point x="638" y="-20"/>
      <point x="550" y="87"/>
      <point x="550" y="161" type="qcurve" smooth="yes"/>
      <point x="550" y="189"/>
      <point x="556" y="217" type="qcurve" smooth="yes"/>
      <point x="702" y="849" type="line"/>
      <point x="421" y="849" type="line"/>
      <point x="225" y="0" type="line"/>
      <point x="75" y="0" type="line"/>
      <point x="270" y="849" type="line"/>
      <point x="188" y="849" type="line"/>
      <point x="222" y="999" type="line"/>
      <point x="969" y="999" type="line"/>
      <point x="935" y="849" type="line"/>
      <point x="853" y="849" type="line"/>
      <point x="705" y="209" type="line" smooth="yes"/>
      <point x="698" y="181"/>
      <point x="698" y="159" type="qcurve" smooth="yes"/>
      <point x="698" y="106"/>
      <point x="743" y="106" type="qcurve" smooth="yes"/>
      <point x="769" y="106"/>
      <point x="806" y="128" type="qcurve"/>
      <point x="830" y="7" type="line"/>
      <point x="781" y="-20"/>
    </contour>
  </outline>
</glyph>
<glyph name="afii10053" format="2">
  <advance width="1424"/>
  <unicode hex="0404"/>
  <outline>
    <contour>
      <point x="651" y="-20" type="qcurve" smooth="yes"/>
      <point x="479" y="-20"/>
      <point x="256" y="110"/>
      <point x="147" y="339"/>
      <point x="147" y="488" type="qcurve" smooth="yes"/>
      <point x="147" y="629"/>
      <point x="240" y="948"/>
      <point x="328" y="1084" type="qcurve" smooth="yes"/>
      <point x="394" y="1187"/>
      <point x="581" y="1346"/>
      <point x="819" y="1436"/>
      <point x="962" y="1436" type="qcurve" smooth="yes"/>
      <point x="1163" y="1436"/>
      <point x="1419" y="1240"/>
      <point x="1459" y="1053" type="qcurve"/>
      <point x="1305" y="1007" type="line"/>
      <point x="1297" y="1155"/>
      <point x="1104" y="1289"/>
      <point x="949" y="1289" type="qcurve" smooth="yes"/>
      <point x="793" y="1289"/>
      <point x="551" y="1147"/>
      <point x="387" y="910"/>
      <point x="345" y="764" type="qcurve"/>
      <point x="976" y="771" type="line"/>
      <point x="949" y="654" type="line"/>
      <point x="316" y="647" type="line"/>
      <point x="303" y="573"/>
      <point x="303" y="500" type="qcurve" smooth="yes"/>
      <point x="303" y="326"/>
      <point x="478" y="126"/>
      <point x="662" y="126" type="qcurve" smooth="yes"/>
      <point x="983" y="126"/>
      <point x="1166" y="425" type="qcurve"/>
      <point x="1302" y="351" type="line"/>
      <point x="1174" y="159"/>
      <point x="837" y="-20"/>
    </contour>
  </outline>
</glyph>
<glyph name="afii10058" format="2">
  <advance width="2013"/>
  <unicode hex="0409"/>
  <outline>
    <contour>
      <point x="111" y="-20" type="qcurve" smooth="yes"/>
      <point x="19" y="-20"/>
      <point x="-54" y="26" type="qcurve"/>
      <point x="32" y="166" type="line"/>
      <point x="85" y="144"/>
      <point x="127" y="144" type="qcurve" smooth="yes"/>
      <point x="193" y="144"/>
      <point x="262" y="264" type="qcurve"/>
      <point x="335" y="394"/>
      <point x="445" y="730"/>
      <point x="480" y="888" type="qcurve"/>
      <point x="602" y="1413" type="line"/>
      <point x="1447" y="1413" type="line"/>
      <point x="1300" y="776" type="line"/>
      <point x="1534" y="776" type="line" smooth="yes"/>
      <point x="1647" y="776"/>
      <point x="1816" y="711"/>
      <point x="1911" y="579"/>
      <point x="1911" y="481" type="qcurve" smooth="yes"/>
      <point x="1911" y="397"/>
      <point x="1848" y="235"/>
      <point x="1797" y="174" type="qcurve"/>
      <point x="1720" y="87"/>
      <point x="1498" y="0"/>
      <point x="1365" y="0" type="qcurve" smooth="yes"/>
      <point x="964" y="0" type="line"/>
      <point x="1259" y="1278" type="line"/>
      <point x="728" y="1278" type="line"/>
      <point x="634" y="875" type="line"/>
      <point x="581" y="642"/>
      <point x="465" y="276"/>
      <point x="257" y="-20"/>
    </contour>
    <contour>
      <point x="1386" y="141" type="line" smooth="yes"/>
      <point x="1527" y="141"/>
      <point x="1720" y="279"/>
      <point x="1750" y="406" type="qcurve" smooth="yes"/>
      <point x="1758" y="443"/>
      <point x="1758" y="469" type="qcurve" smooth="yes"/>
      <point x="1758" y="553"/>
      <point x="1630" y="635"/>
      <point x="1512" y="635" type="qcurve" smooth="yes"/>
      <point x="1268" y="635" type="line"/>
      <point x="1153" y="141" type="line"/>
    </contour>
  </outline>
</glyph>
<glyph name="afii10059" format="2">
  <advance width="2020"/>
  <unicode hex="040A"/>
  <outline>
    <contour>
      <point x="1372" y="0" type="qcurve" smooth="yes"/>
      <point x="970" y="0" type="line"/>
      <point x="1116" y="639" type="line"/>
      <point x="401" y="639" type="line"/>
      <point x="254" y="0" type="line"/>
      <point x="97" y="0" type="line"/>
      <point x="423" y="1413" type="line"/>
      <point x="580" y="1413" type="line"/>
      <point x="433" y="774" type="line"/>
      <point x="1148" y="774" type="line"/>
      <point x="1295" y="1413" type="line"/>
      <point x="1454" y="1413" type="line"/>
      <point x="1307" y="776" type="line"/>
      <point x="1541" y="776" type="line" smooth="yes"/>
      <point x="1654" y="776"/>
      <point x="1823" y="711"/>
      <point x="1918" y="579"/>
      <point x="1918" y="481" type="qcurve" smooth="yes"/>
      <point x="1918" y="397"/>
      <point x="1855" y="235"/>
      <point x="1804" y="174" type="qcurve"/>
      <point x="1727" y="87"/>
      <point x="1505" y="0"/>
    </contour>
    <contour>
      <point x="1393" y="141" type="line" smooth="yes"/>
      <point x="1533" y="141"/>
      <point x="1725" y="279"/>
      <point x="1755" y="406" type="qcurve" smooth="yes"/>
      <point x="1763" y="443"/>
      <point x="1763" y="470" type="qcurve" smooth="yes"/>
      <point x="1763" y="553"/>
      <point x="1636" y="635"/>
      <point x="1519" y="635" type="qcurve" smooth="yes"/>
      <point x="1275" y="635" type="line"/>
      <point x="1160" y="141" type="line"/>
    </contour>
  </outline>
</glyph>
<glyph name="afii10060" format="2">
  <advance width="1652"/>
  <unicode hex="040B"/>
  <outline>
    <contour>
      <point x="1410" y="0" type="line"/>
      <point x="1251" y="0" type="line"/>
      <point x="1345" y="408" type="line" smooth="yes"/>
      <point x="1372" y="524"/>
      <point x="1372" y="607" type="qcurve" smooth="yes"/>
      <point x="1372" y="729"/>
      <point x="1251" y="851"/>
      <point x="1123" y="851" type="qcurve" smooth="yes"/>
      <point x="1011" y="851"/>
      <point x="812" y="764"/>
      <point x="747" y="699" type="qcurve"/>
      <point x="582" y="0" type="line"/>
      <point x="424" y="0" type="line"/>
      <point x="719" y="1284" type="line"/>
      <point x="240" y="1284" type="line"/>
      <point x="271" y="1413" type="line"/>
      <point x="1385" y="1413" type="line"/>
      <point x="1355" y="1284" type="line"/>
      <point x="878" y="1284" type="line"/>
      <point x="782" y="880" type="line"/>
      <point x="927" y="1001"/>
      <point x="1134" y="1001" type="qcurve" smooth="yes"/>
      <point x="1335" y="1001"/>
      <point x="1527" y="792"/>
      <point x="1527" y="607" type="qcurve" smooth="yes"/>
      <point x="1527" y="506"/>
      <point x="1500" y="389" type="qcurve" smooth="yes"/>
    </contour>
  </outline>
</glyph>
<glyph name="afii10025" format="2">
  <advance width="1108"/>
  <unicode hex="0417"/>
  <outline>
    <contour>
      <point x="408" y="-20" type="qcurve" smooth="yes"/>
      <point x="264" y="-20"/>
      <point x="50" y="97"/>
      <point x="17" y="216" type="qcurve"/>
      <point x="160" y="288" type="line"/>
      <point x="177" y="196"/>
      <point x="318" y="112"/>
      <point x="415" y="112" type="qcurve" smooth="yes"/>
      <point x="499" y="112"/>
      <point x="665" y="180"/>
      <point x="791" y="315"/>
      <point x="817" y="417" type="qcurve" smooth="yes"/>
      <point x="825" y="449"/>
      <point x="825" y="483" type="qcurve" smooth="yes"/>
      <point x="825" y="551"/>
      <point x="756" y="638"/>
      <point x="638" y="680"/>
      <point x="563" y="680" type="qcurve" smooth="yes"/>
      <point x="390" y="680" type="line"/>
      <point x="422" y="820" type="line"/>
      <point x="589" y="820" type="line" smooth="yes"/>
      <point x="694" y="820"/>
      <point x="874" y="947"/>
      <point x="904" y="1065" type="qcurve"/>
      <point x="912" y="1100"/>
      <point x="912" y="1127" type="qcurve" smooth="yes"/>
      <point x="912" y="1212"/>
      <point x="799" y="1297"/>
      <point x="716" y="1297" type="qcurve" smooth="yes"/>
      <point x="618" y="1297"/>
      <point x="430" y="1176"/>
      <point x="399" y="1067" type="qcurve"/>
      <point x="248" y="1081" type="line"/>
      <point x="295" y="1254"/>
      <point x="564" y="1434"/>
      <point x="722" y="1434" type="qcurve" smooth="yes"/>
      <point x="818" y="1434"/>
      <point x="970" y="1367"/>
      <point x="1058" y="1239"/>
      <point x="1058" y="1148" type="qcurve" smooth="yes"/>
      <point x="1058" y="1004"/>
      <point x="962" y="882" type="qcurve"/>
      <point x="899" y="804"/>
      <point x="799" y="756" type="qcurve"/>
      <point x="880" y="721"/>
      <point x="976" y="581"/>
      <point x="976" y="480" type="qcurve" smooth="yes"/>
      <point x="976" y="436"/>
      <point x="963" y="376" type="qcurve"/>
      <point x="930" y="242"/>
      <point x="765" y="67"/>
      <point x="535" y="-20"/>
    </contour>
  </outline>
</glyph>
<glyph name="afii10026" format="2">
  <advance width="1425"/>
  <unicode hex="0418"/>
  <outline>
    <contour>
      <point x="1095" y="0" type="line"/>
      <point x="936" y="0" type="line"/>
      <point x="1221" y="1230" type="line"/>
      <point x="326" y="0" type="line"/>
      <point x="100" y="0" type="line"/>
      <point x="426" y="1413" type="line"/>
      <point x="583" y="1413" type="line"/>
      <point x="300" y="185" type="line"/>
      <point x="1198" y="1413" type="line"/>
      <point x="1420" y="1413" type="line"/>
    </contour>
  </outline>
</glyph>
<glyph name="afii10028" format="2">
  <advance width="1268"/>
  <unicode hex="041A"/>
  <outline>
    <contour>
      <point x="1082" y="0" type="line"/>
      <point x="895" y="0" type="line"/>
      <point x="825" y="570" type="line" smooth="yes"/>
      <point x="822" y="598"/>
      <point x="787" y="660"/>
      <point x="721" y="705"/>
      <point x="671" y="705" type="qcurve" smooth="yes"/>
      <point x="419" y="705" type="line"/>
      <point x="258" y="0" type="line"/>
      <point x="100" y="0" type="line"/>
      <point x="426" y="1413" type="line"/>
      <point x="583" y="1413" type="line"/>
      <point x="450" y="839" type="line"/>
      <point x="615" y="839" type="line"/>
      <point x="1130" y="1413" type="line"/>
      <point x="1335" y="1413" type="line"/>
      <point x="778" y="816" type="line"/>
      <point x="839" y="816"/>
      <point x="928" y="753"/>
      <point x="979" y="671"/>
      <point x="983" y="637" type="qcurve"/>
    </contour>
  </outline>
</glyph>
<glyph name="afii10029" format="2">
  <advance width="1325"/>
  <unicode hex="041B"/>
  <outline>
    <contour>
      <point x="1146" y="0" type="line"/>
      <point x="984" y="0" type="line"/>
      <point x="830" y="1203" type="line"/>
      <point x="116" y="0" type="line"/>
      <point x="-54" y="0" type="line"/>
      <point x="802" y="1413" type="line"/>
      <point x="939" y="1413" type="line"/>
    </contour>
  </outline>
</glyph>
<glyph name="afii10037" format="2">
  <advance width="1125"/>
  <unicode hex="0423"/>
  <outline>
    <contour>
      <point x="324" y="0" type="line"/>
      <point x="150" y="0" type="line"/>
      <point x="454" y="457" type="line"/>
      <point x="281" y="1413" type="line"/>
      <point x="450" y="1413" type="line"/>
      <point x="572" y="624" type="line"/>
      <point x="1089" y="1413" type="line"/>
      <point x="1270" y="1413" type="line"/>
    </contour>
  </outline>
</glyph>
<glyph name="afii10042" format="2">
  <advance width="1751"/>
  <unicode hex="0428"/>
  <outline>
    <contour>
      <point x="1422" y="0" type="line"/>
      <point x="100" y="0" type="line"/>
      <point x="426" y="1413" type="line"/>
      <point x="583" y="1413" type="line"/>
      <point x="288" y="137" type="line"/>
      <point x="709" y="137" type="line"/>
      <point x="1005" y="1413" type="line"/>
      <point x="1164" y="1413" type="line"/>
      <point x="868" y="137" type="line"/>
      <point x="1295" y="137" type="line"/>
      <point x="1590" y="1413" type="line"/>
      <point x="1747" y="1413" type="line"/>
    </contour>
  </outline>
</glyph>
<glyph name="afii10043" format="2">
  <advance width="1769"/>
  <unicode hex="0429"/>
  <outline>
    <contour>
      <point x="1503" y="-253" type="line"/>
      <point x="1348" y="-253" type="line"/>
      <point x="1406" y="0" type="line"/>
      <point x="97" y="0" type="line"/>
      <point x="423" y="1413" type="line"/>
      <point x="580" y="1413" type="line"/>
      <point x="285" y="137" type="line"/>
      <point x="706" y="137" type="line"/>
      <point x="1001" y="1413" type="line"/>
      <point x="1160" y="1413" type="line"/>
      <point x="865" y="137" type="line"/>
      <point x="1291" y="137" type="line"/>
      <point x="1587" y="1413" type="line"/>
      <point x="1744" y="1413" type="line"/>
      <point x="1449" y="137" type="line"/>
      <point x="1592" y="137" type="line"/>
    </contour>
  </outline>
</glyph>
<glyph name="afii10047" format="2">
  <advance width="1422"/>
  <unicode hex="042D"/>
  <outline>
    <contour>
      <point x="554" y="-20" type="qcurve" smooth="yes"/>
      <point x="358" y="-20"/>
      <point x="98" y="173"/>
      <point x="59" y="365" type="qcurve"/>
      <point x="212" y="411" type="line"/>
      <point x="248" y="126"/>
      <point x="565" y="126" type="qcurve" smooth="yes"/>
      <point x="722" y="126"/>
      <point x="965" y="268"/>
      <point x="1132" y="509"/>
      <point x="1176" y="661" type="qcurve"/>
      <point x="543" y="654" type="line"/>
      <point x="570" y="771" type="line"/>
      <point x="1202" y="778" type="line"/>
      <point x="1215" y="856"/>
      <point x="1215" y="918" type="qcurve" smooth="yes"/>
      <point x="1215" y="1088"/>
      <point x="1042" y="1289"/>
      <point x="860" y="1289" type="qcurve" smooth="yes"/>
      <point x="757" y="1289"/>
      <point x="566" y="1228"/>
      <point x="408" y="1098"/>
      <point x="353" y="993" type="qcurve"/>
      <point x="218" y="1067" type="line"/>
      <point x="348" y="1257"/>
      <point x="683" y="1436"/>
      <point x="869" y="1436" type="qcurve" smooth="yes"/>
      <point x="1041" y="1436"/>
      <point x="1263" y="1306"/>
      <point x="1371" y="1077"/>
      <point x="1371" y="928" type="qcurve" smooth="yes"/>
      <point x="1371" y="787"/>
      <point x="1280" y="470"/>
      <point x="1190" y="331" type="qcurve" smooth="yes"/>
      <point x="1122" y="227"/>
      <point x="935" y="70"/>
      <point x="697" y="-20"/>
    </contour>
  </outline>
</glyph>
<glyph name="afii10048" format="2">
  <advance width="1890"/>
  <unicode hex="042E"/>
  <outline>
    <contour>
      <point x="1023" y="-20" type="qcurve" smooth="yes"/>
      <point x="852" y="-20"/>
      <point x="629" y="109"/>
      <point x="520" y="338"/>
      <point x="520" y="486" type="qcurve" smooth="yes"/>
      <point x="520" y="560"/>
      <point x="534" y="646" type="qcurve"/>
      <point x="401" y="639" type="line"/>
      <point x="254" y="0" type="line"/>
      <point x="97" y="0" type="line"/>
      <point x="423" y="1413" type="line"/>
      <point x="580" y="1413" type="line"/>
      <point x="433" y="774" type="line"/>
      <point x="564" y="781" type="line"/>
      <point x="616" y="961"/>
      <point x="825" y="1257"/>
      <point x="987" y="1349" type="qcurve"/>
      <point x="1142" y="1434"/>
      <point x="1336" y="1434" type="qcurve" smooth="yes"/>
      <point x="1509" y="1434"/>
      <point x="1732" y="1304"/>
      <point x="1840" y="1075"/>
      <point x="1840" y="926" type="qcurve" smooth="yes"/>
      <point x="1840" y="768"/>
      <point x="1742" y="455"/>
      <point x="1661" y="331" type="qcurve" smooth="yes"/>
      <point x="1555" y="170"/>
      <point x="1230" y="-20"/>
    </contour>
    <contour>
      <point x="1033" y="126" type="qcurve" smooth="yes"/>
      <point x="1199" y="126"/>
      <point x="1328" y="208" type="qcurve"/>
      <point x="1462" y="295"/>
      <point x="1626" y="563"/>
      <point x="1662" y="721" type="qcurve" smooth="yes"/>
      <point x="1685" y="822"/>
      <point x="1685" y="911" type="qcurve" smooth="yes"/>
      <point x="1685" y="1081"/>
      <point x="1509" y="1287"/>
      <point x="1324" y="1287" type="qcurve" smooth="yes"/>
      <point x="1159" y="1287"/>
      <point x="1031" y="1206" type="qcurve"/>
      <point x="897" y="1119"/>
      <point x="734" y="850"/>
      <point x="698" y="692" type="qcurve" smooth="yes"/>
      <point x="674" y="586"/>
      <point x="674" y="499" type="qcurve" smooth="yes"/>
      <point x="674" y="330"/>
      <point x="849" y="126"/>
    </contour>
  </outline>
</glyph>
<glyph name="afii10049" format="2">
  <advance width="1219"/>
  <unicode hex="042F"/>
  <outline>
    <contour>
      <point x="887" y="-2" type="line"/>
      <point x="728" y="-2" type="line"/>
      <point x="872" y="632" type="line"/>
      <point x="637" y="632" type="line"/>
      <point x="144" y="-2" type="line"/>
      <point x="-41" y="-2" type="line"/>
      <point x="485" y="651" type="line"/>
      <point x="379" y="694"/>
      <point x="279" y="859"/>
      <point x="279" y="960" type="qcurve" smooth="yes"/>
      <point x="279" y="1007"/>
      <point x="292" y="1067" type="qcurve"/>
      <point x="335" y="1246"/>
      <point x="612" y="1411"/>
      <point x="813" y="1411" type="qcurve" smooth="yes"/>
      <point x="1211" y="1411" type="line"/>
    </contour>
    <contour>
      <point x="906" y="778" type="line"/>
      <point x="1018" y="1271" type="line"/>
      <point x="766" y="1271" type="line" smooth="yes"/>
      <point x="645" y="1271"/>
      <point x="463" y="1153"/>
      <point x="431" y="1034" type="qcurve"/>
      <point x="423" y="997"/>
      <point x="423" y="969" type="qcurve" smooth="yes"/>
      <point x="423" y="878"/>
      <point x="544" y="783"/>
      <point x="641" y="778" type="qcurve"/>
    </contour>
  </outline>
</glyph>
<glyph name="afii10067" format="2">
  <advance width="1149"/>
  <unicode hex="0432"/>
  <outline>
    <contour>
      <point x="483" y="-20" type="qcurve" smooth="yes"/>
      <point x="289" y="-20"/>
      <point x="111" y="136"/>
      <point x="111" y="291" type="qcurve" smooth="yes"/>
      <point x="111" y="377"/>
      <point x="136" y="484" type="qcurve" smooth="yes"/>
      <point x="251" y="987" type="line" smooth="yes"/>
      <point x="282" y="1125"/>
      <point x="417" y="1325"/>
      <point x="629" y="1434"/>
      <point x="776" y="1434" type="qcurve" smooth="yes"/>
      <point x="878" y="1434"/>
      <point x="1033" y="1378"/>
      <point x="1120" y="1261"/>
      <point x="1120" y="1169" type="qcurve" smooth="yes"/>
      <point x="1120" y="1124"/>
      <point x="1108" y="1070" type="qcurve" smooth="yes"/>
      <point x="1093" y="1003"/>
      <point x="959" y="845"/>
      <point x="847" y="807" type="qcurve"/>
      <point x="938" y="795"/>
      <point x="1025" y="648"/>
      <point x="1025" y="546" type="qcurve" smooth="yes"/>
      <point x="1025" y="454"/>
      <point x="957" y="261"/>
      <point x="903" y="189" type="qcurve" smooth="yes"/>
      <point x="823" y="83"/>
      <point x="605" y="-20"/>
    </contour>
    <contour>
      <point x="478" y="112" type="qcurve" smooth="yes"/>
      <point x="638" y="112"/>
      <point x="819" y="292"/>
      <point x="857" y="458" type="qcurve" smooth="yes"/>
      <point x="868" y="503"/>
      <point x="868" y="547" type="qcurve" smooth="yes"/>
      <point x="868" y="614"/>
      <point x="815" y="698"/>
      <point x="723" y="738"/>
      <point x="666" y="738" type="qcurve" smooth="yes"/>
      <point x="604" y="738"/>
      <point x="495" y="711"/>
      <point x="445" y="677" type="qcurve"/>
      <point x="467" y="817" type="line"/>
      <point x="518" y="843"/>
      <point x="646" y="863"/>
      <point x="716" y="865" type="qcurve"/>
      <point x="810" y="871"/>
      <point x="933" y="1014"/>
      <point x="952" y="1096" type="qcurve" smooth="yes"/>
      <point x="960" y="1133"/>
      <point x="960" y="1160" type="qcurve" smooth="yes"/>
      <point x="960" y="1297"/>
      <point x="776" y="1297" type="qcurve" smooth="yes"/>
      <point x="768" y="1297" type="line" smooth="yes"/>
      <point x="616" y="1297"/>
      <point x="439" y="1146"/>
      <point x="402" y="980" type="qcurve"/>
      <point x="283" y="471" type="line" smooth="yes"/>
      <point x="258" y="364"/>
      <point x="258" y="292" type="qcurve" smooth="yes"/>
      <point x="258" y="192"/>
      <point x="362" y="112"/>
    </contour>
  </outline>
</glyph>
<glyph name="afii10068" format="2">
  <advance width="870"/>
  <unicode hex="0433"/>
  <outline>
    <contour>
      <point x="316" y="-20" type="qcurve" smooth="yes"/>
      <point x="185" y="-20"/>
      <point x="16" y="93"/>
      <point x="16" y="201" type="qcurve" smooth="yes"/>
      <point x="16" y="237"/>
      <point x="24" y="269" type="qcurve" smooth="yes"/>
      <point x="46" y="364"/>
      <point x="104" y="424" type="qcurve" smooth="yes"/>
      <point x="157" y="479"/>
      <point x="298" y="547"/>
      <point x="406" y="580" type="qcurve"/>
      <point x="490" y="607"/>
      <point x="540" y="629" type="qcurve" smooth="yes"/>
      <point x="679" y="690"/>
      <point x="679" y="800" type="qcurve" smooth="yes"/>
      <point x="679" y="844"/>
      <point x="611" y="879"/>
      <point x="549" y="879" type="qcurve" smooth="yes"/>
      <point x="397" y="879"/>
      <point x="295" y="744" type="qcurve"/>
      <point x="190" y="825" type="line"/>
      <point x="255" y="909"/>
      <point x="441" y="1014"/>
      <point x="558" y="1014" type="qcurve" smooth="yes"/>
      <point x="630" y="1014"/>
      <point x="751" y="964"/>
      <point x="823" y="867"/>
      <point x="823" y="797" type="qcurve" smooth="yes"/>
      <point x="823" y="736"/>
      <point x="776" y="623"/>
      <point x="740" y="586" type="qcurve" smooth="yes"/>
      <point x="689" y="533"/>
      <point x="553" y="469"/>
      <point x="447" y="437" type="qcurve" smooth="yes"/>
      <point x="360" y="411"/>
      <point x="255" y="365"/>
      <point x="219" y="332" type="qcurve" smooth="yes"/>
      <point x="194" y="309"/>
      <point x="162" y="241"/>
      <point x="162" y="203" type="qcurve" smooth="yes"/>
      <point x="162" y="151"/>
      <point x="248" y="112"/>
      <point x="321" y="112" type="qcurve" smooth="yes"/>
      <point x="411" y="112"/>
      <point x="576" y="223"/>
      <point x="619" y="301" type="qcurve"/>
      <point x="729" y="219" type="line"/>
      <point x="674" y="118"/>
      <point x="451" y="-20"/>
    </contour>
  </outline>
</glyph>
<glyph name="afii10072" format="2">
  <advance width="1433"/>
  <unicode hex="0436"/>
  <outline>
    <contour>
      <point x="1271" y="0" type="line"/>
      <point x="1101" y="0" type="line"/>
      <point x="1065" y="366" type="line"/>
      <point x="1056" y="442"/>
      <point x="997" y="502"/>
      <point x="937" y="502" type="qcurve" smooth="yes"/>
      <point x="795" y="502" type="line"/>
      <point x="680" y="0" type="line"/>
      <point x="530" y="0" type="line"/>
      <point x="644" y="502" type="line"/>
      <point x="512" y="502" type="line" smooth="yes"/>
      <point x="397" y="502"/>
      <point x="315" y="352" type="qcurve"/>
      <point x="109" y="0" type="line"/>
      <point x="-68" y="0" type="line"/>
      <point x="197" y="442" type="line" smooth="yes"/>
      <point x="234" y="505"/>
      <point x="333" y="596"/>
      <point x="386" y="596" type="qcurve"/>
      <point x="229" y="999" type="line"/>
      <point x="407" y="999" type="line"/>
      <point x="542" y="628" type="line"/>
      <point x="674" y="628" type="line"/>
      <point x="855" y="1413" type="line"/>
      <point x="1006" y="1413" type="line"/>
      <point x="824" y="628" type="line"/>
      <point x="950" y="628" type="line"/>
      <point x="1257" y="999" type="line"/>
      <point x="1444" y="999" type="line"/>
      <point x="1089" y="596" type="line"/>
      <point x="1138" y="596"/>
      <point x="1197" y="493"/>
      <point x="1205" y="428" type="qcurve"/>
    </contour>
  </outline>
</glyph>
<glyph name="afii10075" format="2">
  <advance width="1162"/>
  <unicode hex="0439"/>
  <outline>
    <contour>
      <point x="729" y="1143" type="qcurve" smooth="yes"/>
      <point x="618" y="1143"/>
      <point x="471" y="1250"/>
      <point x="471" y="1349" type="qcurve" smooth="yes"/>
      <point x="471" y="1378"/>
      <point x="479" y="1413" type="qcurve"/>
      <point x="598" y="1413" type="line"/>
      <point x="594" y="1394"/>
      <point x="594" y="1373" type="qcurve" smooth="yes"/>
      <point x="594" y="1312"/>
      <point x="672" y="1248"/>
      <point x="730" y="1248" type="qcurve" smooth="yes"/>
      <point x="811" y="1248"/>
      <point x="943" y="1346"/>
      <point x="961" y="1413" type="qcurve"/>
      <point x="1080" y="1413" type="line"/>
      <point x="1048" y="1279"/>
      <point x="852" y="1143"/>
    </contour>
    <contour>
      <point x="414" y="-23" type="qcurve" smooth="yes"/>
      <point x="272" y="-23"/>
      <point x="140" y="133"/>
      <point x="140" y="263" type="qcurve" smooth="yes"/>
      <point x="140" y="336"/>
      <point x="158" y="412" type="qcurve" smooth="yes"/>
      <point x="293" y="999" type="line"/>
      <point x="442" y="999" type="line"/>
      <point x="304" y="396" type="line" smooth="yes"/>
      <point x="287" y="321"/>
      <point x="287" y="266" type="qcurve" smooth="yes"/>
      <point x="287" y="106"/>
      <point x="432" y="106" type="qcurve" smooth="yes"/>
      <point x="522" y="106"/>
      <point x="687" y="205"/>
      <point x="802" y="354"/>
      <point x="821" y="434" type="qcurve" smooth="yes"/>
      <point x="951" y="999" type="line"/>
      <point x="1099" y="999" type="line"/>
      <point x="869" y="0" type="line"/>
      <point x="721" y="0" type="line"/>
      <point x="760" y="161" type="line"/>
      <point x="729" y="118"/>
      <point x="623" y="34"/>
      <point x="488" y="-23"/>
    </contour>
  </outline>
</glyph>
<glyph name="afii10077" format="2">
  <advance width="945"/>
  <unicode hex="043B"/>
  <outline>
    <contour>
      <point x="796" y="0" type="line"/>
      <point x="636" y="0" type="line"/>
      <point x="547" y="805" type="line"/>
      <point x="83" y="0" type="line"/>
      <point x="-80" y="0" type="line"/>
      <point x="522" y="999" type="line"/>
      <point x="656" y="999" type="line"/>
    </contour>
  </outline>
</glyph>
<glyph name="afii10078" format="2">
  <advance width="1413"/>
  <unicode hex="043C"/>
  <outline>
    <contour>
      <point x="1120" y="0" type="line"/>
      <point x="972" y="0" type="line"/>
      <point x="1160" y="809" type="line"/>
      <point x="652" y="0" type="line"/>
      <point x="536" y="0" type="line"/>
      <point x="399" y="807" type="line"/>
      <point x="211" y="0" type="line"/>
      <point x="63" y="0" type="line"/>
      <point x="293" y="999" type="line"/>
      <point x="499" y="999" type="line"/>
      <point x="632" y="184" type="line"/>
      <point x="1139" y="998" type="line"/>
      <point x="1350" y="998" type="line"/>
    </contour>
  </outline>
</glyph>
<glyph name="afii10081" format="2">
  <advance width="1133"/>
  <unicode hex="043F"/>
  <outline>
    <contour>
      <point x="870" y="0" type="line"/>
      <point x="721" y="0" type="line"/>
      <point x="859" y="598" type="line" smooth="yes"/>
      <point x="874" y="665"/>
      <point x="874" y="714" type="qcurve" smooth="yes"/>
      <point x="874" y="874"/>
      <point x="723" y="874" type="qcurve" smooth="yes"/>
      <point x="634" y="874"/>
      <point x="473" y="782"/>
      <point x="360" y="640"/>
      <point x="341" y="560" type="qcurve"/>
      <point x="213" y="0" type="line"/>
      <point x="63" y="0" type="line"/>
      <point x="293" y="999" type="line"/>
      <point x="442" y="999" type="line"/>
      <point x="404" y="847" type="line"/>
      <point x="471" y="925"/>
      <point x="654" y="1016"/>
      <point x="748" y="1016" type="qcurve" smooth="yes"/>
      <point x="890" y="1016"/>
      <point x="1025" y="863"/>
      <point x="1025" y="737" type="qcurve" smooth="yes"/>
      <point x="1025" y="670"/>
      <point x="1009" y="603" type="qcurve" smooth="yes"/>
    </contour>
  </outline>
</glyph>
<glyph name="afii10084" format="2">
  <advance width="1712"/>
  <unicode hex="0442"/>
  <outline>
    <contour>
      <point x="1449" y="0" type="line"/>
      <point x="1298" y="0" type="line"/>
      <point x="1436" y="598" type="line" smooth="yes"/>
      <point x="1452" y="665"/>
      <point x="1452" y="722" type="qcurve" smooth="yes"/>
      <point x="1452" y="890"/>
      <point x="1301" y="890" type="qcurve" smooth="yes"/>
      <point x="1218" y="890"/>
      <point x="1077" y="795"/>
      <point x="979" y="646"/>
      <point x="960" y="562" type="qcurve" smooth="yes"/>
      <point x="831" y="0" type="line"/>
      <point x="680" y="0" type="line"/>
      <point x="818" y="602" type="line" smooth="yes"/>
      <point x="835" y="675"/>
      <point x="835" y="728" type="qcurve" smooth="yes"/>
      <point x="835" y="890"/>
      <point x="685" y="890" type="qcurve" smooth="yes"/>
      <point x="601" y="890"/>
      <point x="460" y="795"/>
      <point x="363" y="646"/>
      <point x="344" y="562" type="qcurve" smooth="yes"/>
      <point x="214" y="0" type="line"/>
      <point x="63" y="0" type="line"/>
      <point x="293" y="999" type="line"/>
      <point x="444" y="999" type="line"/>
      <point x="404" y="834" type="line"/>
      <point x="458" y="919"/>
      <point x="619" y="1018"/>
      <point x="708" y="1018" type="qcurve" smooth="yes"/>
      <point x="815" y="1018"/>
      <point x="959" y="915"/>
      <point x="975" y="815" type="qcurve"/>
      <point x="1114" y="1016"/>
      <point x="1324" y="1016" type="qcurve" smooth="yes"/>
      <point x="1468" y="1016"/>
      <point x="1604" y="863"/>
      <point x="1604" y="736" type="qcurve" smooth="yes"/>
      <point x="1604" y="677"/>
      <point x="1588" y="603" type="qcurve"/>
    </contour>
  </outline>
</glyph>
<glyph name="afii10088" format="2">
  <advance width="1143"/>
  <unicode hex="0446"/>
  <outline>
    <contour>
      <point x="875" y="-307" type="line"/>
      <point x="760" y="-307" type="line"/>
      <point x="832" y="-23" type="line"/>
      <point x="786" y="-23"/>
      <point x="720" y="58"/>
      <point x="720" y="119" type="qcurve" smooth="yes"/>
      <point x="720" y="143"/>
      <point x="726" y="168" type="qcurve"/>
      <point x="695" y="123"/>
      <point x="588" y="36"/>
      <point x="452" y="-23"/>
      <point x="378" y="-23" type="qcurve" smooth="yes"/>
      <point x="236" y="-23"/>
      <point x="102" y="134"/>
      <point x="102" y="264" type="qcurve" smooth="yes"/>
      <point x="102" y="336"/>
      <point x="120" y="412" type="qcurve" smooth="yes"/>
      <point x="255" y="999" type="line"/>
      <point x="406" y="999" type="line"/>
      <point x="268" y="396" type="line" smooth="yes"/>
      <point x="251" y="321"/>
      <point x="251" y="266" type="qcurve" smooth="yes"/>
      <point x="251" y="106"/>
      <point x="396" y="106" type="qcurve" smooth="yes"/>
      <point x="486" y="106"/>
      <point x="651" y="205"/>
      <point x="766" y="354"/>
      <point x="785" y="434" type="qcurve" smooth="yes"/>
      <point x="915" y="999" type="line"/>
      <point x="1066" y="999" type="line"/>
      <point x="883" y="206" type="line" smooth="yes"/>
      <point x="877" y="181"/>
      <point x="877" y="160" type="qcurve" smooth="yes"/>
      <point x="877" y="108"/>
      <point x="940" y="62"/>
      <point x="990" y="62" type="qcurve"/>
    </contour>
  </outline>
</glyph>
<glyph name="afii10089" format="2">
  <advance width="1084"/>
  <unicode hex="0447"/>
  <outline>
    <contour>
      <point x="791" y="0" type="line"/>
      <point x="640" y="0" type="line"/>
      <point x="740" y="427" type="line"/>
      <point x="709" y="384"/>
      <point x="603" y="300"/>
      <point x="468" y="243"/>
      <point x="394" y="243" type="qcurve" smooth="yes"/>
      <point x="253" y="243"/>
      <point x="119" y="400"/>
      <point x="119" y="530" type="qcurve" smooth="yes"/>
      <point x="119" y="602"/>
      <point x="137" y="678" type="qcurve" smooth="yes"/>
      <point x="210" y="999" type="line"/>
      <point x="361" y="999" type="line"/>
      <point x="284" y="662" type="line" smooth="yes"/>
      <point x="267" y="587"/>
      <point x="267" y="533" type="qcurve" smooth="yes"/>
      <point x="267" y="372"/>
      <point x="412" y="372" type="qcurve" smooth="yes"/>
      <point x="501" y="372"/>
      <point x="666" y="470"/>
      <point x="781" y="619"/>
      <point x="801" y="700" type="qcurve"/>
      <point x="870" y="999" type="line"/>
      <point x="1021" y="999" type="line"/>
    </contour>
  </outline>
</glyph>
<glyph name="afii10090" format="2">
  <advance width="1742"/>
  <unicode hex="0448"/>
  <outline>
    <contour>
      <point x="1034" y="-18" type="qcurve" smooth="yes"/>
      <point x="926" y="-18"/>
      <point x="783" y="86"/>
      <point x="767" y="184" type="qcurve"/>
      <point x="626" y="-16"/>
      <point x="418" y="-16" type="qcurve" smooth="yes"/>
      <point x="274" y="-16"/>
      <point x="138" y="137"/>
      <point x="138" y="264" type="qcurve" smooth="yes"/>
      <point x="138" y="324"/>
      <point x="154" y="398" type="qcurve"/>
      <point x="293" y="999" type="line"/>
      <point x="444" y="999" type="line"/>
      <point x="306" y="402" type="line" smooth="yes"/>
      <point x="290" y="335"/>
      <point x="290" y="277" type="qcurve" smooth="yes"/>
      <point x="290" y="109"/>
      <point x="439" y="109" type="qcurve" smooth="yes"/>
      <point x="523" y="109"/>
      <point x="665" y="205"/>
      <point x="763" y="354"/>
      <point x="782" y="438" type="qcurve" smooth="yes"/>
      <point x="911" y="999" type="line"/>
      <point x="1063" y="999" type="line"/>
      <point x="924" y="398" type="line"/>
      <point x="908" y="322"/>
      <point x="908" y="271" type="qcurve" smooth="yes"/>
      <point x="908" y="109"/>
      <point x="1056" y="109" type="qcurve" smooth="yes"/>
      <point x="1140" y="109"/>
      <point x="1282" y="205"/>
      <point x="1379" y="354"/>
      <point x="1398" y="438" type="qcurve" smooth="yes"/>
      <point x="1528" y="999" type="line"/>
      <point x="1679" y="999" type="line"/>
      <point x="1449" y="0" type="line"/>
      <point x="1298" y="0" type="line"/>
      <point x="1338" y="165" type="line"/>
      <point x="1286" y="83"/>
      <point x="1126" y="-18"/>
    </contour>
  </outline>
</glyph>
<glyph name="afii10092" format="2">
  <advance width="1164"/>
  <unicode hex="044A"/>
  <outline>
    <contour>
      <point x="524" y="-20" type="qcurve" smooth="yes"/>
      <point x="432" y="-20"/>
      <point x="280" y="43"/>
      <point x="189" y="173"/>
      <point x="189" y="273" type="qcurve" smooth="yes"/>
      <point x="189" y="321"/>
      <point x="203" y="383" type="qcurve" smooth="yes"/>
      <point x="316" y="876" type="line"/>
      <point x="116" y="876" type="line"/>
      <point x="143" y="999" type="line"/>
      <point x="492" y="999" type="line"/>
      <point x="414" y="675" type="line"/>
      <point x="466" y="730"/>
      <point x="638" y="809"/>
      <point x="735" y="809" type="qcurve" smooth="yes"/>
      <point x="830" y="809"/>
      <point x="979" y="744"/>
      <point x="1064" y="611"/>
      <point x="1064" y="509" type="qcurve" smooth="yes"/>
      <point x="1064" y="448"/>
      <point x="1048" y="381" type="qcurve" smooth="yes"/>
      <point x="1016" y="245"/>
      <point x="861" y="67"/>
      <point x="645" y="-20"/>
    </contour>
    <contour>
      <point x="550" y="112" type="qcurve" smooth="yes"/>
      <point x="636" y="112"/>
      <point x="773" y="191"/>
      <point x="866" y="326"/>
      <point x="886" y="410" type="qcurve" smooth="yes"/>
      <point x="895" y="448"/>
      <point x="895" y="483" type="qcurve" smooth="yes"/>
      <point x="895" y="566"/>
      <point x="795" y="677"/>
      <point x="695" y="677" type="qcurve" smooth="yes"/>
      <point x="572" y="677"/>
      <point x="386" y="530"/>
      <point x="360" y="422" type="qcurve" smooth="yes"/>
      <point x="345" y="356" type="line" smooth="yes"/>
      <point x="337" y="319"/>
      <point x="337" y="291" type="qcurve" smooth="yes"/>
      <point x="337" y="212"/>
      <point x="443" y="112"/>
    </contour>
  </outline>
</glyph>
<glyph name="afii10096" format="2">
  <advance width="1457"/>
  <unicode hex="044E"/>
  <outline>
    <contour>
      <point x="787" y="-20" type="qcurve" smooth="yes"/>
      <point x="665" y="-20"/>
      <point x="495" y="83"/>
      <point x="406" y="260"/>
      <point x="406" y="370" type="qcurve" smooth="yes"/>
      <point x="406" y="432"/>
      <point x="421" y="498" type="qcurve"/>
      <point x="328" y="491" type="line"/>
      <point x="215" y="0" type="line"/>
      <point x="63" y="0" type="line"/>
      <point x="389" y="1413" type="line"/>
      <point x="540" y="1413" type="line"/>
      <point x="354" y="609" type="line"/>
      <point x="458" y="616" type="line"/>
      <point x="506" y="728"/>
      <point x="667" y="907"/>
      <point x="879" y="1012"/>
      <point x="1001" y="1012" type="qcurve" smooth="yes"/>
      <point x="1121" y="1012"/>
      <point x="1291" y="909"/>
      <point x="1380" y="731"/>
      <point x="1380" y="619" type="qcurve" smooth="yes"/>
      <point x="1380" y="449"/>
      <point x="1199" y="137"/>
      <point x="1041" y="47" type="qcurve"/>
      <point x="920" y="-20"/>
    </contour>
    <contour>
      <point x="795" y="112" type="qcurve" smooth="yes"/>
      <point x="905" y="112"/>
      <point x="1070" y="220"/>
      <point x="1179" y="400"/>
      <point x="1205" y="510" type="qcurve"/>
      <point x="1221" y="584"/>
      <point x="1221" y="642" type="qcurve" smooth="yes"/>
      <point x="1221" y="751"/>
      <point x="1112" y="879"/>
      <point x="993" y="879" type="qcurve" smooth="yes"/>
      <point x="882" y="879"/>
      <point x="717" y="770"/>
      <point x="609" y="591"/>
      <point x="583" y="481" type="qcurve"/>
      <point x="567" y="407"/>
      <point x="567" y="349" type="qcurve" smooth="yes"/>
      <point x="567" y="240"/>
      <point x="676" y="112"/>
    </contour>
  </outline>
</glyph>
<glyph name="afii10099" format="2">
  <advance width="1118"/>
  <unicode hex="0452"/>
  <outline>
    <contour>
      <point x="401" y="-456" type="qcurve" smooth="yes"/>
      <point x="302" y="-456"/>
      <point x="161" y="-376"/>
      <point x="95" y="-291" type="qcurve"/>
      <point x="203" y="-203" type="line"/>
      <point x="249" y="-266"/>
      <point x="335" y="-325"/>
      <point x="394" y="-325" type="qcurve" smooth="yes"/>
      <point x="489" y="-325"/>
      <point x="613" y="-241"/>
      <point x="692" y="-79"/>
      <point x="718" y="37" type="qcurve" smooth="yes"/>
      <point x="847" y="597" type="line" smooth="yes"/>
      <point x="864" y="668"/>
      <point x="864" y="719" type="qcurve" smooth="yes"/>
      <point x="864" y="874"/>
      <point x="712" y="874" type="qcurve" smooth="yes"/>
      <point x="623" y="874"/>
      <point x="461" y="779"/>
      <point x="347" y="626"/>
      <point x="325" y="535" type="qcurve"/>
      <point x="202" y="0" type="line"/>
      <point x="54" y="0" type="line"/>
      <point x="317" y="1146" type="line"/>
      <point x="134" y="1146" type="line"/>
      <point x="161" y="1263" type="line"/>
      <point x="344" y="1263" type="line"/>
      <point x="379" y="1413" type="line"/>
      <point x="528" y="1413" type="line"/>
      <point x="492" y="1263" type="line"/>
      <point x="795" y="1263" type="line"/>
      <point x="768" y="1146" type="line"/>
      <point x="465" y="1146" type="line"/>
      <point x="393" y="844" type="line"/>
      <point x="463" y="927"/>
      <point x="653" y="1015"/>
      <point x="741" y="1015" type="qcurve" smooth="yes"/>
      <point x="883" y="1015"/>
      <point x="1017" y="863"/>
      <point x="1017" y="738" type="qcurve" smooth="yes"/>
      <point x="1017" y="679"/>
      <point x="1001" y="607" type="qcurve"/>
      <point x="867" y="30" type="line" smooth="yes"/>
      <point x="812" y="-206"/>
      <point x="585" y="-456"/>
    </contour>
  </outline>
</glyph>
<glyph name="afii10100" format="2">
  <advance width="870"/>
  <unicode hex="0453"/>
  <outline>
    <contour>
      <point x="593" y="1124" type="line"/>
      <point x="471" y="1124" type="line"/>
      <point x="750" y="1413" type="line"/>
      <point x="926" y="1413" type="line"/>
    </contour>
    <contour>
      <point x="204" y="0" type="line"/>
      <point x="54" y="0" type="line"/>
      <point x="283" y="999" type="line"/>
      <point x="854" y="999" type="line"/>
      <point x="828" y="881" type="line"/>
      <point x="407" y="881" type="line"/>
    </contour>
  </outline>
</glyph>
<glyph name="afii10101" format="2">
  <advance width="974"/>
  <unicode hex="0454"/>
  <outline>
    <contour>
      <point x="415" y="-20" type="qcurve" smooth="yes"/>
      <point x="298" y="-20"/>
      <point x="146" y="77"/>
      <point x="72" y="244"/>
      <point x="72" y="350" type="qcurve" smooth="yes"/>
      <point x="72" y="566"/>
      <point x="196" y="764" type="qcurve" smooth="yes"/>
      <point x="242" y="837"/>
      <point x="371" y="950"/>
      <point x="532" y="1016"/>
      <point x="629" y="1016" type="qcurve" smooth="yes"/>
      <point x="771" y="1016"/>
      <point x="942" y="869"/>
      <point x="966" y="748" type="qcurve"/>
      <point x="817" y="701" type="line"/>
      <point x="812" y="793"/>
      <point x="705" y="888"/>
      <point x="622" y="888" type="qcurve" smooth="yes"/>
      <point x="528" y="888"/>
      <point x="382" y="788"/>
      <point x="280" y="629"/>
      <point x="252" y="537" type="qcurve"/>
      <point x="656" y="544" type="line"/>
      <point x="630" y="433" type="line"/>
      <point x="225" y="426" type="line"/>
      <point x="220" y="383"/>
      <point x="220" y="350" type="qcurve" smooth="yes"/>
      <point x="220" y="241"/>
      <point x="314" y="107"/>
      <point x="418" y="107" type="qcurve" smooth="yes"/>
      <point x="516" y="107"/>
      <point x="678" y="222"/>
      <point x="722" y="308" type="qcurve"/>
      <point x="841" y="238" type="line"/>
      <point x="763" y="106"/>
      <point x="541" y="-20"/>
    </contour>
  </outline>
</glyph>
<glyph name="afii10102" format="2">
  <advance width="868"/>
  <unicode hex="0455"/>
  <outline>
    <contour>
      <point x="340" y="-20" type="qcurve" smooth="yes"/>
      <point x="245" y="-20"/>
      <point x="105" y="51"/>
      <point x="24" y="165"/>
      <point x="18" y="233" type="qcurve"/>
      <point x="152" y="287" type="line"/>
      <point x="160" y="208"/>
      <point x="270" y="112"/>
      <point x="349" y="112" type="qcurve" smooth="yes"/>
      <point x="438" y="112"/>
      <point x="580" y="200"/>
      <point x="602" y="292" type="qcurve" smooth="yes"/>
      <point x="606" y="308"/>
      <point x="606" y="324" type="qcurve" smooth="yes"/>
      <point x="606" y="397"/>
      <point x="517" y="428" type="qcurve" smooth="yes"/>
      <point x="479" y="441"/>
      <point x="419" y="457" type="qcurve" smooth="yes"/>
      <point x="340" y="478"/>
      <point x="281" y="501" type="qcurve" smooth="yes"/>
      <point x="158" y="550"/>
      <point x="158" y="673" type="qcurve" smooth="yes"/>
      <point x="158" y="723"/>
      <point x="196" y="835"/>
      <point x="241" y="885" type="qcurve" smooth="yes"/>
      <point x="299" y="948"/>
      <point x="452" y="1014"/>
      <point x="530" y="1014" type="qcurve" smooth="yes"/>
      <point x="648" y="1014"/>
      <point x="794" y="900"/>
      <point x="824" y="811" type="qcurve"/>
      <point x="700" y="758" type="line"/>
      <point x="664" y="879"/>
      <point x="521" y="879" type="qcurve" smooth="yes"/>
      <point x="444" y="879"/>
      <point x="318" y="799"/>
      <point x="298" y="720" type="qcurve" smooth="yes"/>
      <point x="295" y="708"/>
      <point x="295" y="696" type="qcurve" smooth="yes"/>
      <point x="295" y="637"/>
      <point x="376" y="612" type="qcurve"/>
      <point x="408" y="601"/>
      <point x="460" y="588" type="qcurve" smooth="yes"/>
      <point x="547" y="566"/>
      <point x="616" y="541" type="qcurve"/>
      <point x="750" y="488"/>
      <point x="750" y="352" type="qcurve" smooth="yes"/>
      <point x="750" y="291"/>
      <point x="706" y="167"/>
      <point x="659" y="116" type="qcurve" smooth="yes"/>
      <point x="594" y="47"/>
      <point x="425" y="-20"/>
    </contour>
  </outline>
</glyph>
<glyph name="afii10103" format="2">
  <advance width="495"/>
  <unicode hex="0456"/>
  <outline>
    <contour>
      <point x="502" y="1222" type="line"/>
      <point x="326" y="1222" type="line"/>
      <point x="372" y="1413" type="line"/>
      <point x="547" y="1413" type="line"/>
    </contour>
    <contour>
      <point x="207" y="0" type="line"/>
      <point x="57" y="0" type="line"/>
      <point x="286" y="999" type="line"/>
      <point x="436" y="999" type="line"/>
    </contour>
  </outline>
</glyph>
<glyph name="afii10105" format="2">
  <advance width="489"/>
  <unicode hex="0458"/>
  <outline>
    <contour>
      <point x="498" y="1224" type="line"/>
      <point x="322" y="1224" type="line"/>
      <point x="368" y="1421" type="line"/>
      <point x="544" y="1421" type="line"/>
    </contour>
    <contour>
      <point x="-139" y="-438" type="qcurve" smooth="yes"/>
      <point x="-212" y="-438"/>
      <point x="-286" y="-409" type="qcurve" smooth="yes"/>
      <point x="-291" y="-407" type="line"/>
      <point x="-238" y="-301" type="line"/>
      <point x="-198" y="-310"/>
      <point x="-138" y="-310" type="qcurve" smooth="yes"/>
      <point x="-94" y="-310"/>
      <point x="-32" y="-270"/>
      <point x="7" y="-206"/>
      <point x="16" y="-168" type="qcurve" smooth="yes"/>
      <point x="285" y="999" type="line"/>
      <point x="436" y="999" type="line"/>
      <point x="168" y="-161" type="line" smooth="yes"/>
      <point x="149" y="-244"/>
      <point x="70" y="-369"/>
      <point x="-53" y="-438"/>
    </contour>
  </outline>
</glyph>
<glyph name="afii10106" format="2">
  <advance width="1616"/>
  <unicode hex="0459"/>
  <outline>
    <contour>
      <point x="94" y="-22" type="qcurve" smooth="yes"/>
      <point x="59" y="-22"/>
      <point x="-10" y="4"/>
      <point x="-49" y="24" type="qcurve"/>
      <point x="14" y="129" type="line"/>
      <point x="57" y="99"/>
      <point x="88" y="99" type="qcurve" smooth="yes"/>
      <point x="136" y="99"/>
      <point x="263" y="323"/>
      <point x="333" y="626" type="qcurve" smooth="yes"/>
      <point x="419" y="999" type="line"/>
      <point x="1053" y="999" type="line"/>
      <point x="977" y="665" type="line"/>
      <point x="1158" y="665" type="line" smooth="yes"/>
      <point x="1316" y="665"/>
      <point x="1489" y="562"/>
      <point x="1489" y="431" type="qcurve" smooth="yes"/>
      <point x="1489" y="380"/>
      <point x="1474" y="312" type="qcurve"/>
      <point x="1435" y="160"/>
      <point x="1184" y="0"/>
      <point x="1015" y="0" type="qcurve" smooth="yes"/>
      <point x="674" y="0" type="line"/>
      <point x="877" y="881" type="line"/>
      <point x="541" y="881" type="line"/>
      <point x="479" y="611" type="line" smooth="yes"/>
      <point x="332" y="-22"/>
    </contour>
    <contour>
      <point x="1032" y="122" type="line" smooth="yes"/>
      <point x="1134" y="122"/>
      <point x="1285" y="224"/>
      <point x="1312" y="341" type="qcurve" smooth="yes"/>
      <point x="1321" y="382"/>
      <point x="1321" y="413" type="qcurve" smooth="yes"/>
      <point x="1321" y="484"/>
      <point x="1229" y="543"/>
      <point x="1141" y="543" type="qcurve" smooth="yes"/>
      <point x="948" y="543" type="line"/>
      <point x="851" y="122" type="line"/>
    </contour>
  </outline>
</glyph>
<glyph name="afii10107" format="2">
  <advance width="1663"/>
  <unicode hex="045A"/>
  <outline>
    <contour>
      <point x="1063" y="0" type="qcurve" smooth="yes"/>
      <point x="721" y="0" type="line"/>
      <point x="834" y="491" type="line"/>
      <point x="326" y="491" type="line"/>
      <point x="213" y="0" type="line"/>
      <point x="63" y="0" type="line"/>
      <point x="293" y="999" type="line"/>
      <point x="442" y="999" type="line"/>
      <point x="352" y="609" type="line"/>
      <point x="861" y="609" type="line"/>
      <point x="951" y="999" type="line"/>
      <point x="1099" y="999" type="line"/>
      <point x="1008" y="609" type="line"/>
      <point x="1192" y="609" type="line" smooth="yes"/>
      <point x="1293" y="609"/>
      <point x="1445" y="574"/>
      <point x="1529" y="482"/>
      <point x="1529" y="395" type="qcurve" smooth="yes"/>
      <point x="1529" y="348"/>
      <point x="1516" y="290" type="qcurve" smooth="yes"/>
      <point x="1482" y="145"/>
      <point x="1239" y="0"/>
    </contour>
    <contour>
      <point x="1079" y="122" type="line" smooth="yes"/>
      <point x="1186" y="122"/>
      <point x="1328" y="205"/>
      <point x="1355" y="319" type="qcurve" smooth="yes"/>
      <point x="1363" y="352"/>
      <point x="1363" y="384" type="qcurve" smooth="yes"/>
      <point x="1363" y="432"/>
      <point x="1316" y="478"/>
      <point x="1242" y="487"/>
      <point x="1176" y="487" type="qcurve" smooth="yes"/>
      <point x="981" y="487" type="line"/>
      <point x="897" y="122" type="line"/>
    </contour>
  </outline>
</glyph>
<glyph name="uni045D" format="2">
  <advance width="1162"/>
  <unicode hex="045D"/>
  <outline>
    <contour>
      <point x="804" y="1127" type="line"/>
      <point x="666" y="1127" type="line"/>
      <point x="491" y="1413" type="line"/>
      <point x="658" y="1413" type="line"/>
    </contour>
    <contour>
      <point x="414" y="-23" type="qcurve" smooth="yes"/>
      <point x="272" y="-23"/>
      <point x="140" y="133"/>
      <point x="140" y="263" type="qcurve" smooth="yes"/>
      <point x="140" y="336"/>
      <point x="158" y="412" type="qcurve" smooth="yes"/>
      <point x="293" y="999" type="line"/>
      <point x="442" y="999" type="line"/>
      <point x="304" y="396" type="line" smooth="yes"/>
      <point x="287" y="321"/>
      <point x="287" y="266" type="qcurve" smooth="yes"/>
      <point x="287" y="106"/>
      <point x="432" y="106" type="qcurve" smooth="yes"/>
      <point x="522" y="106"/>
      <point x="687" y="205"/>
      <point x="802" y="354"/>
      <point x="821" y="434" type="qcurve" smooth="yes"/>
      <point x="951" y="999" type="line"/>
      <point x="1099" y="999" type="line"/>
      <point x="869" y="0" type="line"/>
      <point x="721" y="0" type="line"/>
      <point x="760" y="161" type="line"/>
      <point x="729" y="118"/>
      <point x="623" y="34"/>
      <point x="488" y="-23"/>
    </contour>
  </outline>
</glyph>
<glyph name="afii10146" format="2">
  <advance width="1326"/>
  <unicode hex="0462"/>
  <outline>
    <contour>
      <point x="678" y="0" type="qcurve" smooth="yes"/>
      <point x="275" y="0" type="line"/>
      <point x="529" y="1101" type="line"/>
      <point x="206" y="1101" type="line"/>
      <point x="236" y="1236" type="line"/>
      <point x="559" y="1236" type="line"/>
      <point x="601" y="1413" type="line"/>
      <point x="759" y="1413" type="line"/>
      <point x="718" y="1236" type="line"/>
      <point x="1066" y="1236" type="line"/>
      <point x="1036" y="1101" type="line"/>
      <point x="687" y="1101" type="line"/>
      <point x="613" y="776" type="line"/>
      <point x="846" y="776" type="line" smooth="yes"/>
      <point x="959" y="776"/>
      <point x="1128" y="710"/>
      <point x="1223" y="578"/>
      <point x="1223" y="480" type="qcurve" smooth="yes"/>
      <point x="1223" y="405"/>
      <point x="1167" y="242"/>
      <point x="1109" y="174" type="qcurve"/>
      <point x="1032" y="87"/>
      <point x="811" y="0"/>
    </contour>
    <contour>
      <point x="699" y="141" type="line" smooth="yes"/>
      <point x="842" y="141"/>
      <point x="1032" y="281"/>
      <point x="1061" y="406" type="qcurve" smooth="yes"/>
      <point x="1069" y="443"/>
      <point x="1069" y="469" type="qcurve" smooth="yes"/>
      <point x="1069" y="553"/>
      <point x="942" y="635"/>
      <point x="825" y="635" type="qcurve" smooth="yes"/>
      <point x="580" y="635" type="line"/>
      <point x="466" y="141" type="line"/>
    </contour>
  </outline>
</glyph>
<glyph name="Eiotifiedcyrillic" format="2">
  <advance width="1817"/>
  <unicode hex="0464"/>
  <outline>
    <contour>
      <point x="1046" y="-20" type="qcurve" smooth="yes"/>
      <point x="873" y="-20"/>
      <point x="648" y="110"/>
      <point x="539" y="339"/>
      <point x="539" y="487" type="qcurve" smooth="yes"/>
      <point x="539" y="560"/>
      <point x="553" y="646" type="qcurve"/>
      <point x="401" y="639" type="line"/>
      <point x="254" y="0" type="line"/>
      <point x="97" y="0" type="line"/>
      <point x="423" y="1413" type="line"/>
      <point x="580" y="1413" type="line"/>
      <point x="433" y="774" type="line"/>
      <point x="583" y="781" type="line"/>
      <point x="635" y="962"/>
      <point x="844" y="1259"/>
      <point x="1007" y="1351" type="qcurve"/>
      <point x="1162" y="1436"/>
      <point x="1356" y="1436" type="qcurve" smooth="yes"/>
      <point x="1558" y="1436"/>
      <point x="1813" y="1240"/>
      <point x="1851" y="1053" type="qcurve"/>
      <point x="1698" y="1007" type="line"/>
      <point x="1689" y="1155"/>
      <point x="1498" y="1289"/>
      <point x="1343" y="1289" type="qcurve" smooth="yes"/>
      <point x="1186" y="1289"/>
      <point x="945" y="1149"/>
      <point x="781" y="913"/>
      <point x="740" y="767" type="qcurve"/>
      <point x="1371" y="774" type="line"/>
      <point x="1339" y="639" type="line"/>
      <point x="707" y="632" type="line"/>
      <point x="694" y="560"/>
      <point x="694" y="490" type="qcurve" smooth="yes"/>
      <point x="694" y="320"/>
      <point x="871" y="126"/>
      <point x="1056" y="126" type="qcurve" smooth="yes"/>
      <point x="1378" y="126"/>
      <point x="1559" y="425" type="qcurve"/>
      <point x="1695" y="351" type="line"/>
      <point x="1567" y="160"/>
      <point x="1231" y="-20"/>
    </contour>
  </outline>
</glyph>
<glyph name="yuslittleiotifiedcyrillic" format="2">
  <advance width="1352"/>
  <unicode hex="0469"/>
  <outline>
    <contour>
      <point x="1173" y="0" type="line"/>
      <point x="1008" y="0" type="line"/>
      <point x="979" y="363" type="line"/>
      <point x="885" y="363" type="line"/>
      <point x="802" y="0" type="line"/>
      <point x="665" y="0" type="line"/>
      <point x="748" y="363" type="line"/>
      <point x="664" y="363" type="line"/>
      <point x="444" y="0" type="line"/>
      <point x="290" y="0" type="line"/>
      <point x="530" y="393" type="line"/>
      <point x="304" y="393" type="line"/>
      <point x="213" y="0" type="line"/>
      <point x="63" y="0" type="line"/>
      <point x="293" y="999" type="line"/>
      <point x="442" y="999" type="line"/>
      <point x="330" y="512" type="line"/>
      <point x="601" y="512" type="line"/>
      <point x="900" y="999" type="line"/>
      <point x="1023" y="999" type="line"/>
    </contour>
    <contour>
      <point x="968" y="479" type="line"/>
      <point x="927" y="813" type="line"/>
      <point x="729" y="479" type="line"/>
    </contour>
  </outline>
</glyph>
<glyph name="yusbigcyrillic" format="2">
  <advance width="1256"/>
  <unicode hex="046B"/>
  <outline>
    <contour>
      <point x="1076" y="0" type="line"/>
      <point x="904" y="0" type="line"/>
      <point x="868" y="366" type="line"/>
      <point x="862" y="416"/>
      <point x="828" y="469"/>
      <point x="795" y="480" type="qcurve" smooth="yes"/>
      <point x="766" y="489"/>
      <point x="719" y="489" type="qcurve" smooth="yes"/>
      <point x="705" y="489" type="line"/>
      <point x="587" y="0" type="line"/>
      <point x="440" y="0" type="line"/>
      <point x="558" y="489" type="line"/>
      <point x="473" y="489"/>
      <point x="371" y="427"/>
      <point x="328" y="352" type="qcurve" smooth="yes"/>
      <point x="123" y="0" type="line"/>
      <point x="-54" y="0" type="line"/>
      <point x="211" y="442" type="line" smooth="yes"/>
      <point x="304" y="596"/>
      <point x="470" y="596" type="qcurve"/>
      <point x="308" y="881" type="line"/>
      <point x="332" y="999" type="line"/>
      <point x="1153" y="999" type="line"/>
      <point x="1128" y="881" type="line"/>
      <point x="824" y="596" type="line"/>
      <point x="916" y="596"/>
      <point x="1001" y="495"/>
      <point x="1010" y="428" type="qcurve"/>
    </contour>
    <contour>
      <point x="648" y="599" type="line"/>
      <point x="939" y="881" type="line"/>
      <point x="490" y="881" type="line"/>
    </contour>
  </outline>
</glyph>
<glyph name="Yusbigiotifiedcyrillic" format="2">
  <advance width="1920"/>
  <unicode hex="046C"/>
  <outline>
    <contour>
      <point x="1728" y="0" type="line"/>
      <point x="1564" y="0" type="line"/>
      <point x="1479" y="510" type="line"/>
      <point x="1473" y="551"/>
      <point x="1454" y="603"/>
      <point x="1406" y="644"/>
      <point x="1359" y="644" type="qcurve" smooth="yes"/>
      <point x="1261" y="644" type="line"/>
      <point x="1113" y="0" type="line"/>
      <point x="954" y="0" type="line"/>
      <point x="1102" y="644" type="line"/>
      <point x="1016" y="644" type="line" smooth="yes"/>
      <point x="967" y="644"/>
      <point x="893" y="594"/>
      <point x="847" y="536"/>
      <point x="822" y="496" type="qcurve" smooth="yes"/>
      <point x="507" y="0" type="line"/>
      <point x="339" y="0" type="line"/>
      <point x="701" y="578"/>
      <point x="716" y="598" type="qcurve" smooth="yes"/>
      <point x="734" y="623"/>
      <point x="749" y="641" type="qcurve"/>
      <point x="401" y="636" type="line"/>
      <point x="254" y="0" type="line"/>
      <point x="97" y="0" type="line"/>
      <point x="423" y="1413" type="line"/>
      <point x="580" y="1413" type="line"/>
      <point x="431" y="768" type="line"/>
      <point x="1054" y="768" type="line"/>
      <point x="799" y="1278" type="line"/>
      <point x="827" y="1413" type="line"/>
      <point x="1889" y="1413" type="line"/>
      <point x="1859" y="1278" type="line"/>
      <point x="1362" y="768" type="line"/>
      <point x="1590" y="768"/>
      <point x="1621" y="576" type="qcurve"/>
    </contour>
    <contour>
      <point x="1214" y="808" type="line"/>
      <point x="1669" y="1278" type="line"/>
      <point x="979" y="1278" type="line"/>
    </contour>
  </outline>
</glyph>
<glyph name="afii10148" format="2">
  <advance width="1291"/>
  <unicode hex="0474"/>
  <outline>
    <contour>
      <point x="532" y="0" type="line"/>
      <point x="394" y="0" type="line"/>
      <point x="243" y="1413" type="line"/>
      <point x="405" y="1413" type="line"/>
      <point x="506" y="210" type="line"/>
      <point x="983" y="1006" type="line"/>
      <point x="1089" y="1187"/>
      <point x="1321" y="1387"/>
      <point x="1464" y="1415" type="qcurve"/>
      <point x="1439" y="1260" type="line"/>
      <point x="1295" y="1199"/>
      <point x="1204" y="1084" type="qcurve" smooth="yes"/>
      <point x="1173" y="1044"/>
      <point x="1134" y="984" type="qcurve"/>
    </contour>
  </outline>
</glyph>
<glyph name="ukcyrillic" format="2">
  <advance width="2110"/>
  <unicode hex="0479"/>
  <outline>
    <contour>
      <point x="453" y="-20" type="qcurve" smooth="yes"/>
      <point x="331" y="-20"/>
      <point x="162" y="82"/>
      <point x="74" y="259"/>
      <point x="74" y="370" type="qcurve" smooth="yes"/>
      <point x="74" y="468"/>
      <point x="142" y="673"/>
      <point x="208" y="763" type="qcurve" smooth="yes"/>
      <point x="289" y="875"/>
      <point x="527" y="1012"/>
      <point x="668" y="1012" type="qcurve" smooth="yes"/>
      <point x="789" y="1012"/>
      <point x="959" y="908"/>
      <point x="1048" y="731"/>
      <point x="1048" y="620" type="qcurve" smooth="yes"/>
      <point x="1048" y="530"/>
      <point x="983" y="323"/>
      <point x="915" y="229" type="qcurve"/>
      <point x="832" y="117"/>
      <point x="593" y="-20"/>
    </contour>
    <contour>
      <point x="1322" y="-430" type="line"/>
      <point x="1161" y="-430" type="line"/>
      <point x="1436" y="5" type="line"/>
      <point x="1281" y="999" type="line"/>
      <point x="1444" y="999" type="line"/>
      <point x="1546" y="182" type="line"/>
      <point x="2021" y="999" type="line"/>
      <point x="2187" y="999" type="line"/>
    </contour>
    <contour>
      <point x="461" y="112" type="qcurve" smooth="yes"/>
      <point x="572" y="112"/>
      <point x="738" y="221"/>
      <point x="846" y="401"/>
      <point x="871" y="510" type="qcurve" smooth="yes"/>
      <point x="888" y="581"/>
      <point x="888" y="643" type="qcurve" smooth="yes"/>
      <point x="888" y="751"/>
      <point x="779" y="879"/>
      <point x="660" y="879" type="qcurve" smooth="yes"/>
      <point x="551" y="879"/>
      <point x="385" y="770"/>
      <point x="276" y="591"/>
      <point x="251" y="481" type="qcurve" smooth="yes"/>
      <point x="235" y="409"/>
      <point x="235" y="350" type="qcurve" smooth="yes"/>
      <point x="235" y="241"/>
      <point x="344" y="112"/>
    </contour>
  </outline>
</glyph>
<glyph name="afii10098" format="2">
  <advance width="769"/>
  <unicode hex="0491"/>
  <outline>
    <contour>
      <point x="204" y="0" type="line"/>
      <point x="54" y="0" type="line"/>
      <point x="283" y="999" type="line"/>
      <point x="707" y="999" type="line"/>
      <point x="778" y="1307" type="line"/>
      <point x="926" y="1307" type="line"/>
      <point x="828" y="881" type="line"/>
      <point x="407" y="881" type="line"/>
    </contour>
  </outline>
</glyph>
<glyph name="Ghestrokecyrillic" format="2">
  <advance width="1157"/>
  <unicode hex="0492"/>
  <outline>
    <contour>
      <point x="343" y="0" type="line"/>
      <point x="186" y="0" type="line"/>
      <point x="345" y="691" type="line"/>
      <point x="116" y="691" type="line"/>
      <point x="145" y="822" type="line"/>
      <point x="375" y="822" type="line"/>
      <point x="511" y="1413" type="line"/>
      <point x="1308" y="1413" type="line"/>
      <point x="1277" y="1278" type="line"/>
      <point x="638" y="1278" type="line"/>
      <point x="533" y="822" type="line"/>
      <point x="870" y="822" type="line"/>
      <point x="841" y="691" type="line"/>
      <point x="503" y="691" type="line"/>
    </contour>
  </outline>
</glyph>
<glyph name="Endescendercyrillic" format="2">
  <advance width="1461"/>
  <unicode hex="04A2"/>
  <outline>
    <contour>
      <point x="1221" y="-238" type="line"/>
      <point x="1071" y="-238" type="line"/>
      <point x="1127" y="0" type="line"/>
      <point x="973" y="0" type="line"/>
      <point x="1119" y="641" type="line"/>
      <point x="406" y="641" type="line"/>
      <point x="259" y="0" type="line"/>
      <point x="100" y="0" type="line"/>
      <point x="426" y="1413" type="line"/>
      <point x="585" y="1413" type="line"/>
      <point x="438" y="774" type="line"/>
      <point x="1151" y="774" type="line"/>
      <point x="1298" y="1413" type="line"/>
      <point x="1457" y="1413" type="line"/>
      <point x="1171" y="168" type="line"/>
      <point x="1315" y="168" type="line"/>
    </contour>
  </outline>
</glyph>
<glyph name="ustraightcyrillic" format="2">
  <advance width="965"/>
  <unicode hex="04AF"/>
  <outline>
    <contour>
      <point x="444" y="0" type="line"/>
      <point x="292" y="0" type="line"/>
      <point x="396" y="443" type="line"/>
      <point x="173" y="999" type="line"/>
      <point x="350" y="999" type="line"/>
      <point x="501" y="600" type="line"/>
      <point x="841" y="999" type="line"/>
      <point x="1025" y="999" type="line"/>
      <point x="548" y="443" type="line"/>
    </contour>
  </outline>
</glyph>
<glyph name="Ustraightstrokecyrillic" format="2">
  <advance width="1331"/>
  <unicode hex="04B0"/>
  <outline>
    <contour>
      <point x="627" y="0" type="line"/>
      <point x="473" y="0" type="line"/>
      <point x="548" y="322" type="line"/>
      <point x="259" y="322" type="line"/>
      <point x="313" y="453" type="line"/>
      <point x="579" y="453" type="line"/>
      <point x="602" y="553" type="line"/>
      <point x="263" y="1413" type="line"/>
      <point x="443" y="1413" type="line"/>
      <point x="708" y="711" type="line"/>
      <point x="1303" y="1413" type="line"/>
      <point x="1490" y="1413" type="line"/>
      <point x="756" y="553" type="line"/>
      <point x="733" y="453" type="line"/>
      <point x="1038" y="453" type="line"/>
      <point x="984" y="322" type="line"/>
      <point x="702" y="322" type="line"/>
    </contour>
  </outline>
</glyph>
<glyph name="Schwacyrillic" format="2">
  <advance width="1525"/>
  <unicode hex="04D8"/>
  <outline>
    <contour>
      <point x="652" y="-20" type="qcurve" smooth="yes"/>
      <point x="480" y="-20"/>
      <point x="258" y="110"/>
      <point x="150" y="339"/>
      <point x="150" y="488" type="qcurve" smooth="yes"/>
      <point x="150" y="607"/>
      <point x="184" y="741" type="qcurve"/>
      <point x="189" y="765"/>
      <point x="197" y="786" type="qcurve"/>
      <point x="1304" y="786" type="line"/>
      <point x="1314" y="847"/>
      <point x="1314" y="911" type="qcurve" smooth="yes"/>
      <point x="1314" y="1083"/>
      <point x="1139" y="1287"/>
      <point x="953" y="1287" type="qcurve" smooth="yes"/>
      <point x="814" y="1287"/>
      <point x="591" y="1171"/>
      <point x="510" y="1075" type="qcurve"/>
      <point x="392" y="1167" type="line"/>
      <point x="496" y="1291"/>
      <point x="782" y="1434"/>
      <point x="965" y="1434" type="qcurve" smooth="yes"/>
      <point x="1138" y="1434"/>
      <point x="1361" y="1304"/>
      <point x="1469" y="1075"/>
      <point x="1469" y="926" type="qcurve" smooth="yes"/>
      <point x="1469" y="768"/>
      <point x="1371" y="455"/>
      <point x="1290" y="331" type="qcurve" smooth="yes"/>
      <point x="1184" y="170"/>
      <point x="859" y="-20"/>
    </contour>
    <contour>
      <point x="662" y="126" type="qcurve" smooth="yes"/>
      <point x="823" y="126"/>
      <point x="1071" y="275"/>
      <point x="1238" y="523"/>
      <point x="1279" y="674" type="qcurve"/>
      <point x="322" y="660" type="line"/>
      <point x="305" y="573"/>
      <point x="305" y="498" type="qcurve" smooth="yes"/>
      <point x="305" y="328"/>
      <point x="480" y="126"/>
    </contour>
  </outline>
</glyph>
<glyph name="imacroncyrillic" format="2">
  <advance width="1121"/>
  <unicode hex="04E3"/>
  <outline>
    <contour>
      <point x="992" y="1183" type="line"/>
      <point x="451" y="1183" type="line"/>
      <point x="480" y="1308" type="line"/>
      <point x="1021" y="1308" type="line"/>
    </contour>
    <contour>
      <point x="382" y="-23" type="qcurve" smooth="yes"/>
      <point x="241" y="-23"/>
      <point x="108" y="133"/>
      <point x="108" y="264" type="qcurve" smooth="yes"/>
      <point x="108" y="336"/>
      <point x="126" y="414" type="qcurve" smooth="yes"/>
      <point x="261" y="999" type="line"/>
      <point x="410" y="999" type="line"/>
      <point x="272" y="394" type="line"/>
      <point x="255" y="323"/>
      <point x="255" y="267" type="qcurve" smooth="yes"/>
      <point x="255" y="106"/>
      <point x="402" y="106" type="qcurve" smooth="yes"/>
      <point x="491" y="106"/>
      <point x="653" y="201"/>
      <point x="769" y="354"/>
      <point x="791" y="444" type="qcurve"/>
      <point x="918" y="999" type="line"/>
      <point x="1066" y="999" type="line"/>
      <point x="837" y="0" type="line"/>
      <point x="690" y="0" type="line"/>
      <point x="729" y="163" type="line"/>
      <point x="698" y="118"/>
      <point x="592" y="33"/>
      <point x="456" y="-23"/>
    </contour>
  </outline>
</glyph>
<glyph name="Umacroncyrillic" format="2">
  <advance width="1125"/>
  <unicode hex="04EE"/>
  <outline>
    <contour>
      <point x="1089" y="1597" type="line"/>
      <point x="548" y="1597" type="line"/>
      <point x="577" y="1722" type="line"/>
      <point x="1118" y="1722" type="line"/>
    </contour>
    <contour>
      <point x="324" y="0" type="line"/>
      <point x="150" y="0" type="line"/>
      <point x="454" y="457" type="line"/>
      <point x="281" y="1413" type="line"/>
      <point x="450" y="1413" type="line"/>
      <point x="572" y="624" type="line"/>
      <point x="1089" y="1413" type="line"/>
      <point x="1270" y="1413" type="line"/>
    </contour>
  </outline>
</glyph>
<glyph name="endash" format="2">
  <advance width="1023"/>
  <unicode hex="2013"/>
  <outline>
    <contour>
      <point x="879" y="578" type="line"/>
      <point x="181" y="578" type="line"/>
      <point x="208" y="692" type="line"/>
      <point x="905" y="692" type="line"/>
    </contour>
  </outline>
</glyph>
<glyph name="emdash" format="2">
  <advance width="1678"/>
  <unicode hex="2014"/>
  <outline>
    <contour>
      <point x="1534" y="578" type="line"/>
      <point x="181" y="578" type="line"/>
      <point x="208" y="692" type="line"/>
      <point x="1561" y="692" type="line"/>
    </contour>
  </outline>
</glyph>
<glyph name="quoteleft" format="2">
  <advance width="565"/>
  <unicode hex="2018"/>
  <outline>
    <contour>
      <point x="516" y="927" type="line"/>
      <point x="426" y="927" type="line"/>
      <point x="317" y="1413" type="line"/>
      <point x="510" y="1413" type="line"/>
    </contour>
  </outline>
</glyph>
<glyph name="quoteright" format="2">
  <advance width="564"/>
  <unicode hex="2019"/>
  <outline>
    <contour>
      <point x="337" y="927" type="line"/>
      <point x="240" y="927" type="line"/>
      <point x="473" y="1413" type="line"/>
      <point x="672" y="1413" type="line"/>
    </contour>
  </outline>
</glyph>
<glyph name="quotesinglbase" format="2">
  <advance width="568"/>
  <unicode hex="201A"/>
  <outline>
    <contour>
      <point x="75" y="-225" type="line"/>
      <point x="-24" y="-225" type="line"/>
      <point x="211" y="264" type="line"/>
      <point x="410" y="264" type="line"/>
    </contour>
  </outline>
</glyph>
<glyph name="quotedblleft" format="2">
  <advance width="872"/>
  <unicode hex="201C"/>
  <outline>
    <contour>
      <point x="516" y="927" type="line"/>
      <point x="426" y="927" type="line"/>
      <point x="317" y="1413" type="line"/>
      <point x="510" y="1413" type="line"/>
    </contour>
    <contour>
      <point x="825" y="927" type="line"/>
      <point x="736" y="927" type="line"/>
      <point x="626" y="1413" type="line"/>
      <point x="817" y="1413" type="line"/>
    </contour>
  </outline>
</glyph>
<glyph name="quotedblbase" format="2">
  <advance width="881"/>
  <unicode hex="201E"/>
  <outline>
    <contour>
      <point x="75" y="-225" type="line"/>
      <point x="-24" y="-225" type="line"/>
      <point x="211" y="264" type="line"/>
      <point x="410" y="264" type="line"/>
    </contour>
    <contour>
      <point x="391" y="-225" type="line"/>
      <point x="292" y="-225" type="line"/>
      <point x="526" y="264" type="line"/>
      <point x="725" y="264" type="line"/>
    </contour>
  </outline>
</glyph>
<glyph name="uni2023" format="2">
  <advance width="802"/>
  <unicode hex="2023"/>
  <outline>
    <contour>
      <point x="181" y="237" type="line"/>
      <point x="295" y="741" type="line"/>
      <point x="684" y="490" type="line"/>
    </contour>
  </outline>
</glyph>
<glyph name="twodotenleader" format="2">
  <advance width="1082"/>
  <unicode hex="2025"/>
  <outline>
    <contour>
      <point x="319" y="0" type="line"/>
      <point x="120" y="0" type="line"/>
      <point x="165" y="194" type="line"/>
      <point x="363" y="194" type="line"/>
    </contour>
    <contour>
      <point x="732" y="0" type="line"/>
      <point x="534" y="0" type="line"/>
      <point x="579" y="194" type="line"/>
      <point x="777" y="194" type="line"/>
    </contour>
  </outline>
</glyph>
<glyph name="perthousand" format="2">
  <advance width="2179"/>
  <unicode hex="2030"/>
  <outline>
    <contour>
      <point x="466" y="804" type="qcurve" smooth="yes"/>
      <point x="362" y="804"/>
      <point x="269" y="932"/>
      <point x="269" y="1029" type="qcurve" smooth="yes"/>
      <point x="269" y="1095"/>
      <point x="304" y="1216"/>
      <point x="336" y="1273" type="qcurve" smooth="yes"/>
      <point x="374" y="1342"/>
      <point x="499" y="1436"/>
      <point x="582" y="1436" type="qcurve" smooth="yes"/>
      <point x="650" y="1436"/>
      <point x="736" y="1375"/>
      <point x="777" y="1271"/>
      <point x="777" y="1206" type="qcurve" smooth="yes"/>
      <point x="777" y="1101"/>
      <point x="684" y="905"/>
      <point x="603" y="847" type="qcurve" smooth="yes"/>
      <point x="541" y="804"/>
    </contour>
    <contour>
      <point x="365" y="2" type="line"/>
      <point x="228" y="2" type="line"/>
      <point x="1304" y="1407" type="line"/>
      <point x="1441" y="1407" type="line"/>
    </contour>
    <contour>
      <point x="462" y="904" type="qcurve" smooth="yes"/>
      <point x="510" y="904"/>
      <point x="587" y="967"/>
      <point x="642" y="1063"/>
      <point x="671" y="1170"/>
      <point x="671" y="1213" type="qcurve" smooth="yes"/>
      <point x="671" y="1265"/>
      <point x="629" y="1334"/>
      <point x="580" y="1334" type="qcurve" smooth="yes"/>
      <point x="532" y="1334"/>
      <point x="454" y="1271"/>
      <point x="399" y="1175"/>
      <point x="370" y="1069"/>
      <point x="370" y="1025" type="qcurve" smooth="yes"/>
      <point x="370" y="973"/>
      <point x="412" y="904"/>
    </contour>
    <contour>
      <point x="1108" y="3" type="qcurve" smooth="yes"/>
      <point x="1004" y="3"/>
      <point x="910" y="132"/>
      <point x="910" y="229" type="qcurve" smooth="yes"/>
      <point x="910" y="288"/>
      <point x="949" y="427"/>
      <point x="1028" y="552"/>
      <point x="1145" y="632"/>
      <point x="1223" y="632" type="qcurve" smooth="yes"/>
      <point x="1321" y="632"/>
      <point x="1418" y="503"/>
      <point x="1418" y="403" type="qcurve" smooth="yes"/>
      <point x="1418" y="304"/>
      <point x="1339" y="121"/>
      <point x="1199" y="3"/>
    </contour>
    <contour>
      <point x="1699" y="3" type="qcurve" smooth="yes"/>
      <point x="1595" y="3"/>
      <point x="1502" y="131"/>
      <point x="1502" y="228" type="qcurve" smooth="yes"/>
      <point x="1502" y="288"/>
      <point x="1541" y="428"/>
      <point x="1620" y="552"/>
      <point x="1737" y="632"/>
      <point x="1815" y="632" type="qcurve" smooth="yes"/>
      <point x="1883" y="632"/>
      <point x="1970" y="571"/>
      <point x="2011" y="467"/>
      <point x="2011" y="403" type="qcurve" smooth="yes"/>
      <point x="2011" y="336"/>
      <point x="1968" y="195"/>
      <point x="1888" y="77"/>
      <point x="1772" y="3"/>
    </contour>
    <contour>
      <point x="1106" y="103" type="qcurve" smooth="yes"/>
      <point x="1155" y="103"/>
      <point x="1236" y="172"/>
      <point x="1291" y="276"/>
      <point x="1303" y="331" type="qcurve" smooth="yes"/>
      <point x="1313" y="376"/>
      <point x="1313" y="411" type="qcurve" smooth="yes"/>
      <point x="1313" y="462"/>
      <point x="1272" y="530"/>
      <point x="1223" y="530" type="qcurve" smooth="yes"/>
      <point x="1174" y="530"/>
      <point x="1096" y="468"/>
      <point x="1042" y="372"/>
      <point x="1013" y="266"/>
      <point x="1013" y="223" type="qcurve" smooth="yes"/>
      <point x="1013" y="103"/>
    </contour>
    <contour>
      <point x="1698" y="103" type="qcurve" smooth="yes"/>
      <point x="1747" y="103"/>
      <point x="1824" y="168"/>
      <point x="1876" y="266"/>
      <point x="1903" y="371"/>
      <point x="1903" y="411" type="qcurve" smooth="yes"/>
      <point x="1903" y="462"/>
      <point x="1863" y="530"/>
      <point x="1815" y="530" type="qcurve" smooth="yes"/>
      <point x="1767" y="530"/>
      <point x="1689" y="469"/>
      <point x="1635" y="374"/>
      <point x="1606" y="267"/>
      <point x="1606" y="222" type="qcurve" smooth="yes"/>
      <point x="1606" y="171"/>
      <point x="1648" y="103"/>
    </contour>
  </outline>
</glyph>
<glyph name="guilsinglright" format="2">
  <advance width="609"/>
  <unicode hex="203A"/>
  <outline>
    <contour>
      <point x="95" y="185" type="line"/>
      <point x="129" y="347" type="line"/>
      <point x="362" y="512" type="line"/>
      <point x="209" y="675" type="line"/>
      <point x="242" y="837" type="line"/>
      <point x="538" y="512" type="line"/>
    </contour>
  </outline>
</glyph>
<glyph name="foursuperior" format="2">
  <advance width="825"/>
  <unicode hex="2074"/>
  <outline>
    <contour>
      <point x="543" y="486" type="line"/>
      <point x="427" y="486" type="line"/>
      <point x="488" y="736" type="line"/>
      <point x="34" y="736" type="line"/>
      <point x="47" y="804" type="line"/>
      <point x="668" y="1428" type="line"/>
      <point x="774" y="1428" type="line"/>
      <point x="629" y="838" type="line"/>
      <point x="775" y="838" type="line"/>
      <point x="755" y="736" type="line"/>
      <point x="604" y="736" type="line"/>
    </contour>
    <contour>
      <point x="513" y="838" type="line"/>
      <point x="617" y="1265" type="line"/>
      <point x="205" y="838" type="line"/>
    </contour>
  </outline>
</glyph>
<glyph name="fivesuperior" format="2">
  <advance width="818"/>
  <unicode hex="2075"/>
  <outline>
    <contour>
      <point x="329" y="473" type="qcurve" smooth="yes"/>
      <point x="245" y="473"/>
      <point x="126" y="545"/>
      <point x="95" y="606" type="qcurve" smooth="yes"/>
      <point x="66" y="662"/>
      <point x="66" y="730" type="qcurve" smooth="yes"/>
      <point x="66" y="743" type="line"/>
      <point x="175" y="764" type="line"/>
      <point x="175" y="752" type="line" smooth="yes"/>
      <point x="175" y="574"/>
      <point x="334" y="574" type="qcurve" smooth="yes"/>
      <point x="403" y="574"/>
      <point x="517" y="640"/>
      <point x="592" y="746"/>
      <point x="607" y="805" type="qcurve" smooth="yes"/>
      <point x="614" y="835"/>
      <point x="614" y="862" type="qcurve" smooth="yes"/>
      <point x="614" y="927"/>
      <point x="539" y="1007"/>
      <point x="462" y="1007" type="qcurve" smooth="yes"/>
      <point x="401" y="1007"/>
      <point x="284" y="951"/>
      <point x="242" y="903" type="qcurve"/>
      <point x="157" y="948" type="line"/>
      <point x="350" y="1428" type="line"/>
      <point x="830" y="1428" type="line"/>
      <point x="809" y="1324" type="line"/>
      <point x="410" y="1324" type="line"/>
      <point x="287" y="1030" type="line"/>
      <point x="372" y="1105"/>
      <point x="487" y="1105" type="qcurve" smooth="yes"/>
      <point x="564" y="1105"/>
      <point x="676" y="1043"/>
      <point x="733" y="933"/>
      <point x="733" y="864" type="qcurve" smooth="yes"/>
      <point x="733" y="827"/>
      <point x="723" y="786" type="qcurve" smooth="yes"/>
      <point x="702" y="702"/>
      <point x="586" y="558"/>
      <point x="421" y="473"/>
    </contour>
  </outline>
</glyph>
<glyph name="sevensuperior" format="2">
  <advance width="792"/>
  <unicode hex="2077"/>
  <outline>
    <contour>
      <point x="227" y="486" type="line"/>
      <point x="108" y="486" type="line"/>
      <point x="704" y="1324" type="line"/>
      <point x="201" y="1324" type="line"/>
      <point x="222" y="1428" type="line"/>
      <point x="848" y="1428" type="line"/>
      <point x="837" y="1369" type="line"/>
    </contour>
  </outline>
</glyph>
